SplineFontDB: 3.2
FontName: BikeCatalog-Regular
FullName: Bike Catalog
FamilyName: Bike Catalog
Weight: Black
Copyright: Bike Catalog - revived from vintage Bike Nashbar/Bike Warehouse catalog letterforms.
UComments: "2026-6-22: Created with FontForge (http://fontforge.org)"
Version: 1.000
ItalicAngle: 0
UnderlinePosition: -100
UnderlineWidth: 50
Ascent: 800
Descent: 200
InvalidEm: 0
LayerCount: 2
Layer: 0 0 "Back" 1
Layer: 1 0 "Fore" 0
XUID: [1021 823 -1767544778 12126284]
StyleMap: 0x0000
FSType: 0
OS2Version: 0
OS2_WeightWidthSlopeOnly: 0
OS2_UseTypoMetrics: 1
CreationTime: 1782159556
ModificationTime: 1782159558
PfmFamily: 16
TTFWeight: 900
TTFWidth: 5
LineGap: 0
VLineGap: 90
Panose: 2 0 10 3 0 0 0 0 0 0
OS2TypoAscent: 800
OS2TypoAOffset: 1
OS2TypoDescent: -200
OS2TypoDOffset: 1
OS2TypoLinegap: 0
OS2WinAscent: 820
OS2WinAOffset: 1
OS2WinDescent: 240
OS2WinDOffset: 1
HheadAscent: 820
HheadAOffset: 1
HheadDescent: -240
HheadDOffset: 1
OS2SubXSize: 650
OS2SubYSize: 700
OS2SubXOff: 0
OS2SubYOff: 140
OS2SupXSize: 650
OS2SupYSize: 700
OS2SupXOff: 0
OS2SupYOff: 480
OS2StrikeYSize: 49
OS2StrikeYPos: 258
Lookup: 258 0 0 "'kern' Horizontal Kerning lookup 0" { "'kern' Horizontal Kerning lookup 0 subtable"  } ['kern' ('DFLT' <'dflt' > ) ]
DEI: 91125
Encoding: UnicodeFull
UnicodeInterp: none
NameList: AGL For New Fonts
DisplaySize: -48
AntiAlias: 1
FitToEm: 0
BeginChars: 1114112 71

StartChar: a
Encoding: 97 97 0
Width: 579
Flags: W
HStem: -4 175<231.43 325.94>
VStem: 30 180<192.286 299.314> 360 183<8 298.125>
LayerCount: 2
Fore
SplineSet
247 497 m 0
 261 499 310 499 322 497 c 0
 352 492 366 490 388 481 c 0
 429 465 466 436 492 402 c 0
 512 375 527 340 536 303 c 0
 542 276 543 268 543 133 c 2
 543 8 l 1
 519 7 l 2
 489 6 387 6 372 7 c 2
 360 8 l 1
 360 133 l 2
 360 269 360 262 352 278 c 0
 340 303 321 317 293 322 c 0
 284 324 281 324 272 322 c 0
 256 319 244 312 233 301 c 0
 217 285 210 268 210 245 c 0
 210 229 213 219 220 207 c 0
 228 193 244 180 259 174 c 0
 265 171 269 171 281 171 c 0
 298 171 306 173 318 180 c 0
 322 183 326 184 326 184 c 2
 327 183 327 4 326 3 c 0
 324 1 291 -4 276 -4 c 0
 262 -4 239 -1 224 2 c 0
 175 12 130 36 97 71 c 0
 85 84 69 106 64 115 c 0
 53 135 50 143 43 163 c 0
 34 190 30 214 30 244 c 0
 30 265 31 274 34 292 c 0
 43 343 66 388 100 423 c 0
 126 449 152 467 189 482 c 0
 204 488 224 494 247 497 c 0
EndSplineSet
EndChar

StartChar: b
Encoding: 98 98 1
Width: 595
Flags: W
HStem: 329 178<261.766 355.776> 675 20G<37 223>
VStem: 37 190<199.861 694.89>
LayerCount: 2
Fore
SplineSet
130 695 m 2
 181 695 223 695 223 695 c 0
 227 697 227 693 227 468 c 0
 227 222 227 239 234 222 c 0
 247 192 271 177 303 177 c 0
 321 177 332 181 348 192 c 0
 369 207 380 237 376 265 c 0
 374 278 370 287 363 298 c 0
 349 319 331 329 304 329 c 0
 292 329 289 329 280 325 c 0
 274 323 268 319 266 318 c 0
 264 317 262 316 262 316 c 0
 262 316 261 357 261 408 c 2
 261 501 l 1
 267 502 l 2
 283 506 293 507 319 507 c 0
 348 507 357 507 378 501 c 0
 435 486 481 455 517 407 c 0
 529 391 547 357 553 337 c 0
 557 325 559 312 561 302 c 0
 562 297 563 289 564 286 c 0
 565 283 565 269 565 256 c 0
 565 219 561 191 547 157 c 0
 542 146 540 141 530 123 c 0
 524 112 504 86 492 74 c 0
 452 34 404 10 344 -0 c 0
 328 -3 278 -2 261 1 c 0
 229 6 209 12 183 25 c 0
 131 50 91 90 65 143 c 0
 56 162 52 173 46 195 c 0
 37 231 37 232 37 477 c 2
 37 695 l 1
 130 695 l 2
EndSplineSet
EndChar

StartChar: c
Encoding: 99 99 2
Width: 557
Flags: W
HStem: 225 10<521.298 531> 245 10<207 217> 294 30<511 521> 324 176<227.297 319.75>
VStem: 31 176<206.511 303.489>
LayerCount: 2
Fore
SplineSet
217 495 m 0xd8
 217 500 217 500 276 500 c 0xd8
 335 500 335 500 335 495 c 0
 335 490 335 490 350 490 c 0
 365 490 364 490 364 485 c 0
 364 480 364 480 379 480 c 0
 394 480 394 480 394 475 c 0
 394 470 394 471 399 471 c 0
 404 471 404 471 404 466 c 0
 404 461 403 461 413 461 c 0
 423 461 423 461 423 456 c 0
 423 451 423 451 428 451 c 0
 433 451 433 451 433 446 c 0
 433 441 433 441 443 441 c 0
 453 441 453 441 453 436 c 0
 453 431 452 431 457 431 c 0
 462 431 462 432 462 422 c 0
 462 412 462 412 467 412 c 0
 472 412 472 412 472 407 c 0
 472 402 472 402 477 402 c 0
 482 402 482 402 482 397 c 0
 482 392 482 392 487 392 c 0
 492 392 492 392 492 382 c 0
 492 372 492 373 497 373 c 0
 502 373 502 373 502 363 c 0
 502 353 501 353 506 353 c 0
 511 353 511 353 511 338 c 0
 511 323 511 324 516 324 c 0
 521 324 521 324 521 309 c 0
 521 294 521 294 423 294 c 0xe8
 325 294 325 294 325 299 c 0
 325 304 325 304 320 304 c 0
 315 304 315 304 315 309 c 0
 315 314 315 314 310 314 c 0
 305 314 306 314 306 319 c 0
 306 324 306 324 281 324 c 0xd8
 256 324 256 324 256 319 c 0
 256 314 257 314 247 314 c 0
 237 314 237 314 237 309 c 0
 237 304 237 304 232 304 c 0
 227 304 227 304 227 299 c 0
 227 294 227 294 222 294 c 0xe8
 217 294 217 294 217 279 c 0
 217 264 217 265 212 265 c 0
 207 265 207 265 207 260 c 0
 207 255 207 255 212 255 c 0
 217 255 217 255 217 250 c 0
 217 245 217 245 212 245 c 0
 207 245 207 245 207 240 c 0
 207 235 207 235 212 235 c 0
 217 235 217 235 217 225 c 0
 217 215 217 216 222 216 c 0
 227 216 227 216 227 211 c 0
 227 206 227 206 232 206 c 0
 237 206 237 206 237 201 c 0
 237 196 237 196 242 196 c 0
 247 196 247 196 247 191 c 0
 247 186 246 186 256 186 c 0
 266 186 266 186 266 181 c 0
 266 176 266 176 281 176 c 0
 296 176 296 176 296 181 c 0
 296 186 296 186 306 186 c 0
 316 186 315 186 315 191 c 0
 315 196 315 196 320 196 c 0
 325 196 325 196 325 201 c 0
 325 206 325 206 330 206 c 0
 335 206 335 206 335 216 c 0
 335 226 335 225 340 225 c 0
 345 225 345 225 345 230 c 0
 345 235 345 235 438 235 c 0
 531 235 531 235 531 230 c 0
 531 225 531 225 526 225 c 0
 521 225 521 226 521 201 c 0
 521 176 521 176 516 176 c 0
 511 176 511 177 511 162 c 0
 511 147 511 147 506 147 c 0
 501 147 502 147 502 137 c 0
 502 127 502 127 497 127 c 0
 492 127 492 128 492 123 c 0
 492 118 492 118 487 118 c 0
 482 118 482 118 482 108 c 0
 482 98 482 98 477 98 c 0
 472 98 472 98 472 93 c 0
 472 88 472 88 467 88 c 0
 462 88 462 88 462 83 c 0
 462 78 462 78 457 78 c 0
 452 78 453 79 453 74 c 0
 453 69 453 69 448 69 c 0
 443 69 443 69 443 64 c 0
 443 59 443 59 438 59 c 0
 433 59 433 59 433 54 c 0
 433 49 433 49 428 49 c 0
 423 49 423 49 423 44 c 0
 423 39 423 39 413 39 c 0
 403 39 404 39 404 34 c 0
 404 29 404 29 399 29 c 0
 394 29 394 30 394 25 c 0
 394 20 394 20 379 20 c 0
 364 20 364 20 364 15 c 0
 364 10 365 10 345 10 c 0
 325 10 325 10 325 5 c 0
 325 0 325 0 281 0 c 0
 237 0 237 0 237 5 c 0
 237 10 237 10 217 10 c 0
 197 10 198 10 198 15 c 0
 198 20 198 20 183 20 c 0
 168 20 168 20 168 25 c 0
 168 30 168 29 158 29 c 0
 148 29 149 29 149 34 c 0
 149 39 149 39 144 39 c 0
 139 39 139 39 139 44 c 0
 139 49 139 49 129 49 c 0
 119 49 119 49 119 54 c 0
 119 59 119 59 114 59 c 0
 109 59 109 59 109 64 c 0
 109 69 110 69 105 69 c 0
 100 69 100 69 100 74 c 0
 100 79 100 78 95 78 c 0
 90 78 90 78 90 83 c 0
 90 88 90 88 85 88 c 0
 80 88 80 88 80 93 c 0
 80 98 80 98 75 98 c 0
 70 98 70 98 70 108 c 0
 70 118 70 118 65 118 c 0
 60 118 60 117 60 127 c 0
 60 137 61 137 56 137 c 0
 51 137 51 137 51 147 c 0
 51 157 51 157 46 157 c 0
 41 157 41 157 41 172 c 0
 41 187 41 186 36 186 c 0
 31 186 31 186 31 255 c 0
 31 324 31 324 36 324 c 0
 41 324 41 323 41 338 c 0
 41 353 41 353 46 353 c 0
 51 353 51 353 51 363 c 0
 51 373 51 373 56 373 c 0
 61 373 60 372 60 382 c 0
 60 392 60 392 65 392 c 0
 70 392 70 392 70 397 c 0
 70 402 70 402 75 402 c 0
 80 402 80 402 80 407 c 0
 80 412 80 412 85 412 c 0
 90 412 90 412 90 417 c 0
 90 422 90 422 95 422 c 0
 100 422 100 421 100 426 c 0
 100 431 100 431 105 431 c 0
 110 431 109 431 109 436 c 0
 109 441 109 441 114 441 c 0
 119 441 119 441 119 446 c 0
 119 451 119 451 124 451 c 0
 129 451 129 451 129 456 c 0
 129 461 129 461 139 461 c 0
 149 461 149 461 149 466 c 0
 149 471 149 471 154 471 c 0
 159 471 158 470 158 475 c 0
 158 480 158 480 173 480 c 0
 188 480 188 480 188 485 c 0
 188 490 188 490 203 490 c 0
 218 490 217 490 217 495 c 0xd8
EndSplineSet
EndChar

StartChar: d
Encoding: 100 100 3
Width: 568
Flags: W
HStem: 314 186<247 314.539> 675 20G<345 531>
VStem: 306 19<304.001 313.797> 335 186<186.869 557.75> 345 186<196.385 695>
LayerCount: 2
Fore
SplineSet
345 446 m 2xe8
 345 695 l 1
 438 695 l 1
 531 695 l 1
 531 451 l 2xe8
 531 235 531 235 526 235 c 0
 521 235 521 235 521 206 c 0xf0
 521 177 521 176 516 176 c 0
 511 176 511 177 511 162 c 0
 511 147 511 147 506 147 c 0
 501 147 502 147 502 137 c 0
 502 127 502 127 497 127 c 0
 492 127 492 128 492 118 c 0
 492 108 492 108 487 108 c 0
 482 108 482 108 482 103 c 0
 482 98 482 98 477 98 c 0
 472 98 472 98 472 88 c 0
 472 78 472 78 467 78 c 0
 462 78 462 79 462 74 c 0
 462 69 463 69 453 69 c 0
 443 69 443 69 443 64 c 0
 443 59 443 59 438 59 c 0
 433 59 433 59 433 54 c 0
 433 49 433 49 428 49 c 0
 423 49 423 49 423 44 c 0
 423 39 423 39 413 39 c 0
 403 39 404 39 404 34 c 0
 404 29 404 29 394 29 c 0
 384 29 384 30 384 25 c 0
 384 20 384 20 374 20 c 0
 364 20 364 20 364 15 c 0
 364 10 365 10 345 10 c 0xe8
 325 10 325 10 325 5 c 0
 325 0 325 0 281 0 c 0
 237 0 237 0 237 5 c 0
 237 10 237 10 217 10 c 0
 197 10 198 10 198 15 c 0
 198 20 198 20 183 20 c 0
 168 20 168 20 168 25 c 0
 168 30 168 29 158 29 c 0
 148 29 149 29 149 34 c 0
 149 39 149 39 144 39 c 0
 139 39 139 39 139 44 c 0
 139 49 139 49 129 49 c 0
 119 49 119 49 119 54 c 0
 119 59 119 59 114 59 c 0
 109 59 109 59 109 64 c 0
 109 69 110 69 105 69 c 0
 100 69 100 69 100 74 c 0
 100 79 100 78 95 78 c 0
 90 78 90 78 90 83 c 0
 90 88 90 88 85 88 c 0
 80 88 80 88 80 93 c 0
 80 98 80 98 75 98 c 0
 70 98 70 98 70 108 c 0
 70 118 70 118 65 118 c 0
 60 118 60 118 60 123 c 0
 60 128 61 127 56 127 c 0
 51 127 51 127 51 137 c 0
 51 147 51 147 46 147 c 0
 41 147 41 147 41 162 c 0
 41 177 41 176 36 176 c 0
 31 176 31 176 31 250 c 0
 31 324 31 324 36 324 c 0
 41 324 41 323 41 338 c 0
 41 353 41 353 46 353 c 0
 51 353 51 353 51 363 c 0
 51 373 51 373 56 373 c 0
 61 373 60 372 60 377 c 0
 60 382 60 382 65 382 c 0
 70 382 70 382 70 392 c 0
 70 402 70 402 75 402 c 0
 80 402 80 402 80 407 c 0
 80 412 80 412 85 412 c 0
 90 412 90 412 90 417 c 0
 90 422 90 422 95 422 c 0
 100 422 100 421 100 426 c 0
 100 431 100 431 105 431 c 0
 110 431 109 431 109 436 c 0
 109 441 109 441 114 441 c 0
 119 441 119 441 119 446 c 0
 119 451 119 451 124 451 c 0
 129 451 129 451 129 456 c 0
 129 461 129 461 139 461 c 0
 149 461 149 461 149 466 c 0
 149 471 149 471 154 471 c 0
 159 471 158 470 158 475 c 0
 158 480 158 480 173 480 c 0
 188 480 188 480 188 485 c 0
 188 490 188 490 203 490 c 0
 218 490 217 490 217 495 c 0
 217 500 217 500 271 500 c 2
 325 500 l 1
 325 402 l 2
 325 304 325 304 315 304 c 0
 305 304 306 304 306 309 c 0
 306 314 305 314 276 314 c 0
 247 314 247 314 247 309 c 0
 247 304 247 304 242 304 c 0
 237 304 237 304 237 299 c 0
 237 294 237 294 232 294 c 0
 227 294 227 294 227 289 c 0
 227 284 227 284 222 284 c 0
 217 284 217 285 217 275 c 0
 217 265 217 265 212 265 c 0
 207 265 207 265 207 250 c 0
 207 235 207 235 212 235 c 0
 217 235 217 235 217 225 c 0
 217 215 217 216 222 216 c 0
 227 216 227 216 227 211 c 0
 227 206 227 206 232 206 c 0
 237 206 237 206 237 201 c 0
 237 196 237 196 242 196 c 0
 247 196 247 196 247 191 c 0
 247 186 246 186 256 186 c 0
 266 186 266 186 266 181 c 0
 266 176 266 176 276 176 c 0
 286 176 286 176 286 181 c 0
 286 186 286 186 301 186 c 0
 316 186 315 186 315 191 c 0
 315 196 315 196 320 196 c 0
 325 196 325 196 325 201 c 0
 325 206 325 206 330 206 c 0
 335 206 335 206 335 216 c 0xf0
 335 226 335 225 340 225 c 0
 345 225 345 225 345 446 c 2xe8
EndSplineSet
EndChar

StartChar: e
Encoding: 101 101 4
Width: 575
Flags: W
LayerCount: 2
Fore
SplineSet
274 509 m 0
 303 511 348 507 370 500 c 0
 421 484 451 467 485 435 c 2
 498 422 l 1
 485 405 l 2
 478 396 466 382 459 374 c 0
 452 366 439 348 429 336 c 0
 419 324 405 307 398 298 c 0
 384 281 348 237 330 215 c 0
 323 207 317 200 316 200 c 0
 314 200 243 256 243 258 c 0
 243 259 260 281 301 332 c 0
 308 340 314 347 314 348 c 0
 314 349 313 350 310 351 c 0
 286 361 255 357 234 341 c 0
 207 320 192 281 198 247 c 0
 206 199 235 167 278 158 c 0
 296 154 324 156 340 162 c 0
 363 171 382 188 392 210 c 0
 395 216 397 221 397 222 c 0
 397 227 398 227 473 227 c 0
 539 227 545 227 546 225 c 0
 548 219 537 167 530 150 c 0
 529 149 528 145 527 142 c 0
 514 112 500 91 477 68 c 0
 442 33 398 11 340 1 c 0
 324 -2 268 -3 252 -0 c 0
 224 5 202 11 186 18 c 0
 176 23 158 31 153 34 c 0
 120 53 86 88 67 120 c 0
 61 131 49 155 49 158 c 0
 49 159 49 160 48 161 c 0
 46 163 41 182 38 196 c 0
 31 228 30 266 35 296 c 0
 39 316 40 320 46 338 c 0
 78 435 166 502 274 509 c 0
EndSplineSet
EndChar

StartChar: f
Encoding: 102 102 5
Width: 336
Flags: W
HStem: 675 20G<257 309>
VStem: 44 265<196 381.999> 44 186<10 196 382.283 470.703>
LayerCount: 2
Fore
SplineSet
240 690 m 0xc0
 240 695 240 695 274 695 c 2
 309 695 l 1
 309 592 l 2xc0
 309 490 309 490 294 490 c 0
 279 490 279 490 279 485 c 0
 279 480 279 480 269 480 c 0
 259 480 260 480 260 475 c 0
 260 470 260 471 255 471 c 0
 250 471 250 471 250 466 c 0
 250 461 250 461 245 461 c 0
 240 461 240 461 240 451 c 0
 240 441 240 441 235 441 c 0
 230 441 230 441 230 412 c 0xa0
 230 383 230 382 269 382 c 2
 309 382 l 1
 309 289 l 1
 309 196 l 1xc0
 269 196 l 1
 230 196 l 1
 230 103 l 1
 230 10 l 1
 137 10 l 1
 44 10 l 1xa0
 44 235 l 2
 44 460 44 461 49 461 c 0
 54 461 54 460 54 485 c 0
 54 511 54 511 59 511 c 0
 64 511 64 511 64 527 c 0
 64 543 64 543 69 543 c 0
 74 543 73 544 73 549 c 0
 73 554 73 554 78 554 c 0
 83 554 83 554 83 565 c 0
 83 576 83 576 88 576 c 0
 93 576 93 576 93 581 c 0
 93 586 93 587 98 587 c 0
 103 587 103 587 103 598 c 0
 103 609 103 608 108 608 c 0
 113 608 113 609 113 614 c 0
 113 619 113 619 118 619 c 0
 123 619 122 620 122 625 c 0
 122 630 122 630 132 630 c 0
 142 630 142 630 142 635 c 0
 142 640 142 641 147 641 c 0
 152 641 152 641 152 646 c 0
 152 651 152 652 162 652 c 0
 172 652 171 652 171 657 c 0
 171 662 171 662 176 662 c 0
 181 662 181 663 181 668 c 0
 181 673 181 673 196 673 c 0
 211 673 211 674 211 679 c 0
 211 684 210 684 225 684 c 0
 240 684 240 685 240 690 c 0xc0
EndSplineSet
EndChar

StartChar: g
Encoding: 103 103 6
Width: 549
Flags: W
HStem: -210 160<164.083 295.898> 196 10<306.47 315> 333 167<227.453 314.733>
VStem: 31 176<216.671 312.982> 158 20<-39.9861 -30> 335 176<-9.79377 312.953>
LayerCount: 2
Fore
SplineSet
217 495 m 0xec
 217 500 217 500 276 500 c 0
 335 500 335 500 335 495 c 0
 335 490 335 490 355 490 c 0
 375 490 374 490 374 485 c 0
 374 480 374 480 384 480 c 0
 394 480 394 480 394 475 c 0
 394 470 394 471 404 471 c 0
 414 471 413 471 413 466 c 0
 413 461 413 461 423 461 c 0
 433 461 433 461 433 456 c 0
 433 451 433 451 438 451 c 0
 443 451 443 451 443 446 c 0
 443 441 443 441 448 441 c 0
 453 441 453 441 453 436 c 0
 453 431 452 431 457 431 c 0
 462 431 462 431 462 426 c 0
 462 421 462 422 467 422 c 0
 472 422 472 422 472 412 c 0
 472 402 472 402 477 402 c 0
 482 402 482 402 482 392 c 0
 482 382 482 382 487 382 c 0
 492 382 492 383 492 373 c 0
 492 363 492 363 497 363 c 0
 502 363 502 363 502 348 c 0
 502 333 501 333 506 333 c 0
 511 333 511 334 511 162 c 0
 511 -10 511 -10 506 -10 c 0
 501 -10 502 -10 502 -25 c 0
 502 -40 502 -40 497 -40 c 0
 492 -40 492 -40 492 -55 c 0
 492 -70 492 -70 487 -70 c 0
 482 -70 482 -70 482 -80 c 0
 482 -90 482 -90 477 -90 c 0
 472 -90 472 -90 472 -95 c 0
 472 -100 472 -100 467 -100 c 0
 462 -100 462 -100 462 -110 c 0
 462 -120 462 -120 457 -120 c 0
 452 -120 453 -120 453 -125 c 0
 453 -130 453 -130 448 -130 c 0
 443 -130 443 -130 443 -135 c 0
 443 -140 443 -140 438 -140 c 0
 433 -140 433 -140 433 -145 c 0
 433 -150 433 -150 428 -150 c 0
 423 -150 423 -150 423 -155 c 0
 423 -160 423 -160 418 -160 c 0
 413 -160 413 -160 413 -165 c 0
 413 -170 414 -170 404 -170 c 0
 394 -170 394 -170 394 -175 c 0
 394 -180 394 -180 389 -180 c 0
 384 -180 384 -180 384 -185 c 0
 384 -190 384 -190 369 -190 c 0
 354 -190 355 -190 355 -195 c 0
 355 -200 355 -200 340 -200 c 0
 325 -200 325 -200 325 -205 c 0
 325 -210 325 -210 256 -210 c 0
 187 -210 188 -210 188 -205 c 0
 188 -200 188 -200 173 -200 c 0
 158 -200 158 -200 158 -115 c 0
 158 -30 158 -30 168 -30 c 0
 178 -30 178 -30 178 -35 c 0xec
 178 -40 178 -40 193 -40 c 0
 208 -40 207 -40 207 -45 c 0
 207 -50 207 -50 232 -50 c 0
 257 -50 256 -50 256 -45 c 0
 256 -40 256 -40 271 -40 c 0
 286 -40 286 -40 286 -35 c 0
 286 -30 286 -30 291 -30 c 0
 296 -30 296 -30 296 -25 c 0
 296 -20 296 -20 301 -20 c 0
 306 -20 306 -20 306 -15 c 0
 306 -10 305 -10 310 -10 c 0
 315 -10 315 -10 315 0 c 0
 315 10 315 10 320 10 c 0
 325 10 325 10 325 20 c 0
 325 30 325 29 330 29 c 0
 335 29 335 30 335 157 c 0
 335 284 335 284 330 284 c 0
 325 284 325 284 325 294 c 0
 325 304 325 304 320 304 c 0
 315 304 315 304 315 309 c 0
 315 314 315 314 310 314 c 0
 305 314 306 314 306 319 c 0
 306 324 306 324 296 324 c 0
 286 324 286 323 286 328 c 0
 286 333 286 333 276 333 c 0
 266 333 266 333 266 328 c 0
 266 323 266 324 256 324 c 0
 246 324 247 324 247 319 c 0
 247 314 247 314 237 314 c 0
 227 314 227 314 227 304 c 0
 227 294 227 294 222 294 c 0
 217 294 217 295 217 275 c 0
 217 255 217 255 212 255 c 0
 207 255 207 255 207 250 c 0xf4
 207 245 207 245 212 245 c 0
 217 245 217 245 217 235 c 0
 217 225 217 225 222 225 c 0
 227 225 227 226 227 221 c 0
 227 216 227 216 237 216 c 0
 247 216 247 216 247 211 c 0
 247 206 247 206 281 206 c 0
 315 206 315 206 315 201 c 0
 315 196 315 196 310 196 c 0
 305 196 306 196 306 118 c 0
 306 40 306 39 291 39 c 0
 276 39 276 39 276 34 c 0
 276 29 276 29 232 29 c 0
 188 29 188 29 188 34 c 0
 188 39 188 39 173 39 c 0
 158 39 158 39 158 44 c 0xec
 158 49 159 49 149 49 c 0
 139 49 139 49 139 54 c 0
 139 59 139 59 129 59 c 0
 119 59 119 59 119 64 c 0
 119 69 119 69 114 69 c 0
 109 69 109 69 109 74 c 0
 109 79 110 78 105 78 c 0
 100 78 100 78 100 83 c 0
 100 88 100 88 95 88 c 0
 90 88 90 88 90 93 c 0
 90 98 90 98 85 98 c 0
 80 98 80 98 80 103 c 0
 80 108 80 108 75 108 c 0
 70 108 70 108 70 113 c 0
 70 118 70 118 65 118 c 0
 60 118 60 117 60 127 c 0
 60 137 61 137 56 137 c 0
 51 137 51 137 51 147 c 0
 51 157 51 157 46 157 c 0
 41 157 41 157 41 172 c 0
 41 187 41 186 36 186 c 0
 31 186 31 186 31 255 c 0xf4
 31 324 31 324 36 324 c 0
 41 324 41 323 41 338 c 0
 41 353 41 353 46 353 c 0
 51 353 51 353 51 363 c 0
 51 373 51 373 56 373 c 0
 61 373 60 372 60 382 c 0
 60 392 60 392 65 392 c 0
 70 392 70 392 70 397 c 0
 70 402 70 402 75 402 c 0
 80 402 80 402 80 412 c 0
 80 422 80 422 85 422 c 0
 90 422 90 421 90 426 c 0
 90 431 90 431 95 431 c 0
 100 431 100 431 100 436 c 0
 100 441 99 441 109 441 c 0
 119 441 119 441 119 446 c 0
 119 451 119 451 124 451 c 0
 129 451 129 451 129 456 c 0
 129 461 129 461 134 461 c 0
 139 461 139 461 139 466 c 0
 139 471 139 471 149 471 c 0
 159 471 158 470 158 475 c 0
 158 480 158 480 168 480 c 0
 178 480 178 480 178 485 c 0
 178 490 178 490 198 490 c 0
 218 490 217 490 217 495 c 0xec
EndSplineSet
EndChar

StartChar: h
Encoding: 104 104 7
Width: 529
Flags: W
VStem: 45 185<7.125 302.903 449 632.574> 302 186<8 288.717>
LayerCount: 2
Fore
SplineSet
47 694 m 0
 49 695 227 695 229 694 c 0
 230 694 230 673 230 505 c 0
 230 475 230 450 230 449 c 0
 231 449 232 449 233 450 c 0
 235 453 249 465 256 469 c 0
 286 489 327 498 363 492 c 0
 389 488 404 481 424 468 c 0
 450 451 471 418 480 380 c 0
 487 348 488 336 488 162 c 0
 488 42 487 9 486 8 c 0
 485 7 450 7 393 7 c 2
 303 7 l 1
 302 145 l 2
 301 275 301 283 299 289 c 0
 294 301 286 309 273 312 c 0
 263 314 250 311 241 303 c 0
 238 301 235 294 232 287 c 0
 231 284 231 241 230 145 c 2
 229 7 l 1
 138 7 l 2
 69 7 47 7 46 8 c 0
 44 9 44 44 45 285 c 0
 45 451 46 694 47 694 c 0
EndSplineSet
EndChar

StartChar: i
Encoding: 105 105 8
Width: 300
Flags: W
HStem: 475 20G<50 240> 519 186<95.0022 211.536>
VStem: 50 190<10 495>
LayerCount: 2
Fore
SplineSet
50 253 m 1
 50 495 l 1
 145 495 l 1
 240 495 l 1
 240 253 l 1
 240 10 l 1
 145 10 l 1
 50 10 l 1
 50 253 l 1
133 705 m 0
 141 706 162 705 169 703 c 0
 187 699 200 693 213 682 c 0
 247 653 257 603 234 565 c 0
 228 555 214 541 204 535 c 0
 185 524 167 519 145 519 c 0
 126 519 116 521 101 527 c 0
 98 528 95 530 95 530 c 0
 93 530 76 542 71 547 c 0
 63 555 54 570 50 579 c 0
 45 592 44 597 44 613 c 0
 44 626 44 630 47 638 c 0
 54 661 73 683 95 694 c 0
 105 699 123 704 133 705 c 0
EndSplineSet
EndChar

StartChar: j
Encoding: 106 106 9
Width: 447
Flags: W
HStem: -210 170<51.3134 186.266> 470 20G<226 403> 546 130<235.975 308.43 311.569 392.797> 556 111<226.131 274.539 344.461 393> 584 46<392.936 403> 593 37<216 226.007>
VStem: 40 39<-39.9477 -30.0002> 216 187<-9.53674 395.938 556.012 666.823> 226 177<0.0761604 490 556.012 610.124 611.877 666.906> 226 167<546.094 605.939 608.061 610.124 611.877 675.988> 236 147<537.232 605.939 608.061 610.124 611.877 676.001> 246 127<536.993 583.621 630.275 685.797> 285 49<676.375 694.999>
LayerCount: 2
Fore
SplineSet
285 690 m 0xe208
 285 695 285 695 310 695 c 0
 335 695 334 695 334 690 c 0xe208
 334 685 334 686 344 686 c 0
 354 686 354 686 354 681 c 0
 354 676 354 676 364 676 c 0
 374 676 373 677 373 672 c 0xe210
 373 667 373 667 378 667 c 0
 383 667 383 667 383 662 c 0xd220
 383 657 383 658 388 658 c 0
 393 658 393 658 393 644 c 0xd240
 393 630 393 630 398 630 c 0
 403 630 403 630 403 607 c 0xcb
 403 584 403 584 398 584 c 0
 393 584 393 583 393 574 c 0xca40
 393 565 393 565 388 565 c 0
 383 565 383 565 383 560 c 0
 383 555 383 556 378 556 c 0xd220
 373 556 373 556 373 551 c 0
 373 546 373 546 368 546 c 0
 363 546 364 547 364 542 c 0
 364 537 364 537 354 537 c 0
 344 537 344 537 344 532 c 0
 344 527 344 528 310 528 c 0
 276 528 275 527 275 532 c 0
 275 537 275 537 265 537 c 0
 255 537 256 537 256 542 c 0
 256 547 256 546 251 546 c 0
 246 546 246 546 246 551 c 0xe210
 246 556 246 556 241 556 c 0
 236 556 236 555 236 560 c 0xd220
 236 565 236 565 231 565 c 0
 226 565 226 565 226 579 c 0xd280
 226 593 226 593 221 593 c 0
 216 593 216 592 216 611 c 0xc7
 216 630 216 630 221 630 c 0
 226 630 226 630 226 639 c 0xc680
 226 648 226 649 231 649 c 0
 236 649 236 649 236 658 c 0xc620
 236 667 236 667 241 667 c 0
 246 667 246 667 246 672 c 0xd210
 246 677 246 676 256 676 c 0
 266 676 265 676 265 681 c 0
 265 686 265 686 275 686 c 0
 285 686 285 685 285 690 c 0xe208
226 275 m 2xc280
 226 490 l 1
 315 490 l 1
 403 490 l 1xc280
 403 245 l 2xc3
 403 0 403 0 398 0 c 0
 393 0 393 0 393 -20 c 0xc240
 393 -40 393 -40 388 -40 c 0
 383 -40 383 -40 383 -50 c 0xc220
 383 -60 383 -60 378 -60 c 0
 373 -60 373 -60 373 -75 c 0xc210
 373 -90 373 -90 368 -90 c 0
 363 -90 364 -90 364 -95 c 0
 364 -100 364 -100 359 -100 c 0
 354 -100 354 -100 354 -110 c 0
 354 -120 354 -120 349 -120 c 0
 344 -120 344 -120 344 -125 c 0
 344 -130 344 -130 339 -130 c 0
 334 -130 334 -130 334 -135 c 0
 334 -140 334 -140 329 -140 c 0
 324 -140 324 -140 324 -145 c 0
 324 -150 324 -150 319 -150 c 0
 314 -150 315 -150 315 -155 c 0
 315 -160 315 -160 305 -160 c 0
 295 -160 295 -160 295 -165 c 0
 295 -170 295 -170 290 -170 c 0
 285 -170 285 -170 285 -175 c 0xc208
 285 -180 285 -180 275 -180 c 0
 265 -180 265 -180 265 -185 c 0
 265 -190 266 -190 256 -190 c 0
 246 -190 246 -190 246 -195 c 0xc210
 246 -200 246 -200 231 -200 c 0
 216 -200 216 -200 216 -205 c 0
 216 -210 217 -210 143 -210 c 0
 69 -210 69 -210 69 -205 c 0
 69 -200 70 -200 55 -200 c 0
 40 -200 40 -200 40 -115 c 0
 40 -30 40 -30 60 -30 c 0
 80 -30 79 -30 79 -35 c 0
 79 -40 79 -40 118 -40 c 0
 157 -40 158 -40 158 -35 c 0
 158 -30 157 -30 167 -30 c 0
 177 -30 177 -30 177 -25 c 0
 177 -20 177 -20 182 -20 c 0
 187 -20 187 -20 187 -15 c 0
 187 -10 187 -10 192 -10 c 0
 197 -10 197 -10 197 -5 c 0
 197 0 197 0 202 0 c 0
 207 0 207 0 207 15 c 0
 207 30 207 29 212 29 c 0
 217 29 216 29 216 44 c 0xc3
 216 59 216 59 221 59 c 0
 226 59 226 59 226 275 c 2xc280
EndSplineSet
EndChar

StartChar: k
Encoding: 107 107 10
Width: 537
Flags: W
HStem: 478 20G<316 439.5> 675 20G<40 231>
VStem: 40 191<10 228 378.002 695> 313 187<10.178 150.28>
LayerCount: 2
Fore
SplineSet
40 352 m 1
 40 695 l 1
 135 695 l 1
 231 695 l 1
 231 536 l 2
 231 380 230 378 233 378 c 0
 234 378 239 379 242 381 c 0
 245 383 250 385 252 386 c 0
 258 389 274 405 280 414 c 0
 291 429 307 465 314 491 c 2
 316 497 l 1
 413 498 l 2
 466 498 510 497 511 497 c 0
 512 496 512 496 511 494 c 0
 510 493 508 487 506 482 c 0
 503 473 499 464 497 458 c 0
 496 457 496 452 494 448 c 0
 492 444 490 439 489 437 c 0
 488 435 488 433 487 431 c 0
 485 426 478 410 472 397 c 0
 468 389 452 360 447 352 c 0
 437 337 427 326 416 314 c 0
 410 307 405 301 405 301 c 0
 405 301 408 297 413 292 c 0
 424 280 430 273 438 261 c 0
 453 236 468 200 477 166 c 0
 478 163 478 159 479 157 c 0
 480 155 481 150 482 146 c 0
 483 142 484 137 485 135 c 0
 488 124 492 100 495 76 c 0
 498 54 501 13 500 11 c 0
 500 10 458 10 407 10 c 2
 313 10 l 1
 313 19 l 2
 313 24 311 33 311 39 c 0
 308 82 296 143 284 171 c 0
 273 195 264 207 247 220 c 0
 242 224 233 228 231 228 c 0
 231 228 231 179 231 119 c 2
 231 10 l 1
 135 10 l 1
 40 10 l 1
 40 352 l 1
EndSplineSet
EndChar

StartChar: l
Encoding: 108 108 11
Width: 274
Flags: W
HStem: 675 20G<44 230>
VStem: 44 186<10 695>
LayerCount: 2
Fore
SplineSet
44 338 m 1
 44 695 l 1
 137 695 l 1
 230 695 l 1
 230 338 l 1
 230 10 l 1
 137 10 l 1
 44 10 l 1
 44 338 l 1
EndSplineSet
EndChar

StartChar: m
Encoding: 109 109 12
Width: 737
Flags: W
HStem: 10 470<109.025 223.739 285.049 353.949 393.051 461.908 520.908 637.975> 324 176<201.5 274.976 463.393 517.394>
VStem: 40 186<10 322.125> 265 216<12.2969 324> 285 177<10 323.768> 520 177<10 322.513>
LayerCount: 2
Fore
SplineSet
177 495 m 0xb4
 177 500 177 500 226 500 c 0x74
 275 500 275 500 275 495 c 0
 275 490 275 490 290 490 c 0
 305 490 305 490 305 485 c 0
 305 480 305 480 315 480 c 0
 325 480 324 480 324 475 c 0
 324 470 324 471 329 471 c 0
 334 471 334 471 334 466 c 0
 334 461 334 461 344 461 c 0
 354 461 354 461 354 456 c 0
 354 451 354 451 359 451 c 0
 364 451 364 451 364 446 c 0
 364 441 363 441 373 441 c 0
 383 441 383 441 383 446 c 0
 383 451 383 451 388 451 c 0
 393 451 393 451 393 456 c 0
 393 461 393 461 403 461 c 0
 413 461 413 461 413 466 c 0
 413 471 412 471 417 471 c 0
 422 471 422 470 422 475 c 0
 422 480 422 480 432 480 c 0xb4
 442 480 442 480 442 485 c 0
 442 490 442 490 457 490 c 0
 472 490 471 490 471 495 c 0
 471 500 471 500 515 500 c 0x74
 559 500 560 500 560 495 c 0
 560 490 559 490 574 490 c 0
 589 490 589 490 589 485 c 0
 589 480 589 480 599 480 c 0
 609 480 609 480 609 475 c 0
 609 470 608 471 618 471 c 0
 628 471 628 471 628 466 c 0
 628 461 628 461 633 461 c 0
 638 461 638 461 638 456 c 0
 638 451 638 451 643 451 c 0
 648 451 648 451 648 446 c 0
 648 441 648 441 653 441 c 0
 658 441 658 441 658 436 c 0
 658 431 658 431 663 431 c 0
 668 431 667 432 667 422 c 0
 667 412 667 412 672 412 c 0
 677 412 677 412 677 402 c 0
 677 392 677 392 682 392 c 0
 687 392 687 392 687 377 c 0
 687 362 687 363 692 363 c 0
 697 363 697 362 697 186 c 2
 697 10 l 1
 609 10 l 1
 520 10 l 1xb4
 520 157 l 2
 520 304 520 304 515 304 c 0
 510 304 511 304 511 309 c 0
 511 314 511 314 506 314 c 0
 501 314 501 314 501 319 c 0
 501 324 501 324 491 324 c 0
 481 324 481 324 481 319 c 0x74
 481 314 481 314 476 314 c 0
 471 314 471 314 471 309 c 0
 471 304 471 304 466 304 c 0
 461 304 462 304 462 157 c 2
 462 10 l 1
 373 10 l 1
 285 10 l 1
 285 142 l 2xac
 285 274 285 275 280 275 c 0
 275 275 275 274 275 294 c 0
 275 314 275 314 270 314 c 0
 265 314 265 314 265 319 c 0
 265 324 266 324 256 324 c 0x74
 246 324 246 324 246 319 c 0
 246 314 246 314 241 314 c 0
 236 314 236 314 236 309 c 0
 236 304 236 304 231 304 c 0
 226 304 226 304 226 157 c 2
 226 10 l 1
 133 10 l 1
 40 10 l 1
 40 176 l 2
 40 343 40 343 45 343 c 0
 50 343 50 343 50 363 c 0
 50 383 50 382 55 382 c 0
 60 382 60 382 60 392 c 0
 60 402 60 402 65 402 c 0
 70 402 69 402 69 412 c 0
 69 422 69 422 74 422 c 0
 79 422 79 421 79 426 c 0
 79 431 79 431 84 431 c 0
 89 431 89 431 89 436 c 0
 89 441 89 441 94 441 c 0
 99 441 99 441 99 446 c 0
 99 451 99 451 104 451 c 0
 109 451 109 451 109 456 c 0
 109 461 109 461 114 461 c 0
 119 461 118 461 118 466 c 0
 118 471 118 471 128 471 c 0
 138 471 138 470 138 475 c 0
 138 480 138 480 143 480 c 0
 148 480 148 480 148 485 c 0
 148 490 148 490 163 490 c 0
 178 490 177 490 177 495 c 0xb4
EndSplineSet
EndChar

StartChar: n
Encoding: 110 110 13
Width: 540
Flags: W
VStem: 39 189<8 310.76> 310 191<7 317.205>
LayerCount: 2
Fore
SplineSet
232 500 m 0
 242 502 296 502 308 500 c 0
 318 499 329 497 342 494 c 0
 365 489 397 474 417 460 c 0
 423 456 433 446 440 439 c 0
 460 419 471 402 484 370 c 0
 486 365 493 343 494 336 c 0
 500 307 501 290 501 143 c 0
 501 16 501 8 499 7 c 0
 498 7 455 7 404 7 c 2
 311 7 l 1
 310 146 l 2
 310 237 309 288 308 291 c 0
 304 308 294 318 279 322 c 0
 266 325 251 321 242 311 c 0
 237 306 231 293 230 284 c 0
 229 280 229 216 229 143 c 0
 229 38 229 9 228 8 c 0
 227 7 184 7 132 7 c 2
 39 7 l 1
 39 156 l 2
 39 310 39 309 44 336 c 0
 47 353 57 379 65 393 c 0
 79 419 105 447 127 462 c 0
 143 472 163 483 179 488 c 0
 195 493 207 496 232 500 c 0
EndSplineSet
EndChar

StartChar: o
Encoding: 111 111 14
Width: 568
Flags: W
HStem: 0 176<235.325 332.548> 10 186<224.999 282.2 285.8 343.001> 324 176<235.297 332.703>
VStem: 29 186<196.394 303.722> 39 196<186.611 248.846 251.154 253.2 256.8 314.007> 343 186<195.999 248.846 251.154 253.661 256.338 313.389> 353 186<196.857 303.746>
LayerCount: 2
Fore
SplineSet
225 495 m 0x68
 225 500 225 500 284 500 c 0
 343 500 343 500 343 495 c 0
 343 490 342 490 362 490 c 0
 382 490 382 490 382 485 c 0
 382 480 382 480 392 480 c 0
 402 480 402 480 402 475 c 0
 402 470 401 471 411 471 c 0
 421 471 421 471 421 466 c 0
 421 461 421 461 426 461 c 0
 431 461 431 461 431 456 c 0
 431 451 431 451 436 451 c 0
 441 451 441 451 441 446 c 0
 441 441 441 441 451 441 c 0
 461 441 460 441 460 436 c 0
 460 431 460 431 465 431 c 0
 470 431 470 431 470 426 c 0
 470 421 470 422 475 422 c 0
 480 422 480 422 480 412 c 0
 480 402 480 402 485 402 c 0
 490 402 490 402 490 397 c 0
 490 392 490 392 495 392 c 0
 500 392 500 392 500 382 c 0
 500 372 499 373 504 373 c 0
 509 373 509 373 509 363 c 0
 509 353 509 353 514 353 c 0
 519 353 519 353 519 343 c 0
 519 333 519 333 524 333 c 0
 529 333 529 334 529 309 c 0x6c
 529 284 529 284 534 284 c 0
 539 284 539 284 539 255 c 0x62
 539 226 539 225 534 225 c 0
 529 225 529 225 529 196 c 0
 529 167 529 167 524 167 c 0
 519 167 519 167 519 157 c 0
 519 147 519 147 514 147 c 0
 509 147 509 147 509 137 c 0
 509 127 509 127 504 127 c 0
 499 127 500 128 500 118 c 0
 500 108 500 108 495 108 c 0
 490 108 490 108 490 103 c 0
 490 98 490 98 485 98 c 0
 480 98 480 98 480 93 c 0
 480 88 480 88 475 88 c 0
 470 88 470 88 470 83 c 0
 470 78 470 78 465 78 c 0
 460 78 460 79 460 74 c 0
 460 69 460 69 455 69 c 0
 450 69 451 69 451 64 c 0
 451 59 451 59 446 59 c 0
 441 59 441 59 441 54 c 0
 441 49 441 49 436 49 c 0
 431 49 431 49 431 44 c 0
 431 39 431 39 421 39 c 0
 411 39 411 39 411 34 c 0
 411 29 412 29 402 29 c 0
 392 29 392 30 392 25 c 0
 392 20 392 20 382 20 c 0
 372 20 372 20 372 15 c 0
 372 10 373 10 348 10 c 0x64
 323 10 323 10 323 5 c 0
 323 0 323 0 284 0 c 0xa4
 245 0 245 0 245 5 c 0
 245 10 245 10 225 10 c 0
 205 10 205 10 205 15 c 0
 205 20 206 20 191 20 c 0
 176 20 176 20 176 25 c 0
 176 30 176 29 166 29 c 0
 156 29 156 29 156 34 c 0
 156 39 157 39 147 39 c 0
 137 39 137 39 137 44 c 0
 137 49 137 49 132 49 c 0
 127 49 127 49 127 54 c 0
 127 59 127 59 122 59 c 0
 117 59 117 59 117 64 c 0
 117 69 117 69 112 69 c 0
 107 69 107 69 107 74 c 0
 107 79 108 78 103 78 c 0
 98 78 98 78 98 83 c 0
 98 88 98 88 93 88 c 0
 88 88 88 88 88 93 c 0
 88 98 88 98 83 98 c 0
 78 98 78 98 78 103 c 0
 78 108 78 108 73 108 c 0
 68 108 68 108 68 118 c 0
 68 128 68 127 63 127 c 0
 58 127 58 127 58 137 c 0
 58 147 59 147 54 147 c 0
 49 147 49 147 49 157 c 0
 49 167 49 167 44 167 c 0
 39 167 39 166 39 191 c 0x6c
 39 216 39 216 34 216 c 0
 29 216 29 216 29 255 c 0x70
 29 294 29 294 34 294 c 0
 39 294 39 294 39 314 c 0
 39 334 39 333 44 333 c 0
 49 333 49 333 49 348 c 0
 49 363 49 363 54 363 c 0
 59 363 58 363 58 368 c 0
 58 373 58 373 63 373 c 0
 68 373 68 372 68 382 c 0
 68 392 68 392 73 392 c 0
 78 392 78 392 78 397 c 0
 78 402 78 402 83 402 c 0
 88 402 88 402 88 412 c 0
 88 422 88 422 93 422 c 0
 98 422 98 421 98 426 c 0
 98 431 98 431 103 431 c 0
 108 431 107 431 107 436 c 0
 107 441 107 441 117 441 c 0
 127 441 127 441 127 446 c 0
 127 451 127 451 132 451 c 0
 137 451 137 451 137 456 c 0
 137 461 137 461 142 461 c 0
 147 461 147 461 147 466 c 0
 147 471 146 471 156 471 c 0
 166 471 166 470 166 475 c 0
 166 480 166 480 181 480 c 0
 196 480 196 480 196 485 c 0
 196 490 195 490 210 490 c 0
 225 490 225 490 225 495 c 0x68
304 319 m 0
 304 324 304 324 284 324 c 0
 264 324 264 324 264 319 c 0
 264 314 264 314 254 314 c 0
 244 314 245 314 245 309 c 0
 245 304 245 304 240 304 c 0
 235 304 235 304 235 299 c 0x6c
 235 294 235 294 230 294 c 0
 225 294 225 294 225 284 c 0
 225 274 225 275 220 275 c 0
 215 275 215 275 215 250 c 0x70
 215 225 215 225 220 225 c 0
 225 225 225 226 225 216 c 0
 225 206 225 206 230 206 c 0
 235 206 235 206 235 201 c 0
 235 196 235 196 245 196 c 0x68
 255 196 254 196 254 191 c 0
 254 186 254 186 264 186 c 0
 274 186 274 186 274 181 c 0
 274 176 274 176 284 176 c 0xa8
 294 176 294 176 294 181 c 0
 294 186 294 186 304 186 c 0
 314 186 313 186 313 191 c 0
 313 196 313 196 323 196 c 0
 333 196 333 196 333 201 c 0
 333 206 333 206 338 206 c 0
 343 206 343 206 343 216 c 0x6c
 343 226 343 225 348 225 c 0
 353 225 353 225 353 250 c 0x62
 353 275 353 275 348 275 c 0
 343 275 343 274 343 284 c 0
 343 294 343 294 338 294 c 0
 333 294 333 294 333 299 c 0
 333 304 333 304 328 304 c 0
 323 304 323 304 323 309 c 0
 323 314 323 314 313 314 c 0
 303 314 304 314 304 319 c 0
EndSplineSet
EndChar

StartChar: p
Encoding: 112 112 15
Width: 567
Flags: W
HStem: 0 186<247.231 339.904> 324 176<242.264 339.203>
VStem: 36 186<-210 303.586> 46 186<-41.875 313.389> 360 176<206.511 303.161>
LayerCount: 2
Fore
SplineSet
232 495 m 0xd8
 232 500 232 500 286 500 c 0
 340 500 340 500 340 495 c 0
 340 490 340 490 360 490 c 0
 380 490 379 490 379 485 c 0
 379 480 379 480 389 480 c 0
 399 480 399 480 399 475 c 0
 399 470 399 471 409 471 c 0
 419 471 418 471 418 466 c 0
 418 461 418 461 428 461 c 0
 438 461 438 461 438 456 c 0
 438 451 438 451 443 451 c 0
 448 451 448 451 448 446 c 0
 448 441 448 441 453 441 c 0
 458 441 458 441 458 436 c 0
 458 431 457 431 462 431 c 0
 467 431 467 431 467 426 c 0
 467 421 467 422 472 422 c 0
 477 422 477 422 477 417 c 0
 477 412 477 412 482 412 c 0
 487 412 487 412 487 407 c 0
 487 402 487 402 492 402 c 0
 497 402 497 402 497 392 c 0
 497 382 497 382 502 382 c 0
 507 382 507 382 507 377 c 0
 507 372 506 373 511 373 c 0
 516 373 516 373 516 363 c 0
 516 353 516 353 521 353 c 0
 526 353 526 353 526 338 c 0
 526 323 526 324 531 324 c 0
 536 324 536 324 536 255 c 0
 536 186 536 186 531 186 c 0
 526 186 526 187 526 172 c 0
 526 157 526 157 521 157 c 0
 516 157 516 157 516 147 c 0
 516 137 516 137 511 137 c 0
 506 137 507 137 507 127 c 0
 507 117 507 118 502 118 c 0
 497 118 497 118 497 108 c 0
 497 98 497 98 492 98 c 0
 487 98 487 98 487 93 c 0
 487 88 487 88 482 88 c 0
 477 88 477 88 477 83 c 0
 477 78 477 78 472 78 c 0
 467 78 467 79 467 74 c 0
 467 69 467 69 462 69 c 0
 457 69 458 69 458 64 c 0
 458 59 458 59 453 59 c 0
 448 59 448 59 448 54 c 0
 448 49 448 49 438 49 c 0
 428 49 428 49 428 44 c 0
 428 39 428 39 423 39 c 0
 418 39 418 39 418 34 c 0
 418 29 419 29 409 29 c 0
 399 29 399 30 399 25 c 0
 399 20 399 20 389 20 c 0
 379 20 379 20 379 15 c 0
 379 10 380 10 360 10 c 0
 340 10 340 10 340 5 c 0
 340 0 340 0 291 0 c 2
 242 0 l 1
 242 103 l 2
 242 206 242 206 247 206 c 0
 252 206 252 206 252 201 c 0
 252 196 251 196 261 196 c 0
 271 196 271 196 271 191 c 0
 271 186 271 186 291 186 c 0
 311 186 311 186 311 191 c 0
 311 196 310 196 320 196 c 0
 330 196 330 196 330 201 c 0
 330 206 330 206 335 206 c 0
 340 206 340 206 340 211 c 0
 340 216 340 216 345 216 c 0
 350 216 350 215 350 230 c 0
 350 245 350 245 355 245 c 0
 360 245 360 245 360 255 c 0
 360 265 360 265 355 265 c 0
 350 265 350 265 350 275 c 0
 350 285 350 284 345 284 c 0
 340 284 340 284 340 294 c 0
 340 304 340 304 330 304 c 0
 320 304 320 304 320 309 c 0
 320 314 320 314 315 314 c 0
 310 314 311 314 311 319 c 0
 311 324 311 324 291 324 c 0
 271 324 271 324 271 319 c 0
 271 314 271 314 261 314 c 0
 251 314 252 314 252 309 c 0
 252 304 252 304 247 304 c 0
 242 304 242 304 242 299 c 0
 242 294 242 294 237 294 c 0
 232 294 232 294 232 284 c 0xd8
 232 274 232 275 227 275 c 0
 222 275 222 275 222 54 c 2
 222 -210 l 1
 129 -210 l 1
 36 -210 l 1
 36 59 l 2xe8
 36 284 36 284 41 284 c 0
 46 284 46 284 46 309 c 0
 46 334 46 333 51 333 c 0
 56 333 56 333 56 343 c 0
 56 353 56 353 61 353 c 0
 66 353 65 353 65 368 c 0
 65 383 65 382 70 382 c 0
 75 382 75 382 75 387 c 0
 75 392 75 392 80 392 c 0
 85 392 85 392 85 402 c 0
 85 412 85 412 90 412 c 0
 95 412 95 412 95 417 c 0
 95 422 95 422 100 422 c 0
 105 422 105 421 105 426 c 0
 105 431 105 431 110 431 c 0
 115 431 114 431 114 436 c 0
 114 441 114 441 119 441 c 0
 124 441 124 441 124 446 c 0
 124 451 124 451 134 451 c 0
 144 451 144 451 144 456 c 0
 144 461 144 461 149 461 c 0
 154 461 154 461 154 466 c 0
 154 471 153 471 163 471 c 0
 173 471 173 470 173 475 c 0
 173 480 173 480 183 480 c 0
 193 480 193 480 193 485 c 0
 193 490 192 490 212 490 c 0
 232 490 232 490 232 495 c 0xd8
EndSplineSet
EndChar

StartChar: q
Encoding: 113 113 16
Width: 578
Flags: W
HStem: 0 190<232.109 329.042> 330 180<232.101 331.639>
VStem: 32 180<210.867 309.355> 342 190<-51.5625 318.976> 352 190<-210 309.695>
LayerCount: 2
Fore
SplineSet
232 505 m 0xf0
 232 510 232 510 287 510 c 0
 342 510 342 510 342 505 c 0
 342 500 342 500 357 500 c 0
 372 500 372 500 372 495 c 0
 372 490 372 490 387 490 c 0
 402 490 402 490 402 485 c 0
 402 480 402 480 412 480 c 0
 422 480 422 480 422 475 c 0
 422 470 422 470 427 470 c 0
 432 470 432 470 432 465 c 0
 432 460 432 460 442 460 c 0
 452 460 452 460 452 455 c 0
 452 450 452 450 457 450 c 0
 462 450 462 450 462 445 c 0
 462 440 462 440 467 440 c 0
 472 440 472 440 472 435 c 0
 472 430 472 430 477 430 c 0
 482 430 482 430 482 425 c 0
 482 420 482 420 487 420 c 0
 492 420 492 420 492 410 c 0
 492 400 492 400 497 400 c 0
 502 400 502 400 502 390 c 0
 502 380 502 380 507 380 c 0
 512 380 512 380 512 370 c 0
 512 360 512 360 517 360 c 0
 522 360 522 360 522 350 c 0
 522 340 522 340 527 340 c 0
 532 340 532 340 532 305 c 0xf0
 532 270 532 270 537 270 c 0
 542 270 542 270 542 50 c 2
 542 -210 l 1
 447 -210 l 1
 352 -210 l 1
 352 55 l 2xe8
 352 280 352 280 347 280 c 0
 342 280 342 280 342 290 c 0
 342 300 342 300 337 300 c 0
 332 300 332 300 332 305 c 0
 332 310 332 310 327 310 c 0
 322 310 322 310 322 315 c 0
 322 320 322 320 312 320 c 0
 302 320 302 320 302 325 c 0
 302 330 302 330 282 330 c 0
 262 330 262 330 262 325 c 0
 262 320 262 320 252 320 c 0
 242 320 242 320 242 315 c 0
 242 310 242 310 237 310 c 0
 232 310 232 310 232 305 c 0
 232 300 232 300 227 300 c 0
 222 300 222 300 222 290 c 0
 222 280 222 280 217 280 c 0
 212 280 212 280 212 260 c 0
 212 240 212 240 217 240 c 0
 222 240 222 240 222 230 c 0
 222 220 222 220 227 220 c 0
 232 220 232 220 232 215 c 0
 232 210 232 210 237 210 c 0
 242 210 242 210 242 205 c 0
 242 200 242 200 252 200 c 0
 262 200 262 200 262 195 c 0
 262 190 262 190 282 190 c 0
 302 190 302 190 302 195 c 0
 302 200 302 200 312 200 c 0
 322 200 322 200 322 205 c 0
 322 210 322 210 327 210 c 0
 332 210 332 210 332 110 c 0
 332 10 332 10 327 10 c 0
 322 10 322 10 322 5 c 0
 322 0 322 0 277 0 c 0
 232 0 232 0 232 5 c 0
 232 10 232 10 212 10 c 0
 192 10 192 10 192 15 c 0
 192 20 192 20 182 20 c 0
 172 20 172 20 172 25 c 0
 172 30 172 30 162 30 c 0
 152 30 152 30 152 35 c 0
 152 40 152 40 147 40 c 0
 142 40 142 40 142 45 c 0
 142 50 142 50 132 50 c 0
 122 50 122 50 122 55 c 0
 122 60 122 60 117 60 c 0
 112 60 112 60 112 65 c 0
 112 70 112 70 107 70 c 0
 102 70 102 70 102 75 c 0
 102 80 102 80 97 80 c 0
 92 80 92 80 92 85 c 0
 92 90 92 90 87 90 c 0
 82 90 82 90 82 95 c 0
 82 100 82 100 77 100 c 0
 72 100 72 100 72 110 c 0
 72 120 72 120 67 120 c 0
 62 120 62 120 62 130 c 0
 62 140 62 140 57 140 c 0
 52 140 52 140 52 150 c 0
 52 160 52 160 47 160 c 0
 42 160 42 160 42 170 c 0
 42 180 42 180 37 180 c 0
 32 180 32 180 32 255 c 0
 32 330 32 330 37 330 c 0
 42 330 42 330 42 345 c 0
 42 360 42 360 47 360 c 0
 52 360 52 360 52 370 c 0
 52 380 52 380 57 380 c 0
 62 380 62 380 62 390 c 0
 62 400 62 400 67 400 c 0
 72 400 72 400 72 405 c 0
 72 410 72 410 77 410 c 0
 82 410 82 410 82 415 c 0
 82 420 82 420 87 420 c 0
 92 420 92 420 92 425 c 0
 92 430 92 430 97 430 c 0
 102 430 102 430 102 435 c 0
 102 440 102 440 107 440 c 0
 112 440 112 440 112 445 c 0
 112 450 112 450 117 450 c 0
 122 450 122 450 122 455 c 0
 122 460 122 460 127 460 c 0
 132 460 132 460 132 465 c 0
 132 470 132 470 142 470 c 0
 152 470 152 470 152 475 c 0
 152 480 152 480 157 480 c 0
 162 480 162 480 162 485 c 0
 162 490 162 490 177 490 c 0
 192 490 192 490 192 495 c 0
 192 500 192 500 212 500 c 0
 232 500 232 500 232 505 c 0xf0
EndSplineSet
EndChar

StartChar: r
Encoding: 114 114 17
Width: 344
Flags: W
VStem: 40 187<8 304.143>
LayerCount: 2
Fore
SplineSet
243 499 m 0
 260 501 297 499 312 495 c 2
 318 493 l 1
 318 403 l 2
 318 345 317 312 316 312 c 0
 315 312 313 313 310 314 c 0
 295 320 278 320 263 314 c 0
 260 313 249 305 246 302 c 0
 239 295 233 283 230 271 c 0
 229 267 228 225 228 136 c 2
 227 7 l 1
 134 7 l 2
 72 7 41 7 40 8 c 0
 38 10 39 281 41 297 c 0
 44 319 48 339 53 354 c 0
 55 359 57 365 58 368 c 0
 61 376 70 392 77 404 c 0
 102 444 143 475 193 490 c 0
 205 494 228 498 243 499 c 0
EndSplineSet
EndChar

StartChar: s
Encoding: 115 115 18
Width: 398
Flags: W
HStem: -4 183<23.0607 90.1764>
LayerCount: 2
Fore
SplineSet
301 479 m 0
 319 481 359 480 373 477 c 2
 376 477 l 1
 376 386 l 2
 376 336 376 295 375 295 c 0
 375 295 371 296 366 297 c 0
 347 300 324 291 314 277 c 0
 304 263 300 249 298 219 c 0
 296 190 294 178 288 158 c 0
 273 103 246 64 202 34 c 0
 184 22 150 7 129 3 c 0
 127 3 123 2 119 1 c 0
 106 -2 81 -4 64 -4 c 0
 44 -4 24 -1 23 1 c 0
 22 2 22 42 22 91 c 2
 23 180 l 1
 38 179 l 2
 65 179 81 187 94 206 c 0
 105 222 107 233 109 270 c 0
 111 312 116 335 126 360 c 0
 140 395 161 422 192 442 c 0
 207 452 215 456 234 464 c 0
 249 470 275 476 301 479 c 0
EndSplineSet
EndChar

StartChar: t
Encoding: 116 116 19
Width: 345
Flags: W
HStem: 0 200<237.599 305.659> 675 20G<37 227>
VStem: 37 190<210.414 299.802 490 695> 267 40<1.90735e-05 9.99762>
LayerCount: 2
Fore
SplineSet
37 455 m 2
 37 695 l 1
 132 695 l 1
 227 695 l 1
 227 592 l 1
 227 490 l 1
 267 490 l 1
 307 490 l 1
 307 395 l 1
 307 300 l 1
 267 300 l 2
 227 300 227 300 227 270 c 0
 227 240 227 240 232 240 c 0
 237 240 237 240 237 230 c 0
 237 220 237 220 242 220 c 0
 247 220 247 220 247 215 c 0
 247 210 247 210 257 210 c 0
 267 210 267 210 267 205 c 0
 267 200 267 200 287 200 c 0
 307 200 307 200 307 100 c 0
 307 0 307 0 287 0 c 0
 267 0 267 0 267 5 c 0
 267 10 267 10 242 10 c 0
 217 10 217 10 217 15 c 0
 217 20 217 20 202 20 c 0
 187 20 187 20 187 25 c 0
 187 30 187 30 177 30 c 0
 167 30 167 30 167 35 c 0
 167 40 167 40 157 40 c 0
 147 40 147 40 147 45 c 0
 147 50 147 50 142 50 c 0
 137 50 137 50 137 55 c 0
 137 60 137 60 127 60 c 0
 117 60 117 60 117 65 c 0
 117 70 117 70 112 70 c 0
 107 70 107 70 107 75 c 0
 107 80 107 80 102 80 c 0
 97 80 97 80 97 90 c 0
 97 100 97 100 92 100 c 0
 87 100 87 100 87 105 c 0
 87 110 87 110 82 110 c 0
 77 110 77 110 77 115 c 0
 77 120 77 120 72 120 c 0
 67 120 67 120 67 135 c 0
 67 150 67 150 62 150 c 0
 57 150 57 150 57 165 c 0
 57 180 57 180 52 180 c 0
 47 180 47 180 47 205 c 0
 47 230 47 230 42 230 c 0
 37 230 37 230 37 455 c 2
EndSplineSet
EndChar

StartChar: u
Encoding: 117 117 20
Width: 520
Flags: W
HStem: 0 21G<225 295> 0 21G<225 295> 470 20G<40 230 290 480>
VStem: 40 190<180.099 490> 50 190<180 487.656> 290 190<191.934 490>
LayerCount: 2
Fore
SplineSet
40 340 m 2xb4
 40 490 l 1
 135 490 l 1
 230 490 l 1
 230 340 l 2xb4
 230 190 230 190 235 190 c 0
 240 190 240 190 240 185 c 0
 240 180 240 180 260 180 c 0
 280 180 280 180 280 185 c 0
 280 190 280 190 285 190 c 0
 290 190 290 190 290 340 c 2
 290 490 l 1
 385 490 l 1
 480 490 l 1
 480 330 l 2
 480 170 480 170 475 170 c 0
 470 170 470 170 470 155 c 0
 470 140 470 140 465 140 c 0
 460 140 460 140 460 125 c 0
 460 110 460 110 455 110 c 0
 450 110 450 110 450 105 c 0
 450 100 450 100 445 100 c 0
 440 100 440 100 440 90 c 0
 440 80 440 80 435 80 c 0
 430 80 430 80 430 75 c 0
 430 70 430 70 425 70 c 0
 420 70 420 70 420 65 c 0
 420 60 420 60 415 60 c 0
 410 60 410 60 410 55 c 0
 410 50 410 50 405 50 c 0
 400 50 400 50 400 45 c 0
 400 40 400 40 395 40 c 0
 390 40 390 40 390 35 c 0
 390 30 390 30 380 30 c 0
 370 30 370 30 370 25 c 0
 370 20 370 20 365 20 c 0
 360 20 360 20 360 15 c 0
 360 10 360 10 345 10 c 0
 330 10 330 10 330 5 c 0
 330 0 330 0 260 0 c 0
 190 0 190 0 190 5 c 0
 190 10 190 10 175 10 c 0
 160 10 160 10 160 15 c 0
 160 20 160 20 150 20 c 0
 140 20 140 20 140 25 c 0
 140 30 140 30 135 30 c 0
 130 30 130 30 130 35 c 0
 130 40 130 40 125 40 c 0
 120 40 120 40 120 45 c 0
 120 50 120 50 115 50 c 0
 110 50 110 50 110 55 c 0
 110 60 110 60 105 60 c 0
 100 60 100 60 100 65 c 0
 100 70 100 70 95 70 c 0
 90 70 90 70 90 75 c 0
 90 80 90 80 85 80 c 0
 80 80 80 80 80 85 c 0
 80 90 80 90 75 90 c 0
 70 90 70 90 70 100 c 0
 70 110 70 110 65 110 c 0
 60 110 60 110 60 125 c 0
 60 140 60 140 55 140 c 0
 50 140 50 140 50 165 c 0xac
 50 190 50 190 45 190 c 0
 40 190 40 190 40 340 c 2xb4
EndSplineSet
EndChar

StartChar: v
Encoding: 118 118 21
Width: 502
Flags: W
HStem: 0 21G<241 251> 0 21G<241 251> 480 20<26 35.9861 466 476>
VStem: 56 170<380.48 479.52> 236 20<5.72205e-05 30.4615> 276 170<380.597 479.539> 286 170<400.187 489.539>
LayerCount: 2
Fore
SplineSet
26 490 m 0xbc
 26 500 26 500 116 500 c 0
 206 500 206 500 206 485 c 0
 206 470 206 470 211 470 c 0
 216 470 216 470 216 460 c 0
 216 450 216 450 221 450 c 0
 226 450 226 450 226 435 c 0
 226 420 226 420 231 420 c 0
 236 420 236 420 236 410 c 0
 236 400 236 400 241 400 c 0
 246 400 246 400 246 390 c 0
 246 380 246 380 251 380 c 0
 256 380 256 380 256 390 c 0
 256 400 256 400 261 400 c 0
 266 400 266 400 266 410 c 0
 266 420 266 420 271 420 c 0
 276 420 276 420 276 435 c 0xbc
 276 450 276 450 281 450 c 0
 286 450 286 450 286 460 c 0
 286 470 286 470 291 470 c 0
 296 470 296 470 296 480 c 0
 296 490 296 490 301 490 c 0
 306 490 306 490 306 495 c 0
 306 500 306 500 391 500 c 0
 476 500 476 500 476 490 c 0
 476 480 476 480 471 480 c 0
 466 480 466 480 466 470 c 0
 466 460 466 460 461 460 c 0
 456 460 456 460 456 450 c 0xba
 456 440 456 440 451 440 c 0
 446 440 446 440 446 430 c 0xbc
 446 420 446 420 441 420 c 0
 436 420 436 420 436 410 c 0
 436 400 436 400 431 400 c 0
 426 400 426 400 426 385 c 0
 426 370 426 370 421 370 c 0
 416 370 416 370 416 360 c 0
 416 350 416 350 411 350 c 0
 406 350 406 350 406 340 c 0
 406 330 406 330 401 330 c 0
 396 330 396 330 396 320 c 0
 396 310 396 310 391 310 c 0
 386 310 386 310 386 295 c 0
 386 280 386 280 381 280 c 0
 376 280 376 280 376 270 c 0
 376 260 376 260 371 260 c 0
 366 260 366 260 366 250 c 0
 366 240 366 240 361 240 c 0
 356 240 356 240 356 230 c 0
 356 220 356 220 351 220 c 0
 346 220 346 220 346 210 c 0
 346 200 346 200 341 200 c 0
 336 200 336 200 336 185 c 0
 336 170 336 170 331 170 c 0
 326 170 326 170 326 160 c 0
 326 150 326 150 321 150 c 0
 316 150 316 150 316 140 c 0
 316 130 316 130 311 130 c 0
 306 130 306 130 306 120 c 0
 306 110 306 110 301 110 c 0
 296 110 296 110 296 95 c 0
 296 80 296 80 291 80 c 0
 286 80 286 80 286 70 c 0xba
 286 60 286 60 281 60 c 0
 276 60 276 60 276 50 c 0
 276 40 276 40 271 40 c 0
 266 40 266 40 266 30 c 0
 266 20 266 20 261 20 c 0
 256 20 256 20 256 10 c 0
 256 0 256 0 246 0 c 0
 236 0 236 0 236 15 c 0
 236 30 236 30 231 30 c 0
 226 30 226 30 226 40 c 0
 226 50 226 50 221 50 c 0
 216 50 216 50 216 60 c 0
 216 70 216 70 211 70 c 0
 206 70 206 70 206 80 c 0
 206 90 206 90 201 90 c 0
 196 90 196 90 196 105 c 0
 196 120 196 120 191 120 c 0
 186 120 186 120 186 130 c 0
 186 140 186 140 181 140 c 0
 176 140 176 140 176 150 c 0
 176 160 176 160 171 160 c 0
 166 160 166 160 166 170 c 0
 166 180 166 180 161 180 c 0
 156 180 156 180 156 195 c 0
 156 210 156 210 151 210 c 0
 146 210 146 210 146 220 c 0
 146 230 146 230 141 230 c 0
 136 230 136 230 136 240 c 0
 136 250 136 250 131 250 c 0
 126 250 126 250 126 260 c 0
 126 270 126 270 121 270 c 0
 116 270 116 270 116 285 c 0
 116 300 116 300 111 300 c 0
 106 300 106 300 106 310 c 0
 106 320 106 320 101 320 c 0
 96 320 96 320 96 330 c 0
 96 340 96 340 91 340 c 0
 86 340 86 340 86 350 c 0
 86 360 86 360 81 360 c 0
 76 360 76 360 76 375 c 0
 76 390 76 390 71 390 c 0
 66 390 66 390 66 400 c 0
 66 410 66 410 61 410 c 0
 56 410 56 410 56 420 c 0
 56 430 56 430 51 430 c 0
 46 430 46 430 46 440 c 0
 46 450 46 450 41 450 c 0
 36 450 36 450 36 465 c 0
 36 480 36 480 31 480 c 0
 26 480 26 480 26 490 c 0xbc
EndSplineSet
EndChar

StartChar: w
Encoding: 119 119 22
Width: 740
Flags: W
HStem: 0 180<195 274.659 466.267 553.878> 20 470<95.0937 222.231 285 354.906 385.187 464.746 525.905 644.906>
VStem: 35 190<180.728 490> 265 210<180 487.656> 285 180<180.625 490> 525 180<180.872 490>
LayerCount: 2
Fore
SplineSet
35 330 m 2x6c
 35 490 l 1
 130 490 l 1
 225 490 l 1x6c
 225 340 l 2
 225 190 225 190 230 190 c 0
 235 190 235 190 235 185 c 0
 235 180 235 180 250 180 c 0
 265 180 265 180 265 185 c 0xb4
 265 190 265 190 270 190 c 0
 275 190 275 190 275 205 c 0
 275 220 275 220 280 220 c 0
 285 220 285 220 285 355 c 2
 285 490 l 1
 375 490 l 1
 465 490 l 1
 465 340 l 2x6c
 465 190 465 190 470 190 c 0
 475 190 475 190 475 185 c 0
 475 180 475 180 490 180 c 0xb4
 505 180 505 180 505 185 c 0
 505 190 505 190 510 190 c 0
 515 190 515 190 515 195 c 0
 515 200 515 200 520 200 c 0
 525 200 525 200 525 345 c 2
 525 490 l 1
 615 490 l 1
 705 490 l 1
 705 310 l 2
 705 130 705 130 700 130 c 0
 695 130 695 130 695 120 c 0
 695 110 695 110 690 110 c 0
 685 110 685 110 685 100 c 0
 685 90 685 90 680 90 c 0
 675 90 675 90 675 80 c 0
 675 70 675 70 670 70 c 0
 665 70 665 70 665 65 c 0
 665 60 665 60 660 60 c 0
 655 60 655 60 655 55 c 0
 655 50 655 50 650 50 c 0
 645 50 645 50 645 45 c 0
 645 40 645 40 640 40 c 0
 635 40 635 40 635 35 c 0
 635 30 635 30 630 30 c 0
 625 30 625 30 625 25 c 0
 625 20 625 20 615 20 c 0x74
 605 20 605 20 605 15 c 0
 605 10 605 10 595 10 c 0
 585 10 585 10 585 5 c 0
 585 0 585 0 520 0 c 0xb4
 455 0 455 0 455 5 c 0
 455 10 455 10 445 10 c 0
 435 10 435 10 435 15 c 0
 435 20 435 20 425 20 c 0
 415 20 415 20 415 25 c 0
 415 30 415 30 410 30 c 0
 405 30 405 30 405 35 c 0
 405 40 405 40 395 40 c 0
 385 40 385 40 385 45 c 0
 385 50 385 50 380 50 c 0
 375 50 375 50 375 55 c 0
 375 60 375 60 370 60 c 0
 365 60 365 60 365 55 c 0
 365 50 365 50 360 50 c 0
 355 50 355 50 355 45 c 0
 355 40 355 40 350 40 c 0
 345 40 345 40 345 35 c 0
 345 30 345 30 335 30 c 0
 325 30 325 30 325 25 c 0
 325 20 325 20 315 20 c 0x74
 305 20 305 20 305 15 c 0
 305 10 305 10 295 10 c 0
 285 10 285 10 285 5 c 0
 285 0 285 0 225 0 c 0xac
 165 0 165 0 165 5 c 0
 165 10 165 10 150 10 c 0
 135 10 135 10 135 15 c 0
 135 20 135 20 125 20 c 0
 115 20 115 20 115 25 c 0
 115 30 115 30 110 30 c 0
 105 30 105 30 105 35 c 0
 105 40 105 40 100 40 c 0
 95 40 95 40 95 45 c 0
 95 50 95 50 90 50 c 0
 85 50 85 50 85 55 c 0
 85 60 85 60 80 60 c 0
 75 60 75 60 75 65 c 0
 75 70 75 70 70 70 c 0
 65 70 65 70 65 80 c 0
 65 90 65 90 60 90 c 0
 55 90 55 90 55 105 c 0
 55 120 55 120 50 120 c 0
 45 120 45 120 45 145 c 0
 45 170 45 170 40 170 c 0
 35 170 35 170 35 330 c 2x6c
EndSplineSet
EndChar

StartChar: x
Encoding: 120 120 23
Width: 500
Flags: W
HStem: 480 20G<35 215 285 465>
VStem: 35 180<10 209.091 339.999 500> 45 190<11.4844 210> 285 180<10 209.341 340.625 500>
LayerCount: 2
Fore
SplineSet
35 420 m 2xd0
 35 500 l 1
 125 500 l 1
 215 500 l 1
 215 430 l 2xd0
 215 360 215 360 220 360 c 0
 225 360 225 360 225 350 c 0
 225 340 225 340 235 340 c 0
 245 340 245 340 245 335 c 0
 245 330 245 330 250 330 c 0
 255 330 255 330 255 335 c 0
 255 340 255 340 265 340 c 0
 275 340 275 340 275 350 c 0
 275 360 275 360 280 360 c 0
 285 360 285 360 285 430 c 2
 285 500 l 1
 375 500 l 1
 465 500 l 1
 465 415 l 2
 465 330 465 330 460 330 c 0
 455 330 455 330 455 320 c 0
 455 310 455 310 450 310 c 0
 445 310 445 310 445 300 c 0
 445 290 445 290 440 290 c 0
 435 290 435 290 435 285 c 0
 435 280 435 280 430 280 c 0
 425 280 425 280 425 275 c 0
 425 270 425 270 420 270 c 0
 415 270 415 270 415 265 c 0
 415 260 415 260 425 260 c 0
 435 260 435 260 435 250 c 0
 435 240 435 240 440 240 c 0
 445 240 445 240 445 235 c 0
 445 230 445 230 450 230 c 0
 455 230 455 230 455 220 c 0
 455 210 455 210 460 210 c 0
 465 210 465 210 465 110 c 2
 465 10 l 1
 375 10 l 1
 285 10 l 1
 285 95 l 2
 285 180 285 180 280 180 c 0
 275 180 275 180 275 190 c 0
 275 200 275 200 270 200 c 0
 265 200 265 200 265 205 c 0
 265 210 265 210 250 210 c 0
 235 210 235 210 235 205 c 0xb0
 235 200 235 200 230 200 c 0
 225 200 225 200 225 195 c 0
 225 190 225 190 220 190 c 0
 215 190 215 190 215 100 c 2
 215 10 l 1
 125 10 l 1
 35 10 l 1
 35 105 l 2xd0
 35 200 35 200 40 200 c 0
 45 200 45 200 45 210 c 0
 45 220 45 220 50 220 c 0
 55 220 55 220 55 225 c 0
 55 230 55 230 60 230 c 0
 65 230 65 230 65 240 c 0
 65 250 65 250 75 250 c 0
 85 250 85 250 85 255 c 0
 85 260 85 260 90 260 c 0
 95 260 95 260 95 270 c 0
 95 280 95 280 85 280 c 0
 75 280 75 280 75 285 c 0
 75 290 75 290 70 290 c 0
 65 290 65 290 65 300 c 0
 65 310 65 310 60 310 c 0
 55 310 55 310 55 315 c 0
 55 320 55 320 50 320 c 0
 45 320 45 320 45 330 c 0xb0
 45 340 45 340 40 340 c 0
 35 340 35 340 35 420 c 2xd0
EndSplineSet
EndChar

StartChar: y
Encoding: 121 121 24
Width: 525
Flags: W
HStem: -210 153<115.752 241.794> 10 490<112.187 222> 30 170<224.273 282> 490 10<473.98 482>
VStem: 42 180<203.27 500> 112 10<-47.7363 -38> 292 190<200.929 499.702> 292 180<200.105 494.769>
LayerCount: 2
Fore
SplineSet
42 315 m 2xa8
 42 500 l 1xb8
 132 500 l 1xc8
 222 500 l 1
 222 360 l 2
 222 220 222 220 227 220 c 0
 232 220 232 220 232 210 c 0
 232 200 232 200 257 200 c 0
 282 200 282 200 282 210 c 0
 282 220 282 220 287 220 c 0
 292 220 292 220 292 360 c 2xba
 292 500 l 1xb1
 387 500 l 2
 482 500 482 500 482 495 c 0xb2
 482 490 482 490 477 490 c 0
 472 490 472 490 472 235 c 0
 472 -19 472 -19 467 -19 c 0
 462 -19 462 -19 462 -33 c 0
 462 -47 462 -48 457 -48 c 0
 452 -48 452 -48 452 -62 c 0
 452 -76 452 -76 447 -76 c 0
 442 -76 442 -76 442 -86 c 0
 442 -96 442 -95 437 -95 c 0
 432 -95 432 -95 432 -100 c 0
 432 -105 432 -105 427 -105 c 0
 422 -105 422 -105 422 -110 c 0
 422 -115 422 -115 417 -115 c 0
 412 -115 412 -114 412 -119 c 0
 412 -124 412 -124 407 -124 c 0
 402 -124 402 -124 402 -134 c 0
 402 -144 402 -143 392 -143 c 0
 382 -143 382 -143 382 -148 c 0
 382 -153 382 -153 377 -153 c 0
 372 -153 372 -153 372 -158 c 0
 372 -163 372 -162 367 -162 c 0
 362 -162 362 -162 362 -167 c 0
 362 -172 362 -172 352 -172 c 0
 342 -172 342 -172 342 -177 c 0
 342 -182 342 -181 337 -181 c 0
 332 -181 332 -181 332 -186 c 0
 332 -191 332 -191 317 -191 c 0
 302 -191 302 -191 302 -196 c 0
 302 -201 302 -200 287 -200 c 0
 272 -200 272 -200 272 -205 c 0
 272 -210 272 -210 212 -210 c 0
 152 -210 152 -210 152 -205 c 0
 152 -200 152 -200 132 -200 c 0
 112 -200 112 -200 112 -119 c 0
 112 -38 112 -38 117 -38 c 0
 122 -38 122 -38 122 -43 c 0xb5
 122 -48 122 -48 142 -48 c 0
 162 -48 162 -47 162 -52 c 0
 162 -57 162 -57 177 -57 c 0
 192 -57 192 -57 192 -52 c 0
 192 -47 192 -48 207 -48 c 0
 222 -48 222 -48 222 -43 c 0
 222 -38 222 -38 232 -38 c 0
 242 -38 242 -38 242 -33 c 0
 242 -28 242 -29 247 -29 c 0
 252 -29 252 -29 252 -24 c 0
 252 -19 252 -19 257 -19 c 0
 262 -19 262 -20 262 -10 c 0
 262 0 262 0 267 0 c 0
 272 0 272 0 272 5 c 0
 272 10 272 10 277 10 c 0xc8
 282 10 282 10 282 20 c 0
 282 30 282 30 272 30 c 0xa8
 262 30 262 30 262 25 c 0
 262 20 262 20 242 20 c 0
 222 20 222 20 222 15 c 0
 222 10 222 10 197 10 c 0xc8
 172 10 172 10 172 15 c 0
 172 20 172 20 152 20 c 0
 132 20 132 20 132 25 c 0
 132 30 132 30 122 30 c 0
 112 30 112 30 112 35 c 0xa4
 112 40 112 40 107 40 c 0
 102 40 102 40 102 45 c 0
 102 50 102 50 97 50 c 0
 92 50 92 50 92 55 c 0
 92 60 92 60 87 60 c 0
 82 60 82 60 82 65 c 0
 82 70 82 70 77 70 c 0
 72 70 72 70 72 75 c 0
 72 80 72 80 67 80 c 0
 62 80 62 80 62 90 c 0
 62 100 62 100 57 100 c 0
 52 100 52 100 52 115 c 0
 52 130 52 130 47 130 c 0
 42 130 42 130 42 315 c 2xa8
EndSplineSet
EndChar

StartChar: z
Encoding: 122 122 25
Width: 510
Flags: W
HStem: 10 200<335.231 490> 10 190<101.689 129.625 330 488.828> 310 190<20 160 360.375 386.456>
VStem: 160 200<240.461 309.47>
LayerCount: 2
Fore
SplineSet
20 405 m 1xb0
 20 500 l 1
 245 500 l 2
 470 500 470 500 470 490 c 0
 470 480 470 480 465 480 c 0
 460 480 460 480 460 475 c 0
 460 470 460 470 455 470 c 0
 450 470 450 470 450 460 c 0
 450 450 450 450 445 450 c 0
 440 450 440 450 440 440 c 0
 440 430 440 430 435 430 c 0
 430 430 430 430 430 420 c 0
 430 410 430 410 425 410 c 0
 420 410 420 410 420 400 c 0
 420 390 420 390 415 390 c 0
 410 390 410 390 410 380 c 0
 410 370 410 370 405 370 c 0
 400 370 400 370 400 360 c 0
 400 350 400 350 395 350 c 0
 390 350 390 350 390 340 c 0
 390 330 390 330 385 330 c 0
 380 330 380 330 380 320 c 0
 380 310 380 310 375 310 c 0
 370 310 370 310 370 300 c 0
 370 290 370 290 365 290 c 0
 360 290 360 290 360 280 c 0
 360 270 360 270 355 270 c 0
 350 270 350 270 350 260 c 0
 350 250 350 250 345 250 c 0
 340 250 340 250 340 240 c 0
 340 230 340 230 335 230 c 0
 330 230 330 230 330 215 c 0
 330 200 330 200 335 200 c 0x70
 340 200 340 200 340 205 c 0
 340 210 340 210 415 210 c 2
 490 210 l 1
 490 110 l 1
 490 10 l 1xb0
 255 10 l 2
 20 10 20 10 20 15 c 0
 20 20 20 20 25 20 c 0
 30 20 30 20 30 30 c 0
 30 40 30 40 35 40 c 0
 40 40 40 40 40 50 c 0
 40 60 40 60 45 60 c 0
 50 60 50 60 50 70 c 0
 50 80 50 80 55 80 c 0
 60 80 60 80 60 90 c 0
 60 100 60 100 65 100 c 0
 70 100 70 100 70 110 c 0
 70 120 70 120 75 120 c 0
 80 120 80 120 80 130 c 0
 80 140 80 140 85 140 c 0
 90 140 90 140 90 150 c 0
 90 160 90 160 95 160 c 0
 100 160 100 160 100 170 c 0
 100 180 100 180 105 180 c 0
 110 180 110 180 110 190 c 0
 110 200 110 200 115 200 c 0x70
 120 200 120 200 120 210 c 0
 120 220 120 220 125 220 c 0
 130 220 130 220 130 230 c 0
 130 240 130 240 135 240 c 0
 140 240 140 240 140 250 c 0
 140 260 140 260 145 260 c 0
 150 260 150 260 150 270 c 0
 150 280 150 280 155 280 c 0
 160 280 160 280 160 295 c 0
 160 310 160 310 90 310 c 2
 20 310 l 1
 20 405 l 1xb0
EndSplineSet
EndChar

StartChar: comma
Encoding: 44 44 26
Width: 373
Flags: W
HStem: 108 18<294.282 303>
VStem: 70 224<45 116.585 117.415 188> 88 197<27.4153 116.585 117.415 119.154 122.847 206> 97 179<27.0027 80.2361 162.024 215> 178 27<-26.9993 -17.8595>
LayerCount: 2
Fore
SplineSet
142 229 m 0x90
 142 233 142 233 187 233 c 0
 232 233 232 233 232 229 c 0
 232 225 232 224 241 224 c 0
 250 224 249 224 249 220 c 0
 249 216 250 215 254 215 c 0
 258 215 258 215 258 211 c 0
 258 207 259 206 263 206 c 0
 267 206 267 206 267 202 c 0
 267 198 268 197 272 197 c 0
 276 197 276 197 276 193 c 0x90
 276 189 277 188 281 188 c 0
 285 188 285 188 285 179 c 0xa0
 285 170 286 171 290 171 c 0
 294 171 294 170 294 148 c 0
 294 126 295 126 299 126 c 0
 303 126 303 126 303 117 c 0
 303 108 303 108 299 108 c 0
 295 108 294 107 294 85 c 0xc0
 294 63 294 63 290 63 c 0
 286 63 285 63 285 54 c 0xa0
 285 45 285 45 281 45 c 0
 277 45 276 44 276 40 c 0x90
 276 36 276 36 272 36 c 0
 268 36 267 36 267 27 c 0
 267 18 267 18 263 18 c 0
 259 18 258 17 258 13 c 0
 258 9 258 9 254 9 c 0
 250 9 249 8 249 4 c 0
 249 0 249 0 245 0 c 0
 241 0 241 0 241 -4 c 0
 241 -8 241 -9 232 -9 c 0
 223 -9 223 -9 223 -13 c 0
 223 -17 223 -18 214 -18 c 0
 205 -18 205 -18 205 -22 c 0
 205 -26 204 -27 191 -27 c 0
 178 -27 178 -27 178 -9 c 0x88
 178 9 178 9 160 9 c 0
 142 9 142 9 142 13 c 0
 142 17 142 18 133 18 c 0
 124 18 124 18 124 22 c 0
 124 26 124 27 115 27 c 0
 106 27 106 27 106 31 c 0
 106 35 105 36 101 36 c 0
 97 36 97 36 97 40 c 0x90
 97 44 96 45 92 45 c 0
 88 45 88 45 88 54 c 0xa0
 88 63 87 63 83 63 c 0
 79 63 79 63 79 72 c 0
 79 81 78 81 74 81 c 0
 70 81 70 81 70 121 c 0xc0
 70 161 70 162 74 162 c 0
 78 162 79 162 79 171 c 0
 79 180 79 179 83 179 c 0
 87 179 88 180 88 184 c 0xa0
 88 188 88 188 92 188 c 0
 96 188 97 188 97 197 c 0
 97 206 97 206 106 206 c 0
 115 206 115 207 115 211 c 0
 115 215 115 215 119 215 c 0
 123 215 124 216 124 220 c 0
 124 224 124 224 133 224 c 0
 142 224 142 225 142 229 c 0x90
EndSplineSet
EndChar

StartChar: semicolon
Encoding: 59 59 27
Width: 365
Flags: W
HStem: 99 36<290 299> 305 198<93.0033 176.154 179.847 271.859> 323 162<75.0625 119.997 237.003 280.997>
VStem: 75 215<36.0027 115.339 118.661 197 323.141 401.923 406.077 406.569 409.431 485> 75 206<36.0027 115.339 118.661 197 323 401.923 406.077 406.569 409.431 485> 84 197<27.0625 115.339 118.661 206 322.98 401.923 406.077 406.569 409.431 494> 93 179<26.9012 80.1694 153.831 215 314 358.709 449.415 502.781> 102 170<18.0625 62.9657 179.415 215 314 340.996 467.415 502.781> 102 152<188.028 223.938 304.98 340.992 476.003 511.781> 111 143<188.028 224.099 304.949 331.585 476.003 511.881> 120 143<9.26819 35.5847 197.028 223.974 485.003 503.02> 174 27<-26.9993 -17.8595>
LayerCount: 2
Fore
SplineSet
138 516 m 0xc020
 138 520 138 521 178 521 c 0
 218 521 219 520 219 516 c 0
 219 512 219 512 228 512 c 0
 237 512 237 511 237 507 c 0
 237 503 236 503 245 503 c 0
 254 503 254 502 254 498 c 0xc080
 254 494 255 494 259 494 c 0
 263 494 263 493 263 489 c 0xc020
 263 485 264 485 268 485 c 0
 272 485 272 484 272 480 c 0xa2
 272 476 273 476 277 476 c 0
 281 476 281 476 281 467 c 0xa8
 281 458 282 458 286 458 c 0
 290 458 290 458 290 449 c 0
 290 440 291 440 295 440 c 0
 299 440 299 439 299 408 c 0
 299 377 299 377 295 377 c 0
 291 377 290 376 290 363 c 0xb0
 290 350 290 350 286 350 c 0
 282 350 281 350 281 346 c 0xa8
 281 342 281 341 277 341 c 0
 273 341 272 341 272 332 c 0xa2
 272 323 272 323 263 323 c 0xa020
 254 323 254 323 254 319 c 0xa080
 254 315 254 314 250 314 c 0
 246 314 245 314 245 310 c 0
 245 306 246 305 237 305 c 0
 228 305 228 305 228 301 c 0
 228 297 227 296 214 296 c 0
 201 296 201 296 201 292 c 0xc010
 201 288 200 287 178 287 c 0
 156 287 156 288 156 292 c 0
 156 296 155 296 142 296 c 0
 129 296 129 297 129 301 c 0
 129 305 129 305 120 305 c 0xc020
 111 305 111 306 111 310 c 0xc040
 111 314 110 314 106 314 c 0
 102 314 102 315 102 319 c 0xc1
 102 323 101 323 97 323 c 0
 93 323 93 324 93 328 c 0xa2
 93 332 92 332 88 332 c 0
 84 332 84 333 84 337 c 0xa4
 84 341 83 341 79 341 c 0
 75 341 75 341 75 350 c 0
 75 359 74 359 70 359 c 0
 66 359 66 359 66 404 c 0
 66 449 66 449 70 449 c 0
 74 449 75 449 75 458 c 0xb0
 75 467 75 467 79 467 c 0
 83 467 84 467 84 471 c 0xa4
 84 475 84 476 88 476 c 0
 92 476 93 476 93 480 c 0xa2
 93 484 93 485 97 485 c 0
 101 485 102 485 102 489 c 0xa1
 102 493 102 494 106 494 c 0
 110 494 111 494 111 498 c 0xa040
 111 502 111 503 115 503 c 0
 119 503 120 503 120 507 c 0
 120 511 120 512 129 512 c 0
 138 512 138 512 138 516 c 0xc020
138 229 m 0
 138 233 138 233 183 233 c 0
 228 233 228 233 228 229 c 0
 228 225 228 224 237 224 c 0
 246 224 245 224 245 220 c 0
 245 216 246 215 250 215 c 0
 254 215 254 215 254 211 c 0x8080
 254 207 255 206 259 206 c 0
 263 206 263 206 263 202 c 0x8020
 263 198 264 197 268 197 c 0
 272 197 272 197 272 193 c 0x82
 272 189 273 188 277 188 c 0
 281 188 281 188 281 179 c 0x88
 281 170 282 171 286 171 c 0
 290 171 290 171 290 153 c 0
 290 135 291 135 295 135 c 0
 299 135 299 135 299 117 c 0
 299 99 299 99 295 99 c 0
 291 99 290 99 290 81 c 0x90
 290 63 290 63 286 63 c 0
 282 63 281 63 281 54 c 0x88
 281 45 281 45 277 45 c 0
 273 45 272 45 272 36 c 0x82
 272 27 272 27 268 27 c 0
 264 27 263 26 263 22 c 0x8020
 263 18 263 18 259 18 c 0
 255 18 254 17 254 13 c 0x8040
 254 9 254 9 250 9 c 0
 246 9 245 8 245 4 c 0
 245 0 245 0 241 0 c 0
 237 0 237 0 237 -4 c 0
 237 -8 237 -9 228 -9 c 0
 219 -9 219 -9 219 -13 c 0
 219 -17 219 -18 210 -18 c 0
 201 -18 201 -18 201 -22 c 0
 201 -26 200 -27 187 -27 c 0
 174 -27 174 -27 174 -9 c 0x8010
 174 9 174 9 156 9 c 0
 138 9 138 9 138 13 c 0
 138 17 138 18 129 18 c 0
 120 18 120 18 120 22 c 0x8020
 120 26 120 27 111 27 c 0x8040
 102 27 102 27 102 31 c 0x81
 102 35 101 36 97 36 c 0
 93 36 93 36 93 45 c 0x82
 93 54 92 54 88 54 c 0
 84 54 84 54 84 58 c 0x84
 84 62 83 63 79 63 c 0
 75 63 75 63 75 72 c 0
 75 81 74 81 70 81 c 0
 66 81 66 81 66 117 c 0
 66 153 66 153 70 153 c 0
 74 153 75 153 75 166 c 0x90
 75 179 75 179 79 179 c 0
 83 179 84 180 84 184 c 0x84
 84 188 84 188 88 188 c 0
 92 188 93 189 93 193 c 0x82
 93 197 93 197 97 197 c 0
 101 197 102 198 102 202 c 0x81
 102 206 102 206 106 206 c 0
 110 206 111 207 111 211 c 0x8040
 111 215 111 215 115 215 c 0
 119 215 120 216 120 220 c 0x8020
 120 224 120 224 129 224 c 0
 138 224 138 225 138 229 c 0
EndSplineSet
EndChar

StartChar: bracketleft
Encoding: 91 91 28
Width: 348
Flags: W
HStem: -108 117<197 322> 512 179<197 322>
VStem: 44 278<-108 9 512 691> 44 153<9 512>
LayerCount: 2
Fore
SplineSet
44 292 m 1xd0
 44 691 l 1
 183 691 l 1
 322 691 l 1
 322 601 l 1
 322 512 l 1xe0
 259 512 l 1
 197 512 l 1
 197 260 l 1
 197 9 l 1xd0
 259 9 l 1
 322 9 l 1
 322 -49 l 1
 322 -108 l 1
 183 -108 l 1
 44 -108 l 1xe0
 44 292 l 1xd0
EndSplineSet
EndChar

StartChar: bracketright
Encoding: 93 93 29
Width: 357
Flags: W
HStem: -108 117<26 152> 512 179<26.412 152> 521 170<26.2109 151.078>
VStem: 26 287<-108 9 512.268 691> 35 278<512.089 689.672> 152 161<9 512>
LayerCount: 2
Fore
SplineSet
26 606 m 2xb0
 26 691 l 1
 170 691 l 1
 313 691 l 1xb0
 313 292 l 1xa4
 313 -108 l 1
 170 -108 l 1
 26 -108 l 1
 26 -49 l 1
 26 9 l 1xb0
 89 9 l 1
 152 9 l 1
 152 260 l 1
 152 512 l 1xc4
 93 512 l 2
 35 512 35 512 35 516 c 0xc8
 35 520 34 521 30 521 c 0
 26 521 26 521 26 606 c 2xb0
EndSplineSet
EndChar

StartChar: braceleft
Encoding: 123 123 30
Width: 360
Flags: W
HStem: -108 117<261.092 333.199> 565 135<238.753 324.438> 574 126<245.644 334>
VStem: 83 152<19.8732 214.487 377.98 562.629> 92 242<-79.4661 6.49841 575.88 672.938> 101 233<-89.6612 6.49841 575.88 673.099>
LayerCount: 2
Fore
SplineSet
173 696 m 0xc4
 173 700 172 700 253 700 c 2xc4
 334 700 l 1xa4
 334 637 l 1xa8
 334 574 l 1
 298 574 l 2xa4
 262 574 262 574 262 570 c 0
 262 566 262 565 253 565 c 0
 244 565 244 565 244 556 c 0
 244 547 244 547 240 547 c 0
 236 547 235 548 235 449 c 0
 235 350 235 350 231 350 c 0
 227 350 226 350 226 341 c 0
 226 332 226 332 222 332 c 0
 218 332 217 332 217 328 c 0
 217 324 217 323 213 323 c 0
 209 323 208 323 208 319 c 0
 208 315 208 314 204 314 c 0
 200 314 200 314 200 310 c 0
 200 306 199 305 195 305 c 0
 191 305 191 305 191 301 c 0
 191 297 190 296 186 296 c 0
 182 296 182 296 182 292 c 0
 182 288 182 287 191 287 c 0
 200 287 200 287 200 283 c 0
 200 279 200 278 204 278 c 0
 208 278 208 278 208 274 c 0
 208 270 209 269 213 269 c 0
 217 269 217 269 217 260 c 0
 217 251 218 251 222 251 c 0
 226 251 226 251 226 242 c 0
 226 233 227 233 231 233 c 0
 235 233 235 234 235 135 c 0xd0
 235 36 236 36 240 36 c 0
 244 36 244 36 244 27 c 0
 244 18 244 18 253 18 c 0
 262 18 262 17 262 13 c 0
 262 9 262 9 298 9 c 0
 334 9 334 9 334 -49 c 0xc8
 334 -107 334 -108 330 -108 c 0
 326 -108 325 -108 325 -112 c 0
 325 -116 325 -117 258 -117 c 0
 191 -117 191 -116 191 -112 c 0
 191 -108 190 -108 168 -108 c 0
 146 -108 146 -107 146 -103 c 0
 146 -99 146 -99 137 -99 c 0
 128 -99 128 -98 128 -94 c 0
 128 -90 127 -90 123 -90 c 0
 119 -90 119 -89 119 -85 c 0
 119 -81 118 -81 114 -81 c 0
 110 -81 110 -80 110 -76 c 0
 110 -72 109 -72 105 -72 c 0
 101 -72 101 -71 101 -67 c 0xc4
 101 -63 100 -63 96 -63 c 0
 92 -63 92 -63 92 -54 c 0xc8
 92 -45 91 -45 87 -45 c 0
 83 -45 83 -45 83 63 c 0
 83 171 82 171 78 171 c 0
 74 171 74 170 74 188 c 0
 74 206 73 206 69 206 c 0
 65 206 65 207 65 211 c 0
 65 215 64 215 60 215 c 0
 56 215 56 216 56 220 c 0
 56 224 56 224 47 224 c 0
 38 224 38 225 38 229 c 0
 38 233 37 233 33 233 c 0
 29 233 29 234 29 301 c 0
 29 368 29 368 42 368 c 0
 55 368 56 368 56 372 c 0
 56 376 56 377 60 377 c 0
 64 377 65 377 65 381 c 0
 65 385 65 386 69 386 c 0
 73 386 74 386 74 404 c 0
 74 422 74 422 78 422 c 0
 82 422 83 422 83 525 c 0xd0
 83 628 83 628 87 628 c 0
 91 628 92 628 92 637 c 0xc8
 92 646 92 646 96 646 c 0
 100 646 101 646 101 655 c 0
 101 664 101 664 105 664 c 0
 109 664 110 665 110 669 c 0
 110 673 110 673 119 673 c 0
 128 673 128 674 128 678 c 0
 128 682 128 682 137 682 c 0
 146 682 146 683 146 687 c 0
 146 691 146 691 159 691 c 0
 172 691 173 692 173 696 c 0xc4
EndSplineSet
EndChar

StartChar: braceright
Encoding: 125 125 31
Width: 361
Flags: W
HStem: -117 135<28.0785 122.591> -108 117<26.6897 103.677> 574 126<26.2384 119.738> 583 108<26.075 112.262>
VStem: 125 161<19.1294 214.318 359.082 573.257>
LayerCount: 2
Fore
SplineSet
35 696 m 0x18
 35 700 35 700 116 700 c 0x28
 197 700 197 700 197 696 c 0
 197 692 197 691 210 691 c 0
 223 691 223 691 223 687 c 0
 223 683 223 682 232 682 c 0
 241 682 241 682 241 678 c 0
 241 674 242 673 246 673 c 0
 250 673 250 673 250 669 c 0
 250 665 251 664 255 664 c 0
 259 664 259 664 259 655 c 0
 259 646 260 646 264 646 c 0
 268 646 268 646 268 637 c 0
 268 628 269 628 273 628 c 0
 277 628 277 628 277 606 c 0
 277 584 278 583 282 583 c 0
 286 583 286 584 286 485 c 0
 286 386 287 386 291 386 c 0
 295 386 295 386 295 377 c 0
 295 368 296 368 300 368 c 0
 304 368 304 367 304 363 c 0
 304 359 304 359 313 359 c 0
 322 359 322 358 322 354 c 0
 322 350 323 350 327 350 c 0
 331 350 331 350 331 287 c 0
 331 224 331 224 327 224 c 0
 323 224 322 224 322 220 c 0
 322 216 322 215 313 215 c 0
 304 215 304 215 304 211 c 0
 304 207 304 206 300 206 c 0
 296 206 295 206 295 202 c 0
 295 198 295 197 291 197 c 0
 287 197 286 198 286 99 c 0
 286 0 286 0 282 0 c 0
 278 0 277 0 277 -22 c 0
 277 -44 277 -45 273 -45 c 0
 269 -45 268 -45 268 -54 c 0
 268 -63 268 -63 264 -63 c 0
 260 -63 259 -63 259 -72 c 0
 259 -81 259 -81 255 -81 c 0
 251 -81 250 -81 250 -85 c 0
 250 -89 250 -90 241 -90 c 0
 232 -90 232 -90 232 -94 c 0
 232 -98 232 -99 223 -99 c 0
 214 -99 214 -99 214 -103 c 0
 214 -107 215 -108 197 -108 c 0x58
 179 -108 179 -108 179 -112 c 0
 179 -116 179 -117 107 -117 c 0x88
 35 -117 35 -116 35 -112 c 0
 35 -108 34 -108 30 -108 c 0
 26 -108 26 -107 26 -49 c 0
 26 9 26 9 57 9 c 0x48
 88 9 89 9 89 13 c 0
 89 17 89 18 102 18 c 0
 115 18 116 18 116 27 c 0
 116 36 116 36 120 36 c 0
 124 36 125 36 125 130 c 0
 125 224 125 224 129 224 c 0
 133 224 134 225 134 238 c 0
 134 251 134 251 138 251 c 0
 142 251 143 252 143 256 c 0
 143 260 143 260 147 260 c 0
 151 260 152 261 152 265 c 0
 152 269 152 269 156 269 c 0
 160 269 161 270 161 274 c 0
 161 278 161 278 165 278 c 0
 169 278 170 279 170 283 c 0
 170 287 170 287 174 287 c 0
 178 287 179 288 179 292 c 0
 179 296 178 296 174 296 c 0
 170 296 170 297 170 301 c 0
 170 305 169 305 165 305 c 0
 161 305 161 306 161 310 c 0
 161 314 160 314 156 314 c 0
 152 314 152 315 152 319 c 0
 152 323 151 323 147 323 c 0
 143 323 143 324 143 328 c 0
 143 332 142 332 138 332 c 0
 134 332 134 333 134 346 c 0
 134 359 133 359 129 359 c 0
 125 359 125 359 125 458 c 0
 125 557 124 556 120 556 c 0
 116 556 116 557 116 561 c 0
 116 565 115 565 111 565 c 0
 107 565 107 566 107 570 c 0
 107 574 107 574 71 574 c 0xa8
 35 574 35 575 35 579 c 0
 35 583 34 583 30 583 c 0
 26 583 26 583 26 637 c 0
 26 691 26 691 30 691 c 0
 34 691 35 692 35 696 c 0x18
EndSplineSet
EndChar

StartChar: asciitilde
Encoding: 126 126 32
Width: 625
Flags: W
HStem: 574 153<348.146 446.766> 583 171<115.415 150.585 151.415 169 285.197 400.421 411.452 465> 592 171<124.003 150.585 267.291 374.821> 592 153<115.003 150.585 303 404.738> 601 180<160 204.774 241.559 329.989 456 477.815 478.185 509.972> 610 162<168.901 221.754 224.245 330 478.185 518.781> 619 162<169.066 221.754 224.245 303 483 509.972> 619 72<79.0625 106> 628 162<178.092 284.872> 628 45<70.0625 96.7812> 637 18<70 79> 673 63<528.003 554.371> 691 36<540.815 554.999>
VStem: 106 72<592.003 619.099> 133 36<574.001 601> 142 18<574.001 587.827> 447 72<736 771.966> 456 45<745.062 789.972> 465 27<763.003 789.993> 474 9<781 789.993>
LayerCount: 2
Fore
SplineSet
196 785 m 0x0802
 196 789 196 790 223 790 c 0x0082
 250 790 249 789 249 785 c 0
 249 781 250 781 263 781 c 0x0802
 276 781 276 780 276 776 c 0
 276 772 277 772 290 772 c 0x0402
 303 772 303 771 303 767 c 0
 303 763 304 763 317 763 c 0x2002
 330 763 330 762 330 758 c 0
 330 754 330 754 339 754 c 0x4002
 348 754 348 753 348 749 c 0
 348 745 349 745 362 745 c 0x1002
 375 745 375 744 375 740 c 0
 375 736 376 736 389 736 c 0x0012
 402 736 402 735 402 731 c 0
 402 727 403 727 407 727 c 0x8002
 411 727 411 727 411 731 c 0
 411 735 411 736 424 736 c 0x0012
 437 736 438 736 438 740 c 0
 438 744 438 745 442 745 c 0x1002
 446 745 447 745 447 749 c 0
 447 753 447 754 451 754 c 0x400280
 455 754 456 754 456 763 c 0x200040
 456 772 456 772 460 772 c 0x040040
 464 772 465 772 465 776 c 0
 465 780 465 781 469 781 c 0x080020
 473 781 474 781 474 785 c 0
 474 789 474 790 478 790 c 0x008010
 482 790 483 789 483 785 c 0
 483 781 483 781 487 781 c 0x080010
 491 781 492 780 492 776 c 0
 492 772 492 772 496 772 c 0x040020
 500 772 501 771 501 767 c 0
 501 763 501 763 505 763 c 0x200040
 509 763 510 762 510 758 c 0
 510 754 510 754 514 754 c 0x400040
 518 754 519 753 519 749 c 0
 519 745 519 745 528 745 c 0x100080
 537 745 537 744 537 740 c 0
 537 736 537 736 541 736 c 0x001080
 545 736 546 735 546 731 c 0
 546 727 546 727 550 727 c 0
 554 727 555 727 555 709 c 0
 555 691 554 691 550 691 c 0x000880
 546 691 546 691 546 682 c 0
 546 673 545 673 541 673 c 0
 537 673 537 673 537 664 c 0
 537 655 536 655 532 655 c 0
 528 655 528 655 528 651 c 0
 528 647 527 646 523 646 c 0
 519 646 519 646 519 637 c 0x003080
 519 628 518 628 514 628 c 0x004080
 510 628 510 628 510 624 c 0
 510 620 509 619 505 619 c 0x020080
 501 619 501 619 501 615 c 0
 501 611 500 610 496 610 c 0x040040
 492 610 492 610 492 606 c 0
 492 602 491 601 487 601 c 0x080020
 483 601 483 601 483 597 c 0
 483 593 482 592 478 592 c 0
 474 592 474 592 474 588 c 0x100010
 474 584 474 583 465 583 c 0x400020
 456 583 456 583 456 579 c 0
 456 575 456 574 407 574 c 0x800040
 358 574 357 575 357 579 c 0
 357 583 357 583 344 583 c 0x400040
 331 583 330 584 330 588 c 0
 330 592 330 592 317 592 c 0x200040
 304 592 303 593 303 597 c 0
 303 601 303 601 294 601 c 0x080040
 285 601 285 602 285 606 c 0
 285 610 285 610 276 610 c 0x040040
 267 610 267 611 267 615 c 0
 267 619 267 619 254 619 c 0x020040
 241 619 241 620 241 624 c 0
 241 628 241 628 223 628 c 0x008040
 205 628 205 628 205 624 c 0
 205 620 205 619 196 619 c 0x020040
 187 619 187 619 187 615 c 0
 187 611 186 610 182 610 c 0x040040
 178 610 178 610 178 606 c 0
 178 602 177 601 173 601 c 0x080440
 169 601 169 601 169 592 c 0x1002
 169 583 168 583 164 583 c 0x4002
 160 583 160 583 160 579 c 0
 160 575 160 574 151 574 c 0x8001
 142 574 142 575 142 579 c 0
 142 583 141 583 137 583 c 0x4001
 133 583 133 584 133 588 c 0
 133 592 132 592 128 592 c 0x2002
 124 592 124 593 124 597 c 0
 124 601 124 601 115 601 c 0x0802
 106 601 106 602 106 606 c 0
 106 610 105 610 101 610 c 0x0404
 97 610 97 611 97 615 c 0
 97 619 96 619 92 619 c 0x0104
 88 619 88 620 88 624 c 0
 88 628 87 628 83 628 c 0x0044
 79 628 79 629 79 633 c 0
 79 637 78 637 74 637 c 0
 70 637 70 637 70 646 c 0
 70 655 70 655 74 655 c 0x0024
 78 655 79 655 79 664 c 0
 79 673 79 673 83 673 c 0x0044
 87 673 88 673 88 682 c 0
 88 691 88 691 92 691 c 0x0104
 96 691 97 691 97 700 c 0
 97 709 97 709 101 709 c 0
 105 709 106 709 106 713 c 0
 106 717 106 718 110 718 c 0
 114 718 115 718 115 727 c 0x000c
 115 736 115 736 119 736 c 0x0014
 123 736 124 736 124 740 c 0
 124 744 124 745 128 745 c 0x1004
 132 745 133 745 133 749 c 0
 133 753 133 754 137 754 c 0x4002
 141 754 142 754 142 758 c 0
 142 762 142 763 151 763 c 0x2001
 160 763 160 763 160 767 c 0
 160 771 160 772 164 772 c 0x0401
 168 772 169 772 169 776 c 0
 169 780 169 781 182 781 c 0
 195 781 196 781 196 785 c 0x0802
EndSplineSet
EndChar

StartChar: grave
Encoding: 96 96 33
Width: 375
Flags: W
HStem: 565 63<215.325 257.818> 565 54<224.176 266.943> 619 63<116.811 159.243>
VStem: 116 108<619 663.585> 125 108<610 654.997> 134 108<601 645.997> 143 108<592 636.997> 152 107<583.028 627.997> 161 107<574.028 618.997>
LayerCount: 2
Fore
SplineSet
80 673 m 0x90
 80 682 80 682 138 682 c 0
 196 682 197 682 197 678 c 0
 197 674 197 673 201 673 c 0
 205 673 206 673 206 664 c 0
 206 655 206 655 210 655 c 0
 214 655 215 655 215 651 c 0
 215 647 215 646 219 646 c 0
 223 646 224 646 224 642 c 0x30
 224 638 224 637 228 637 c 0
 232 637 233 637 233 633 c 0x28
 233 629 233 628 237 628 c 0
 241 628 242 628 242 624 c 0x84
 242 620 242 619 246 619 c 0
 250 619 251 619 251 615 c 0x42
 251 611 251 610 255 610 c 0
 259 610 259 610 259 606 c 0x41
 259 602 260 601 264 601 c 0
 268 601 268 601 268 597 c 0x4080
 268 593 269 592 273 592 c 0
 277 592 277 592 277 588 c 0
 277 584 278 583 282 583 c 0
 286 583 286 583 286 579 c 0
 286 575 287 574 291 574 c 0
 295 574 295 574 295 570 c 0
 295 566 296 565 242 565 c 0x84
 188 565 188 566 188 570 c 0
 188 574 187 574 183 574 c 0
 179 574 179 575 179 579 c 0
 179 583 178 583 174 583 c 0
 170 583 170 584 170 588 c 0
 170 592 169 592 165 592 c 0
 161 592 161 593 161 597 c 0x8080
 161 601 160 601 156 601 c 0
 152 601 152 602 152 606 c 0x81
 152 610 151 610 147 610 c 0
 143 610 143 611 143 615 c 0x82
 143 619 142 619 138 619 c 0
 134 619 134 620 134 624 c 0x24
 134 628 133 628 129 628 c 0
 125 628 125 629 125 633 c 0x88
 125 637 124 637 120 637 c 0
 116 637 116 638 116 642 c 0
 116 646 115 646 111 646 c 0
 107 646 107 647 107 651 c 0
 107 655 106 655 102 655 c 0
 98 655 98 656 98 660 c 0
 98 664 98 664 89 664 c 0
 80 664 80 664 80 673 c 0x90
EndSplineSet
EndChar

StartChar: zero
Encoding: 48 48 34
Width: 551
Flags: W
HStem: 0 179<239.422 310.815> 529 180<232.186 318.633>
VStem: 33 197<188.183 528.528> 42 197<179.629 351.94 366.06 528.957> 257 27<1.52588e-05 8.75085> 311 198<179.682 348.001 366.06 528.957> 320 198<188.259 528.528>
LayerCount: 2
Fore
SplineSet
221 704 m 0xd8
 221 708 221 709 275 709 c 0
 329 709 329 708 329 704 c 0
 329 700 329 700 347 700 c 0
 365 700 365 700 365 696 c 0
 365 692 365 691 374 691 c 0
 383 691 383 691 383 687 c 0
 383 683 383 682 392 682 c 0
 401 682 401 682 401 678 c 0
 401 674 401 673 410 673 c 0
 419 673 419 673 419 669 c 0
 419 665 419 664 423 664 c 0
 427 664 428 664 428 660 c 0
 428 656 428 655 432 655 c 0
 436 655 437 655 437 651 c 0
 437 647 437 646 441 646 c 0
 445 646 446 646 446 642 c 0
 446 638 446 637 450 637 c 0
 454 637 455 637 455 633 c 0
 455 629 455 628 459 628 c 0
 463 628 464 628 464 619 c 0
 464 610 464 610 468 610 c 0
 472 610 473 610 473 606 c 0
 473 602 473 601 477 601 c 0
 481 601 482 601 482 592 c 0
 482 583 482 583 486 583 c 0
 490 583 491 583 491 574 c 0
 491 565 491 565 495 565 c 0
 499 565 500 565 500 547 c 0
 500 529 500 529 504 529 c 0
 508 529 509 529 509 507 c 0xdc
 509 485 509 485 513 485 c 0
 517 485 518 484 518 354 c 0xca
 518 224 517 224 513 224 c 0
 509 224 509 224 509 202 c 0
 509 180 508 179 504 179 c 0
 500 179 500 179 500 166 c 0
 500 153 499 153 495 153 c 0
 491 153 491 153 491 144 c 0
 491 135 490 135 486 135 c 0
 482 135 482 135 482 126 c 0
 482 117 481 117 477 117 c 0
 473 117 473 117 473 108 c 0
 473 99 472 99 468 99 c 0
 464 99 464 98 464 94 c 0
 464 90 463 90 459 90 c 0
 455 90 455 89 455 85 c 0
 455 81 454 81 450 81 c 0
 446 81 446 80 446 76 c 0
 446 72 445 72 441 72 c 0
 437 72 437 71 437 67 c 0
 437 63 436 63 432 63 c 0
 428 63 428 62 428 58 c 0
 428 54 427 54 423 54 c 0
 419 54 419 53 419 49 c 0
 419 45 418 45 414 45 c 0
 410 45 410 44 410 40 c 0
 410 36 410 36 401 36 c 0
 392 36 392 35 392 31 c 0
 392 27 392 27 383 27 c 0
 374 27 374 26 374 22 c 0
 374 18 374 18 361 18 c 0
 348 18 347 17 347 13 c 0
 347 9 347 9 316 9 c 0
 285 9 284 8 284 4 c 0
 284 0 284 0 271 0 c 0
 258 0 257 0 257 4 c 0
 257 8 257 9 230 9 c 0xec
 203 9 204 9 204 13 c 0
 204 17 203 18 190 18 c 0
 177 18 177 18 177 22 c 0
 177 26 177 27 168 27 c 0
 159 27 159 27 159 31 c 0
 159 35 159 36 150 36 c 0
 141 36 141 36 141 40 c 0
 141 44 140 45 136 45 c 0
 132 45 132 45 132 49 c 0
 132 53 131 54 127 54 c 0
 123 54 123 54 123 58 c 0
 123 62 122 63 118 63 c 0
 114 63 114 63 114 67 c 0
 114 71 113 72 109 72 c 0
 105 72 105 72 105 76 c 0
 105 80 104 81 100 81 c 0
 96 81 96 81 96 85 c 0
 96 89 95 90 91 90 c 0
 87 90 87 90 87 94 c 0
 87 98 86 99 82 99 c 0
 78 99 78 99 78 108 c 0
 78 117 77 117 73 117 c 0
 69 117 69 117 69 126 c 0
 69 135 68 135 64 135 c 0
 60 135 60 135 60 144 c 0
 60 153 59 153 55 153 c 0
 51 153 51 153 51 166 c 0
 51 179 50 179 46 179 c 0
 42 179 42 179 42 206 c 0xd8
 42 233 41 233 37 233 c 0
 33 233 33 233 33 359 c 0xe8
 33 485 33 485 37 485 c 0
 41 485 42 485 42 507 c 0
 42 529 42 529 46 529 c 0
 50 529 51 529 51 547 c 0
 51 565 51 565 55 565 c 0
 59 565 60 565 60 574 c 0
 60 583 60 583 64 583 c 0
 68 583 69 583 69 592 c 0
 69 601 69 601 73 601 c 0
 77 601 78 602 78 606 c 0
 78 610 78 610 82 610 c 0
 86 610 87 610 87 619 c 0
 87 628 87 628 91 628 c 0
 95 628 96 629 96 633 c 0
 96 637 96 637 100 637 c 0
 104 637 105 638 105 642 c 0
 105 646 105 646 109 646 c 0
 113 646 114 647 114 651 c 0
 114 655 114 655 118 655 c 0
 122 655 123 656 123 660 c 0
 123 664 123 664 127 664 c 0
 131 664 132 665 132 669 c 0
 132 673 132 673 141 673 c 0
 150 673 150 674 150 678 c 0
 150 682 150 682 159 682 c 0
 168 682 168 683 168 687 c 0
 168 691 168 691 177 691 c 0
 186 691 186 692 186 696 c 0
 186 700 186 700 204 700 c 0
 222 700 221 700 221 704 c 0xd8
302 525 m 0
 302 529 302 529 275 529 c 0
 248 529 248 529 248 525 c 0
 248 521 248 521 244 521 c 0
 240 521 239 520 239 516 c 0xdc
 239 512 239 512 235 512 c 0
 231 512 230 512 230 359 c 0xe8
 230 206 231 206 235 206 c 0
 239 206 239 206 239 197 c 0
 239 188 239 188 248 188 c 0
 257 188 257 188 257 184 c 0
 257 180 257 179 275 179 c 0
 293 179 293 180 293 184 c 0
 293 188 293 188 302 188 c 0
 311 188 311 188 311 197 c 0xdc
 311 206 312 206 316 206 c 0
 320 206 320 206 320 359 c 0xca
 320 512 320 512 316 512 c 0
 312 512 311 512 311 516 c 0
 311 520 311 521 307 521 c 0
 303 521 302 521 302 525 c 0
EndSplineSet
EndChar

StartChar: one
Encoding: 49 49 35
Width: 285
Flags: W
HStem: 671 20G<44 241>
VStem: 44 197<18.4546 691> 44 188<18.2384 374.562>
LayerCount: 2
Fore
SplineSet
44 354 m 1xc0
 44 691 l 1
 143 691 l 1
 241 691 l 1
 241 359 l 2xc0
 241 27 241 27 237 27 c 0
 233 27 232 26 232 22 c 0
 232 18 232 18 138 18 c 2
 44 18 l 1xa0
 44 354 l 1xc0
EndSplineSet
EndChar

StartChar: two
Encoding: 50 50 36
Width: 536
Flags: W
HStem: 18 197<161.703 187.781 394 502> 395 63<205.001 222.789> 413 27<213.966 223> 458 36<493.011 501.999> 512 197<214.415 294.664>
VStem: 26 179<401.8 502.494> 35 179<368.003 425.4 426.601 466.585 467.415 473.923> 71 108<305.028 376.585> 80 90<296.415 358.585> 89 72<296.003 340.585> 116 36<278.001 300.961> 125 18<278.001 292.111>
LayerCount: 2
Fore
SplineSet
205 704 m 0xac
 205 708 205 709 259 709 c 0
 313 709 313 708 313 704 c 0
 313 700 313 700 331 700 c 0
 349 700 349 700 349 696 c 0
 349 692 349 691 358 691 c 0
 367 691 367 691 367 687 c 0
 367 683 367 682 376 682 c 0
 385 682 385 682 385 678 c 0
 385 674 385 673 389 673 c 0
 393 673 394 673 394 669 c 0
 394 665 394 664 403 664 c 0
 412 664 412 664 412 660 c 0
 412 656 412 655 416 655 c 0
 420 655 421 655 421 651 c 0
 421 647 421 646 425 646 c 0
 429 646 430 646 430 642 c 0
 430 638 430 637 434 637 c 0
 438 637 439 637 439 633 c 0
 439 629 439 628 443 628 c 0
 447 628 448 628 448 619 c 0
 448 610 448 610 452 610 c 0
 456 610 457 610 457 606 c 0
 457 602 457 601 461 601 c 0
 465 601 466 601 466 592 c 0
 466 583 466 583 470 583 c 0
 474 583 475 583 475 574 c 0
 475 565 475 565 479 565 c 0
 483 565 484 565 484 552 c 0
 484 539 484 538 488 538 c 0
 492 538 493 538 493 516 c 0
 493 494 493 494 497 494 c 0
 501 494 502 494 502 476 c 0
 502 458 501 458 497 458 c 0xbc
 493 458 493 458 493 431 c 0
 493 404 492 404 488 404 c 0
 484 404 484 404 484 395 c 0
 484 386 483 386 479 386 c 0
 475 386 475 386 475 377 c 0
 475 368 474 368 470 368 c 0
 466 368 466 368 466 359 c 0
 466 350 465 350 461 350 c 0
 457 350 457 350 457 341 c 0
 457 332 456 332 452 332 c 0
 448 332 448 332 448 323 c 0
 448 314 447 314 443 314 c 0
 439 314 439 314 439 305 c 0
 439 296 438 296 434 296 c 0
 430 296 430 296 430 287 c 0
 430 278 429 278 425 278 c 0
 421 278 421 278 421 269 c 0
 421 260 420 260 416 260 c 0
 412 260 412 260 412 251 c 0
 412 242 411 242 407 242 c 0
 403 242 403 242 403 233 c 0
 403 224 402 224 398 224 c 0
 394 224 394 224 394 220 c 0
 394 216 394 215 448 215 c 2
 502 215 l 1
 502 117 l 1
 502 18 l 1
 286 18 l 2
 71 18 71 18 71 27 c 0xc9
 71 36 71 36 75 36 c 0
 79 36 80 36 80 45 c 0xc880
 80 54 80 54 84 54 c 0
 88 54 89 54 89 58 c 0xc840
 89 62 89 63 93 63 c 0
 97 63 98 63 98 72 c 0
 98 81 98 81 102 81 c 0
 106 81 107 81 107 90 c 0
 107 99 107 99 111 99 c 0
 115 99 116 99 116 108 c 0xc820
 116 117 116 117 120 117 c 0
 124 117 125 117 125 126 c 0
 125 135 125 135 129 135 c 0
 133 135 134 135 134 144 c 0
 134 153 134 153 138 153 c 0
 142 153 143 153 143 162 c 0xc810
 143 171 143 171 147 171 c 0
 151 171 152 170 152 179 c 0xc820
 152 188 152 188 156 188 c 0
 160 188 161 189 161 193 c 0xc840
 161 197 161 197 165 197 c 0
 169 197 170 197 170 206 c 0xc880
 170 215 170 215 174 215 c 0
 178 215 179 215 179 224 c 0xc9
 179 233 179 233 183 233 c 0
 187 233 188 233 188 242 c 0
 188 251 188 251 192 251 c 0
 196 251 197 251 197 260 c 0
 197 269 197 269 201 269 c 0
 205 269 205 269 205 278 c 0xcc
 205 287 206 287 210 287 c 0
 214 287 214 287 214 296 c 0
 214 305 215 305 219 305 c 0
 223 305 223 305 223 314 c 0
 223 323 224 323 228 323 c 0
 232 323 232 324 232 328 c 0
 232 332 233 332 237 332 c 0
 241 332 241 332 241 341 c 0
 241 350 242 350 246 350 c 0
 250 350 250 350 250 359 c 0
 250 368 251 368 255 368 c 0
 259 368 259 368 259 377 c 0
 259 386 260 386 264 386 c 0
 268 386 268 386 268 395 c 0xca
 268 404 269 404 273 404 c 0
 277 404 277 404 277 413 c 0
 277 422 278 422 282 422 c 0
 286 422 286 422 286 431 c 0
 286 440 287 440 291 440 c 0
 295 440 295 440 295 449 c 0
 295 458 296 458 300 458 c 0
 304 458 304 458 304 471 c 0
 304 484 304 485 300 485 c 0
 296 485 295 485 295 494 c 0
 295 503 295 503 291 503 c 0
 287 503 286 503 286 507 c 0
 286 511 286 512 259 512 c 0
 232 512 232 511 232 507 c 0
 232 503 232 503 228 503 c 0
 224 503 223 502 223 498 c 0
 223 494 223 494 219 494 c 0
 215 494 214 494 214 485 c 0xba
 214 476 214 476 210 476 c 0
 206 476 205 476 205 467 c 0
 205 458 206 458 210 458 c 0xcc
 214 458 214 458 214 449 c 0
 214 440 215 440 219 440 c 0
 223 440 223 439 223 426 c 0
 223 413 223 413 219 413 c 0
 215 413 214 413 214 404 c 0xaa
 214 395 214 395 210 395 c 0
 206 395 205 394 205 390 c 0xcc
 205 386 205 386 201 386 c 0
 197 386 197 386 197 377 c 0
 197 368 196 368 192 368 c 0
 188 368 188 368 188 359 c 0
 188 350 187 350 183 350 c 0
 179 350 179 350 179 341 c 0xc9
 179 332 178 332 174 332 c 0
 170 332 170 332 170 323 c 0xc880
 170 314 169 314 165 314 c 0
 161 314 161 314 161 310 c 0xc840
 161 306 160 305 156 305 c 0
 152 305 152 305 152 296 c 0xc820
 152 287 151 287 147 287 c 0
 143 287 143 287 143 283 c 0
 143 279 143 278 134 278 c 0
 125 278 125 279 125 283 c 0xc810
 125 287 124 287 120 287 c 0
 116 287 116 288 116 292 c 0xc820
 116 296 116 296 107 296 c 0
 98 296 98 297 98 301 c 0
 98 305 97 305 93 305 c 0
 89 305 89 306 89 310 c 0xc840
 89 314 88 314 84 314 c 0
 80 314 80 314 80 323 c 0xc880
 80 332 79 332 75 332 c 0
 71 332 71 333 71 337 c 0
 71 341 70 341 66 341 c 0
 62 341 62 341 62 350 c 0
 62 359 61 359 57 359 c 0
 53 359 53 359 53 368 c 0
 53 377 52 377 48 377 c 0
 44 377 44 377 44 386 c 0
 44 395 43 395 39 395 c 0xc9
 35 395 35 395 35 413 c 0xaa
 35 431 34 431 30 431 c 0
 26 431 26 431 26 476 c 0xac
 26 521 26 521 30 521 c 0
 34 521 35 521 35 534 c 0xaa
 35 547 35 547 39 547 c 0
 43 547 44 548 44 561 c 0
 44 574 44 574 48 574 c 0
 52 574 53 574 53 583 c 0
 53 592 53 592 57 592 c 0
 61 592 62 593 62 597 c 0
 62 601 62 601 66 601 c 0
 70 601 71 601 71 610 c 0xa9
 71 619 71 619 75 619 c 0
 79 619 80 620 80 624 c 0xa880
 80 628 80 628 84 628 c 0
 88 628 89 629 89 633 c 0xa840
 89 637 89 637 93 637 c 0
 97 637 98 638 98 642 c 0
 98 646 98 646 102 646 c 0
 106 646 107 647 107 651 c 0
 107 655 107 655 111 655 c 0
 115 655 116 656 116 660 c 0xa820
 116 664 116 664 120 664 c 0
 124 664 125 665 125 669 c 0
 125 673 125 673 134 673 c 0
 143 673 143 674 143 678 c 0xa810
 143 682 143 682 152 682 c 0xa820
 161 682 161 683 161 687 c 0xa840
 161 691 161 691 170 691 c 0xa880
 179 691 179 692 179 696 c 0xa9
 179 700 179 700 192 700 c 0
 205 700 205 700 205 704 c 0xac
EndSplineSet
EndChar

StartChar: three
Encoding: 51 51 37
Width: 420
Flags: W
HStem: 0 21G<140.5 153.5> 0 21G<140.5 153.5> 9 179<35.0086 146.4> 368 27<62.0001 71>
VStem: 80 197<422.003 484.803> 134 27<1.52588e-05 8.75085> 188 206<215.41 331.904>
LayerCount: 2
Fore
SplineSet
35 597 m 1x38
 35 691 l 1
 210 691 l 2
 385 691 385 691 385 682 c 0
 385 673 384 673 380 673 c 0
 376 673 376 673 376 664 c 0
 376 655 376 655 372 655 c 0
 368 655 367 655 367 642 c 0
 367 629 367 628 363 628 c 0
 359 628 358 628 358 619 c 0
 358 610 358 610 354 610 c 0
 350 610 349 610 349 601 c 0
 349 592 349 592 345 592 c 0
 341 592 340 592 340 579 c 0
 340 566 340 565 336 565 c 0
 332 565 331 565 331 556 c 0
 331 547 331 547 327 547 c 0
 323 547 322 547 322 538 c 0
 322 529 322 529 318 529 c 0
 314 529 313 529 313 516 c 0
 313 503 313 503 309 503 c 0
 305 503 304 503 304 494 c 0
 304 485 304 485 300 485 c 0
 296 485 295 485 295 476 c 0
 295 467 295 467 291 467 c 0
 287 467 286 467 286 458 c 0
 286 449 286 449 282 449 c 0
 278 449 277 448 277 444 c 0x38
 277 440 278 440 282 440 c 0
 286 440 286 439 286 435 c 0
 286 431 287 431 291 431 c 0
 295 431 295 430 295 426 c 0
 295 422 296 422 300 422 c 0
 304 422 304 421 304 417 c 0
 304 413 305 413 309 413 c 0
 313 413 313 412 313 408 c 0
 313 404 314 404 318 404 c 0
 322 404 322 403 322 399 c 0
 322 395 323 395 327 395 c 0
 331 395 331 394 331 390 c 0
 331 386 332 386 336 386 c 0
 340 386 340 385 340 381 c 0
 340 377 341 377 345 377 c 0
 349 377 349 376 349 372 c 0
 349 368 350 368 354 368 c 0
 358 368 358 368 358 359 c 0
 358 350 359 350 363 350 c 0
 367 350 367 350 367 346 c 0
 367 342 368 341 372 341 c 0
 376 341 376 341 376 328 c 0
 376 315 376 314 380 314 c 0
 384 314 385 314 385 296 c 0
 385 278 385 278 389 278 c 0
 393 278 394 278 394 238 c 0x32
 394 198 393 197 389 197 c 0
 385 197 385 197 385 179 c 0
 385 161 384 162 380 162 c 0
 376 162 376 162 376 153 c 0
 376 144 376 144 372 144 c 0
 368 144 367 144 367 135 c 0
 367 126 367 126 363 126 c 0
 359 126 358 126 358 117 c 0
 358 108 358 108 354 108 c 0
 350 108 349 107 349 103 c 0
 349 99 349 99 345 99 c 0
 341 99 340 98 340 94 c 0
 340 90 340 90 336 90 c 0
 332 90 331 89 331 85 c 0
 331 81 331 81 327 81 c 0
 323 81 322 80 322 76 c 0
 322 72 322 72 318 72 c 0
 314 72 313 71 313 67 c 0
 313 63 313 63 309 63 c 0
 305 63 304 62 304 58 c 0
 304 54 304 54 300 54 c 0
 296 54 295 53 295 49 c 0
 295 45 295 45 286 45 c 0
 277 45 277 44 277 40 c 0x38
 277 36 277 36 273 36 c 0
 269 36 268 35 268 31 c 0
 268 27 268 27 255 27 c 0
 242 27 241 26 241 22 c 0
 241 18 241 18 228 18 c 0
 215 18 214 17 214 13 c 0
 214 9 215 9 188 9 c 0x32
 161 9 161 8 161 4 c 0
 161 0 160 0 147 0 c 0x96
 134 0 134 0 134 4 c 0
 134 8 133 9 102 9 c 0
 71 9 71 9 71 13 c 0
 71 17 71 18 53 18 c 0
 35 18 35 18 35 22 c 0
 35 26 34 27 30 27 c 0
 26 27 26 27 26 121 c 0
 26 215 26 215 30 215 c 0
 34 215 35 215 35 211 c 0
 35 207 35 206 44 206 c 0
 53 206 53 206 53 202 c 0
 53 198 53 197 71 197 c 0
 89 197 89 197 89 193 c 0
 89 189 89 188 107 188 c 0
 125 188 125 189 125 193 c 0
 125 197 125 197 134 197 c 0
 143 197 143 198 143 202 c 0
 143 206 143 206 152 206 c 0
 161 206 161 207 161 211 c 0
 161 215 161 215 165 215 c 0
 169 215 170 215 170 224 c 0
 170 233 170 233 174 233 c 0
 178 233 179 234 179 247 c 0
 179 260 179 260 183 260 c 0
 187 260 188 260 188 278 c 0
 188 296 187 296 183 296 c 0
 179 296 179 296 179 305 c 0
 179 314 178 314 174 314 c 0
 170 314 170 314 170 323 c 0
 170 332 169 332 165 332 c 0
 161 332 161 333 161 337 c 0
 161 341 161 341 152 341 c 0
 143 341 143 342 143 346 c 0
 143 350 142 350 138 350 c 0
 134 350 134 350 134 354 c 0x36
 134 358 133 359 120 359 c 0
 107 359 107 359 107 363 c 0
 107 367 106 368 84 368 c 0
 62 368 62 368 62 381 c 0
 62 394 62 395 66 395 c 0
 70 395 71 395 71 408 c 0
 71 421 71 422 75 422 c 0
 79 422 80 422 80 435 c 0
 80 448 80 449 84 449 c 0
 88 449 89 449 89 458 c 0
 89 467 89 467 93 467 c 0
 97 467 98 467 98 480 c 0
 98 493 98 494 102 494 c 0
 106 494 107 494 107 498 c 0
 107 502 107 503 71 503 c 2
 35 503 l 1
 35 597 l 1x38
EndSplineSet
EndChar

StartChar: four
Encoding: 52 52 38
Width: 564
Flags: W
HStem: 671 20G<298 520>
VStem: 107 161<377.415 457.709> 116 161<386.007 475.992> 125 161<404.012 493.993> 331 189<18 520.998>
LayerCount: 2
Fore
SplineSet
223 687 m 0x98
 223 691 224 691 372 691 c 2
 520 691 l 1
 520 354 l 1
 520 18 l 1
 425 18 l 1
 331 18 l 1
 331 269 l 2
 331 520 331 521 327 521 c 0
 323 521 322 520 322 516 c 0
 322 512 322 512 318 512 c 0
 314 512 313 512 313 503 c 0
 313 494 313 494 309 494 c 0
 305 494 304 494 304 485 c 0
 304 476 304 476 300 476 c 0
 296 476 295 476 295 467 c 0
 295 458 295 458 291 458 c 0
 287 458 286 458 286 449 c 0x98
 286 440 286 440 282 440 c 0
 278 440 277 440 277 431 c 0xa8
 277 422 277 422 273 422 c 0
 269 422 268 422 268 413 c 0
 268 404 268 404 264 404 c 0
 260 404 259 404 259 395 c 0
 259 386 259 386 255 386 c 0
 251 386 250 386 250 377 c 0
 250 368 250 368 268 368 c 0xc8
 286 368 286 368 286 296 c 2
 286 224 l 1x98
 156 224 l 2
 26 224 26 224 26 233 c 0
 26 242 26 242 30 242 c 0
 34 242 35 242 35 251 c 0
 35 260 35 260 39 260 c 0
 43 260 44 260 44 269 c 0
 44 278 44 278 48 278 c 0
 52 278 53 279 53 292 c 0
 53 305 53 305 57 305 c 0
 61 305 62 305 62 314 c 0
 62 323 62 323 66 323 c 0
 70 323 71 323 71 332 c 0
 71 341 71 341 75 341 c 0
 79 341 80 341 80 354 c 0
 80 367 80 368 84 368 c 0
 88 368 89 368 89 377 c 0
 89 386 89 386 93 386 c 0
 97 386 98 386 98 395 c 0
 98 404 98 404 102 404 c 0
 106 404 107 404 107 417 c 0xc8
 107 430 107 431 111 431 c 0
 115 431 116 431 116 440 c 0xa8
 116 449 116 449 120 449 c 0
 124 449 125 449 125 462 c 0
 125 475 125 476 129 476 c 0
 133 476 134 476 134 485 c 0
 134 494 134 494 138 494 c 0
 142 494 143 494 143 503 c 0
 143 512 143 512 147 512 c 0
 151 512 152 512 152 525 c 0
 152 538 152 538 156 538 c 0
 160 538 161 538 161 547 c 0
 161 556 161 556 165 556 c 0
 169 556 170 556 170 565 c 0
 170 574 170 574 174 574 c 0
 178 574 179 575 179 588 c 0
 179 601 179 601 183 601 c 0
 187 601 188 601 188 610 c 0
 188 619 188 619 192 619 c 0
 196 619 197 619 197 628 c 0
 197 637 197 637 201 637 c 0
 205 637 205 638 205 651 c 0
 205 664 206 664 210 664 c 0
 214 664 214 664 214 673 c 0
 214 682 215 682 219 682 c 0
 223 682 223 683 223 687 c 0x98
EndSplineSet
EndChar

StartChar: five
Encoding: 53 53 39
Width: 456
Flags: W
HStem: 0 21G<161 179> 0 21G<161 179> 9 170<44.1839 169.169> 18 170<30.1853 127.569> 350 36<26.0002 34.9807> 503 188<235.285 412>
VStem: 62 350<503.024 646> 80 332<512.018 686.749> 152 36<1.52588e-05 8.90122> 223 207<206.492 313.936>
LayerCount: 2
Fore
SplineSet
89 669 m 0x1d
 89 691 88 691 250 691 c 2
 412 691 l 1x1d
 412 597 l 1x1e
 412 503 l 1
 327 503 l 2
 242 503 241 503 241 494 c 0
 241 485 241 485 237 485 c 0
 233 485 232 484 232 480 c 0
 232 476 233 476 237 476 c 0
 241 476 241 475 241 471 c 0
 241 467 241 467 250 467 c 0
 259 467 259 466 259 462 c 0
 259 458 260 458 273 458 c 0
 286 458 286 457 286 453 c 0
 286 449 286 449 295 449 c 0
 304 449 304 448 304 444 c 0
 304 440 304 440 313 440 c 0
 322 440 322 439 322 435 c 0
 322 431 323 431 327 431 c 0
 331 431 331 430 331 426 c 0
 331 422 331 422 340 422 c 0
 349 422 349 421 349 417 c 0
 349 413 350 413 354 413 c 0
 358 413 358 412 358 408 c 0
 358 404 359 404 363 404 c 0
 367 404 367 403 367 399 c 0
 367 395 368 395 372 395 c 0
 376 395 376 394 376 390 c 0
 376 386 376 386 380 386 c 0
 384 386 385 386 385 377 c 0
 385 368 385 368 389 368 c 0
 393 368 394 367 394 363 c 0
 394 359 394 359 398 359 c 0
 402 359 403 359 403 350 c 0
 403 341 403 341 407 341 c 0
 411 341 412 341 412 328 c 0x1d
 412 315 412 314 416 314 c 0
 420 314 421 314 421 296 c 0
 421 278 421 278 425 278 c 0
 429 278 430 278 430 233 c 0x1c40
 430 188 429 188 425 188 c 0
 421 188 421 188 421 175 c 0
 421 162 420 162 416 162 c 0
 412 162 412 161 412 148 c 0
 412 135 411 135 407 135 c 0
 403 135 403 135 403 126 c 0
 403 117 402 117 398 117 c 0
 394 117 394 116 394 112 c 0
 394 108 393 108 389 108 c 0
 385 108 385 107 385 103 c 0
 385 99 384 99 380 99 c 0
 376 99 376 99 376 90 c 0
 376 81 376 81 372 81 c 0
 368 81 367 80 367 76 c 0
 367 72 367 72 358 72 c 0
 349 72 349 71 349 67 c 0
 349 63 349 63 345 63 c 0
 341 63 340 62 340 58 c 0
 340 54 340 54 336 54 c 0
 332 54 331 53 331 49 c 0
 331 45 331 45 322 45 c 0
 313 45 313 44 313 40 c 0
 313 36 313 36 304 36 c 0
 295 36 295 35 295 31 c 0
 295 27 295 27 286 27 c 0
 277 27 277 26 277 22 c 0
 277 18 277 18 264 18 c 0x1d
 251 18 250 17 250 13 c 0
 250 9 250 9 219 9 c 0x2d
 188 9 188 8 188 4 c 0
 188 0 188 0 170 0 c 0x8c80
 152 0 152 0 152 4 c 0
 152 8 152 9 125 9 c 0x2c80
 98 9 98 9 98 13 c 0
 98 17 97 18 84 18 c 0
 71 18 71 18 71 22 c 0
 71 26 70 27 57 27 c 0
 44 27 44 27 44 31 c 0
 44 35 44 36 35 36 c 0
 26 36 26 36 26 121 c 0
 26 206 26 206 30 206 c 0
 34 206 35 206 35 202 c 0
 35 198 35 197 48 197 c 0
 61 197 62 197 62 193 c 0x1e
 62 189 62 188 80 188 c 0x1d
 98 188 98 188 98 184 c 0
 98 180 98 179 129 179 c 0x2d
 160 179 161 180 161 184 c 0
 161 188 161 188 174 188 c 0
 187 188 188 189 188 193 c 0
 188 197 188 197 192 197 c 0
 196 197 197 198 197 202 c 0
 197 206 197 206 201 206 c 0
 205 206 205 207 205 211 c 0
 205 215 206 215 210 215 c 0
 214 215 214 216 214 220 c 0
 214 224 215 224 219 224 c 0
 223 224 223 225 223 256 c 0
 223 287 223 287 219 287 c 0
 215 287 214 288 214 292 c 0
 214 296 214 296 210 296 c 0
 206 296 205 296 205 305 c 0
 205 314 206 314 197 314 c 0
 188 314 188 315 188 319 c 0x1cc0
 188 323 187 323 183 323 c 0
 179 323 179 324 179 328 c 0
 179 332 179 332 170 332 c 0
 161 332 161 333 161 337 c 0
 161 341 160 341 147 341 c 0
 134 341 134 342 134 346 c 0
 134 350 134 350 80 350 c 0x1d
 26 350 26 350 26 368 c 0
 26 386 26 386 30 386 c 0
 34 386 35 386 35 408 c 0
 35 430 35 431 39 431 c 0
 43 431 44 431 44 449 c 0
 44 467 44 467 48 467 c 0
 52 467 53 467 53 489 c 0
 53 511 53 512 57 512 c 0
 61 512 62 512 62 534 c 0x1e
 62 556 62 556 66 556 c 0
 70 556 71 557 71 579 c 0
 71 601 71 601 75 601 c 0
 79 601 80 602 80 624 c 0
 80 646 80 646 84 646 c 0
 88 646 89 647 89 669 c 0x1d
EndSplineSet
EndChar

StartChar: six
Encoding: 54 54 40
Width: 563
Flags: W
HStem: 0 187<232.187 327.026> 4 191<221.401 278.677 279.324 337.712> 316 4<261 264.979> 595 59<323.952 338.363> 617 33<334.75 345.999> 639 8<345.815 349>
VStem: 26 187<205.974 315.797> 30 198<193.001 244.477 247.523 249.308 250.691 363.999> 37 195<247.523 249.308 250.691 372.998> 41 198<270.002 394.998> 52 202<312.001 431.998> 52 198<303.002 425.999> 59 202<332.002 451.999> 74 198<369.002 486.998> 81 198<391.002 502.98> 92 198<421.002 532.943> 103 199<452.001 572.999> 107 198<461.002 579.999> 114 199<483.002 603.998> 118 198<492.001 611.998> 125 199<514.192 633.998> 136 199<543.938 642.815 643.185 657.728> 169 30<694.062 704.816> 173 4<705.021 709> 327 74<463.274 488.732> 331 55<476.001 492> 335 29<496 503> 338 11<502.994 506.925> 342 195<200.001 302.999>
LayerCount: 2
Fore
SplineSet
173 705 m 0x280001
 173 709 173 709 175 709 c 0
 177 709 177 709 177 707 c 0x280001
 177 705 176 705 182 705 c 0
 188 705 188 705 188 703 c 0
 188 701 187 702 193 702 c 0
 199 702 199 702 199 700 c 0x280002
 199 698 198 698 204 698 c 0
 210 698 210 698 210 696 c 0
 210 694 209 694 215 694 c 0
 221 694 221 694 221 692 c 0
 221 690 220 691 224 691 c 0
 228 691 228 691 228 689 c 0x29
 228 687 228 687 234 687 c 0
 240 687 239 687 239 685 c 0x2840
 239 683 239 683 245 683 c 0
 251 683 250 683 250 681 c 0x2810
 250 679 250 680 256 680 c 0
 262 680 261 680 261 678 c 0x2808
 261 676 261 676 267 676 c 0
 273 676 272 676 272 674 c 0x2804
 272 672 272 672 276 672 c 0
 280 672 279 672 279 670 c 0x2802
 279 668 279 669 285 669 c 0
 291 669 290 669 290 667 c 0x2801
 290 665 290 665 296 665 c 0
 302 665 302 665 302 663 c 0x280080
 302 661 301 661 307 661 c 0
 313 661 313 661 313 659 c 0x280020
 313 657 312 658 318 658 c 0
 324 658 324 658 324 656 c 0
 324 654 323 654 329 654 c 0x300008
 335 654 335 654 335 652 c 0
 335 650 334 650 338 650 c 0x28000410
 342 650 342 650 342 648 c 0x28000008
 342 646 342 647 346 647 c 0
 350 647 349 647 349 643 c 0x24000010
 349 639 349 639 347 639 c 0
 345 639 346 640 346 634 c 0
 346 628 346 628 344 628 c 0
 342 628 342 629 342 623 c 0x24000008
 342 617 342 617 340 617 c 0
 338 617 338 618 338 612 c 0
 338 606 338 606 336 606 c 0
 334 606 335 607 335 601 c 0x28000410
 335 595 335 595 333 595 c 0
 331 595 331 596 331 590 c 0x30000040
 331 584 331 584 329 584 c 0
 327 584 327 584 327 580 c 0
 327 576 327 577 325 577 c 0
 323 577 324 577 324 571 c 0x30000880
 324 565 324 566 322 566 c 0
 320 566 320 566 320 560 c 0
 320 554 320 555 318 555 c 0
 316 555 316 555 316 549 c 0x300010
 316 543 316 544 314 544 c 0
 312 544 313 544 313 538 c 0x300020
 313 532 313 533 311 533 c 0
 309 533 309 533 309 529 c 0
 309 525 309 525 307 525 c 0
 305 525 305 526 305 520 c 0x300040
 305 514 305 514 303 514 c 0
 301 514 302 515 302 509 c 0x300080
 302 503 302 503 300 503 c 0
 298 503 298 504 298 498 c 0
 298 492 298 492 296 492 c 0
 294 492 294 493 294 487 c 0
 294 481 294 481 292 481 c 0
 290 481 290 482 290 478 c 0x3001
 290 474 291 474 289 474 c 0
 287 474 287 474 287 468 c 0
 287 462 287 463 285 463 c 0
 283 463 283 463 283 457 c 0
 283 451 283 452 281 452 c 0
 279 452 279 452 279 446 c 0x3002
 279 440 280 441 278 441 c 0
 276 441 276 441 276 435 c 0
 276 429 276 430 274 430 c 0
 272 430 272 430 272 426 c 0x3004
 272 422 272 422 270 422 c 0
 268 422 268 423 268 417 c 0
 268 411 269 411 267 411 c 0
 265 411 265 412 265 406 c 0
 265 400 265 400 263 400 c 0
 261 400 261 401 261 395 c 0x3008
 261 389 261 389 259 389 c 0
 257 389 257 390 257 384 c 0
 257 378 258 378 256 378 c 0
 254 378 254 379 254 373 c 0x3020
 254 367 254 367 252 367 c 0
 250 367 250 368 250 364 c 0x3010
 250 360 250 360 248 360 c 0
 246 360 246 360 246 354 c 0
 246 348 247 349 245 349 c 0
 243 349 243 349 243 343 c 0
 243 337 243 338 241 338 c 0
 239 338 239 338 239 332 c 0x3040
 239 326 239 327 237 327 c 0
 235 327 235 327 235 321 c 0
 235 315 236 316 234 316 c 0
 232 316 232 316 232 312 c 0x3080
 232 308 232 309 230 309 c 0
 228 309 228 309 228 303 c 0x31
 228 297 228 298 226 298 c 0
 224 298 224 298 224 292 c 0
 224 286 225 287 223 287 c 0
 221 287 221 287 221 281 c 0
 221 275 221 276 219 276 c 0
 217 276 217 276 217 270 c 0
 217 264 217 264 215 264 c 0
 213 264 213 265 213 250 c 0x32
 213 235 213 235 215 235 c 0
 217 235 217 236 217 230 c 0
 217 224 217 224 219 224 c 0
 221 224 221 224 221 220 c 0
 221 216 221 217 223 217 c 0
 225 217 224 217 224 215 c 0
 224 213 224 213 226 213 c 0
 228 213 228 213 228 211 c 0x31
 228 209 228 209 230 209 c 0
 232 209 232 210 232 208 c 0x3080
 232 206 232 206 234 206 c 0
 236 206 235 206 235 204 c 0
 235 202 235 202 237 202 c 0
 239 202 239 202 239 200 c 0x3040
 239 198 239 198 241 198 c 0
 243 198 243 199 243 197 c 0
 243 195 242 195 246 195 c 0
 250 195 250 195 250 193 c 0x7010
 250 191 250 191 254 191 c 0x7020
 258 191 257 191 257 189 c 0
 257 187 258 187 265 187 c 0
 272 187 272 188 272 186 c 0xa004
 272 184 272 184 279 184 c 0xa002
 286 184 287 184 287 186 c 0
 287 188 287 187 294 187 c 0
 301 187 302 187 302 189 c 0xa00080
 302 191 301 191 307 191 c 0
 313 191 313 191 313 193 c 0xa00020
 313 195 312 195 314 195 c 0
 316 195 316 195 316 197 c 0x600010
 316 199 316 198 318 198 c 0
 320 198 320 198 320 200 c 0
 320 202 320 202 322 202 c 0
 324 202 324 202 324 204 c 0
 324 206 323 206 325 206 c 0
 327 206 327 206 327 208 c 0x60000880
 327 210 327 209 329 209 c 0
 331 209 331 209 331 211 c 0x60000040
 331 213 331 213 333 213 c 0
 335 213 335 213 335 215 c 0x60000020
 335 217 334 217 336 217 c 0
 338 217 338 216 338 220 c 0x60000010
 338 224 338 224 340 224 c 0
 342 224 342 224 342 231 c 0
 342 238 342 239 344 239 c 0
 346 239 346 239 346 252 c 0
 346 265 346 264 344 264 c 0
 342 264 342 264 342 270 c 0x60000008
 342 276 342 276 340 276 c 0
 338 276 338 275 338 279 c 0x60000010
 338 283 338 283 336 283 c 0
 334 283 335 283 335 287 c 0x60000020
 335 291 335 290 333 290 c 0
 331 290 331 290 331 292 c 0x60000040
 331 294 331 294 329 294 c 0
 327 294 327 294 327 296 c 0
 327 298 327 298 325 298 c 0
 323 298 324 297 324 299 c 0x60000880
 324 301 324 301 322 301 c 0
 320 301 320 301 320 303 c 0
 320 305 320 305 318 305 c 0
 316 305 316 305 316 307 c 0x600010
 316 309 317 309 313 309 c 0x600020
 309 309 309 308 309 310 c 0
 309 312 309 312 305 312 c 0x600040
 301 312 302 312 302 314 c 0x600080
 302 316 301 316 281 316 c 0
 261 316 261 316 261 318 c 0x6008
 261 320 261 320 263 320 c 0
 265 320 265 319 265 325 c 0
 265 331 265 331 267 331 c 0
 269 331 268 330 268 334 c 0
 268 338 268 338 270 338 c 0
 272 338 272 337 272 343 c 0x6004
 272 349 272 349 274 349 c 0
 276 349 276 349 276 353 c 0
 276 357 276 356 278 356 c 0
 280 356 279 356 279 360 c 0x6002
 279 364 279 364 281 364 c 0
 283 364 283 363 283 369 c 0
 283 375 283 375 285 375 c 0
 287 375 287 374 287 378 c 0
 287 382 287 382 289 382 c 0
 291 382 290 382 290 388 c 0x6001
 290 394 290 393 292 393 c 0
 294 393 294 393 294 397 c 0
 294 401 294 400 296 400 c 0
 298 400 298 400 298 404 c 0
 298 408 298 408 300 408 c 0
 302 408 302 407 302 413 c 0x600080
 302 419 301 419 303 419 c 0
 305 419 305 418 305 422 c 0x600040
 305 426 305 426 307 426 c 0
 309 426 309 426 309 432 c 0
 309 438 309 437 311 437 c 0
 313 437 313 437 313 441 c 0x600020
 313 445 312 445 314 445 c 0
 316 445 316 444 316 448 c 0x600010
 316 452 316 452 318 452 c 0
 320 452 320 451 320 457 c 0
 320 463 320 463 322 463 c 0
 324 463 324 463 324 467 c 0
 324 471 323 470 325 470 c 0
 327 470 327 470 327 476 c 0x60000880
 327 482 327 481 329 481 c 0
 331 481 331 481 331 485 c 0x60000040
 331 489 331 489 333 489 c 0
 335 489 335 488 335 494 c 0x60000020
 335 500 334 500 336 500 c 0
 338 500 338 499 338 503 c 0
 338 507 338 507 344 507 c 0
 350 507 349 507 349 505 c 0x60000010
 349 503 349 503 353 503 c 0
 357 503 357 503 357 501 c 0
 357 499 356 500 360 500 c 0
 364 500 364 500 364 498 c 0x60000020
 364 496 364 496 368 496 c 0
 372 496 371 496 371 494 c 0
 371 492 371 492 375 492 c 0
 379 492 379 492 379 490 c 0
 379 488 378 489 382 489 c 0
 386 489 386 489 386 487 c 0x60000040
 386 485 386 485 390 485 c 0
 394 485 393 485 393 483 c 0
 393 481 393 481 397 481 c 0
 401 481 401 481 401 479 c 0x60000080
 401 477 400 478 404 478 c 0
 408 478 408 478 408 476 c 0
 408 474 408 474 410 474 c 0
 412 474 412 474 412 472 c 0
 412 470 411 470 415 470 c 0
 419 470 419 470 419 468 c 0
 419 466 419 467 421 467 c 0
 423 467 423 467 423 465 c 0
 423 463 422 463 426 463 c 0
 430 463 430 463 430 461 c 0
 430 459 430 459 432 459 c 0
 434 459 434 459 434 457 c 0
 434 455 433 456 437 456 c 0
 441 456 441 456 441 454 c 0
 441 452 441 452 443 452 c 0
 445 452 445 452 445 450 c 0
 445 448 445 448 447 448 c 0
 449 448 448 448 448 446 c 0
 448 444 448 445 450 445 c 0
 452 445 452 445 452 443 c 0
 452 441 452 441 456 441 c 0
 460 441 459 441 459 439 c 0
 459 437 459 437 461 437 c 0
 463 437 463 437 463 435 c 0
 463 433 463 433 465 433 c 0
 467 433 467 434 467 432 c 0
 467 430 467 430 469 430 c 0
 471 430 471 430 471 428 c 0
 471 426 470 426 472 426 c 0
 474 426 474 426 474 424 c 0
 474 422 474 422 476 422 c 0
 478 422 478 423 478 421 c 0
 478 419 478 419 480 419 c 0
 482 419 482 419 482 417 c 0
 482 415 481 415 483 415 c 0
 485 415 485 415 485 413 c 0
 485 411 485 411 487 411 c 0
 489 411 489 412 489 408 c 0
 489 404 489 404 491 404 c 0
 493 404 493 404 493 402 c 0
 493 400 492 400 494 400 c 0
 496 400 496 401 496 399 c 0
 496 397 496 397 498 397 c 0
 500 397 500 397 500 393 c 0
 500 389 500 389 502 389 c 0
 504 389 504 390 504 386 c 0
 504 382 503 382 505 382 c 0
 507 382 507 382 507 380 c 0
 507 378 507 378 509 378 c 0
 511 378 511 379 511 375 c 0
 511 371 511 371 513 371 c 0
 515 371 515 371 515 367 c 0
 515 363 514 364 516 364 c 0
 518 364 518 364 518 358 c 0
 518 352 518 353 520 353 c 0
 522 353 522 353 522 349 c 0
 522 345 522 345 524 345 c 0
 526 345 526 345 526 338 c 0
 526 331 525 331 527 331 c 0
 529 331 529 330 529 323 c 0
 529 316 529 316 531 316 c 0
 533 316 533 316 533 305 c 0
 533 294 533 294 535 294 c 0
 537 294 537 294 537 259 c 0x60000008
 537 224 537 224 535 224 c 0
 533 224 533 224 533 211 c 0
 533 198 533 198 531 198 c 0
 529 198 529 198 529 191 c 0
 529 184 529 184 527 184 c 0
 525 184 526 184 526 178 c 0
 526 172 526 173 524 173 c 0
 522 173 522 173 522 167 c 0
 522 161 522 162 520 162 c 0
 518 162 518 162 518 158 c 0
 518 154 518 154 516 154 c 0
 514 154 515 155 515 149 c 0
 515 143 515 143 513 143 c 0
 511 143 511 144 511 140 c 0
 511 136 511 136 509 136 c 0
 507 136 507 136 507 134 c 0
 507 132 507 132 505 132 c 0
 503 132 504 133 504 129 c 0
 504 125 504 125 502 125 c 0
 500 125 500 125 500 121 c 0
 500 117 500 118 498 118 c 0
 496 118 496 118 496 116 c 0
 496 114 496 114 494 114 c 0
 492 114 493 114 493 110 c 0
 493 106 493 107 491 107 c 0
 489 107 489 107 489 105 c 0
 489 103 489 103 487 103 c 0
 485 103 485 103 485 101 c 0
 485 99 485 99 483 99 c 0
 481 99 482 100 482 96 c 0
 482 92 482 92 480 92 c 0
 478 92 478 92 478 90 c 0
 478 88 478 88 476 88 c 0
 474 88 474 88 474 86 c 0
 474 84 474 84 472 84 c 0
 470 84 471 85 471 83 c 0
 471 81 471 81 469 81 c 0
 467 81 467 81 467 79 c 0
 467 77 467 77 465 77 c 0
 463 77 463 77 463 75 c 0
 463 73 463 73 461 73 c 0
 459 73 459 74 459 72 c 0
 459 70 460 70 458 70 c 0
 456 70 456 70 456 68 c 0
 456 66 456 66 454 66 c 0
 452 66 452 66 452 64 c 0
 452 62 452 62 450 62 c 0
 448 62 448 63 448 61 c 0
 448 59 449 59 447 59 c 0
 445 59 445 59 445 57 c 0
 445 55 445 55 441 55 c 0
 437 55 437 55 437 53 c 0
 437 51 438 51 436 51 c 0
 434 51 434 52 434 50 c 0
 434 48 434 48 432 48 c 0
 430 48 430 48 430 46 c 0
 430 44 430 44 426 44 c 0
 422 44 423 44 423 42 c 0
 423 40 423 40 421 40 c 0
 419 40 419 41 419 39 c 0
 419 37 419 37 415 37 c 0
 411 37 412 37 412 35 c 0
 412 33 412 33 410 33 c 0
 408 33 408 33 408 31 c 0
 408 29 408 29 404 29 c 0
 400 29 401 30 401 28 c 0x60000080
 401 26 401 26 397 26 c 0
 393 26 393 26 393 24 c 0
 393 22 394 22 390 22 c 0
 386 22 386 22 386 20 c 0x60000040
 386 18 386 18 380 18 c 0
 374 18 375 19 375 17 c 0
 375 15 375 15 369 15 c 0
 363 15 364 15 364 13 c 0x60000020
 364 11 364 11 358 11 c 0
 352 11 353 11 353 9 c 0
 353 7 353 7 346 7 c 0
 339 7 338 8 338 6 c 0x60000010
 338 4 338 4 327 4 c 0x60000080
 316 4 316 4 316 2 c 0
 316 0 316 0 281 0 c 0xa0001080
 246 0 246 0 246 2 c 0
 246 4 246 4 235 4 c 0
 224 4 224 4 224 6 c 0
 224 8 224 7 217 7 c 0
 210 7 210 7 210 9 c 0
 210 11 210 11 204 11 c 0
 198 11 199 11 199 13 c 0x600002
 199 15 199 15 193 15 c 0
 187 15 188 15 188 17 c 0
 188 19 188 18 184 18 c 0
 180 18 180 18 180 20 c 0
 180 22 181 22 177 22 c 0
 173 22 173 22 173 24 c 0x600001
 173 26 173 26 169 26 c 0x600002
 165 26 166 26 166 28 c 0
 166 30 166 29 162 29 c 0
 158 29 158 29 158 31 c 0
 158 33 159 33 155 33 c 0
 151 33 151 33 151 35 c 0
 151 37 151 37 149 37 c 0
 147 37 147 37 147 39 c 0
 147 41 148 40 144 40 c 0
 140 40 140 40 140 42 c 0
 140 44 140 44 138 44 c 0
 136 44 136 44 136 46 c 0x600004
 136 48 137 48 133 48 c 0
 129 48 129 48 129 50 c 0
 129 52 129 51 127 51 c 0
 125 51 125 51 125 53 c 0x600008
 125 55 125 55 123 55 c 0
 121 55 122 55 122 57 c 0
 122 59 122 59 120 59 c 0
 118 59 118 59 118 61 c 0x600010
 118 63 118 62 116 62 c 0
 114 62 114 62 114 64 c 0x600020
 114 66 114 66 110 66 c 0
 106 66 107 66 107 68 c 0x600040
 107 70 107 70 105 70 c 0
 103 70 103 70 103 72 c 0x600080
 103 74 103 73 101 73 c 0
 99 73 99 73 99 75 c 0
 99 77 100 77 98 77 c 0
 96 77 96 77 96 79 c 0
 96 81 96 81 94 81 c 0
 92 81 92 81 92 83 c 0x6001
 92 85 92 84 90 84 c 0
 88 84 88 84 88 88 c 0
 88 92 89 92 87 92 c 0
 85 92 85 92 85 94 c 0
 85 96 85 96 83 96 c 0
 81 96 81 95 81 97 c 0x6002
 81 99 81 99 79 99 c 0
 77 99 77 99 77 101 c 0
 77 103 78 103 76 103 c 0
 74 103 74 103 74 107 c 0x6004
 74 111 74 110 72 110 c 0
 70 110 70 110 70 112 c 0
 70 114 70 114 68 114 c 0
 66 114 66 114 66 116 c 0
 66 118 67 118 65 118 c 0
 63 118 63 117 63 121 c 0
 63 125 63 125 61 125 c 0
 59 125 59 125 59 129 c 0x6008
 59 133 59 132 57 132 c 0
 55 132 55 132 55 134 c 0
 55 136 56 136 54 136 c 0
 52 136 52 136 52 140 c 0x6010
 52 144 52 143 50 143 c 0
 48 143 48 143 48 147 c 0
 48 151 48 151 46 151 c 0
 44 151 44 150 44 156 c 0
 44 162 45 162 43 162 c 0
 41 162 41 161 41 165 c 0x6040
 41 169 41 169 39 169 c 0
 37 169 37 168 37 174 c 0
 37 180 37 180 35 180 c 0
 33 180 33 180 33 187 c 0xa080
 33 194 34 195 32 195 c 0
 30 195 30 195 30 204 c 0x61
 30 213 30 213 28 213 c 0
 26 213 26 213 26 246 c 0x62
 26 279 26 279 28 279 c 0
 30 279 30 279 30 288 c 0x61
 30 297 30 298 32 298 c 0
 34 298 33 298 33 305 c 0
 33 312 33 312 35 312 c 0
 37 312 37 313 37 320 c 0x6080
 37 327 37 327 39 327 c 0
 41 327 41 327 41 334 c 0x6040
 41 341 41 342 43 342 c 0
 45 342 44 341 44 347 c 0
 44 353 44 353 46 353 c 0
 48 353 48 352 48 358 c 0
 48 364 48 364 50 364 c 0
 52 364 52 363 52 369 c 0x6020
 52 375 52 375 54 375 c 0
 56 375 55 374 55 380 c 0
 55 386 55 386 57 386 c 0
 59 386 59 385 59 391 c 0x6008
 59 397 59 397 61 397 c 0
 63 397 63 396 63 402 c 0
 63 408 63 408 65 408 c 0
 67 408 66 407 66 411 c 0
 66 415 66 415 68 415 c 0
 70 415 70 415 70 421 c 0
 70 427 70 426 72 426 c 0
 74 426 74 426 74 432 c 0x6004
 74 438 74 437 76 437 c 0
 78 437 77 437 77 443 c 0
 77 449 77 448 79 448 c 0
 81 448 81 448 81 452 c 0x6002
 81 456 81 456 83 456 c 0
 85 456 85 455 85 461 c 0
 85 467 85 467 87 467 c 0
 89 467 88 466 88 472 c 0
 88 478 88 478 90 478 c 0
 92 478 92 477 92 483 c 0x6001
 92 489 92 489 94 489 c 0
 96 489 96 488 96 492 c 0
 96 496 96 496 98 496 c 0
 100 496 99 495 99 501 c 0
 99 507 99 507 101 507 c 0
 103 507 103 506 103 512 c 0x600080
 103 518 103 518 105 518 c 0
 107 518 107 517 107 523 c 0x600040
 107 529 107 529 109 529 c 0
 111 529 110 529 110 533 c 0
 110 537 110 536 112 536 c 0
 114 536 114 536 114 542 c 0x600020
 114 548 114 547 116 547 c 0
 118 547 118 547 118 553 c 0x600010
 118 559 118 558 120 558 c 0
 122 558 122 558 122 564 c 0
 122 570 121 569 123 569 c 0
 125 569 125 569 125 573 c 0x600008
 125 577 125 577 127 577 c 0
 129 577 129 576 129 582 c 0
 129 588 129 588 131 588 c 0
 133 588 133 587 133 593 c 0
 133 599 132 599 134 599 c 0
 136 599 136 598 136 604 c 0
 136 610 136 610 138 610 c 0
 140 610 140 609 140 615 c 0
 140 621 140 621 142 621 c 0
 144 621 144 621 144 625 c 0
 144 629 143 628 145 628 c 0
 147 628 147 628 147 634 c 0
 147 640 147 639 149 639 c 0x640004
 151 639 151 639 151 645 c 0
 151 651 151 650 153 650 c 0
 155 650 155 650 155 656 c 0
 155 662 154 661 156 661 c 0
 158 661 158 661 158 665 c 0
 158 669 158 669 160 669 c 0
 162 669 162 668 162 674 c 0
 162 680 162 680 164 680 c 0
 166 680 166 679 166 685 c 0
 166 691 165 691 167 691 c 0
 169 691 169 690 169 696 c 0x280002
 169 702 169 702 171 702 c 0
 173 702 173 701 173 705 c 0x280001
EndSplineSet
EndChar

StartChar: seven
Encoding: 55 55 41
Width: 510
Flags: W
HStem: 18 27<89 98>
VStem: 107 206<31.6006 161.803> 116 206<54.1839 187.995> 125 206<81.1084 214.743> 143 197<135.257 268.983> 152 197<162.257 295.892> 161 197<188.831 332> 170 197<215.197 359> 179 197<242.108 386> 188 197<269.015 412.892> 197 197<305.108 439.803> 205 198<332.035 466.169> 214 198<359.011 484.169>
LayerCount: 2
Fore
SplineSet
26 687 m 0x8008
 26 691 26 691 255 691 c 0
 484 691 484 691 484 678 c 0
 484 665 483 664 479 664 c 0
 475 664 475 664 475 651 c 0
 475 638 474 637 470 637 c 0
 466 637 466 637 466 619 c 0
 466 601 465 601 461 601 c 0
 457 601 457 601 457 588 c 0
 457 575 456 574 452 574 c 0
 448 574 448 574 448 561 c 0
 448 548 447 547 443 547 c 0
 439 547 439 547 439 529 c 0
 439 511 438 512 434 512 c 0
 430 512 430 511 430 498 c 0
 430 485 429 485 425 485 c 0
 421 485 421 485 421 467 c 0
 421 449 420 449 416 449 c 0
 412 449 412 448 412 435 c 0x8008
 412 422 411 422 407 422 c 0
 403 422 403 422 403 404 c 0x8010
 403 386 402 386 398 386 c 0
 394 386 394 385 394 372 c 0x8020
 394 359 393 359 389 359 c 0
 385 359 385 359 385 346 c 0x8040
 385 333 384 332 380 332 c 0
 376 332 376 332 376 314 c 0x8080
 376 296 376 296 372 296 c 0
 368 296 367 296 367 283 c 0x81
 367 270 367 269 363 269 c 0
 359 269 358 269 358 251 c 0x82
 358 233 358 233 354 233 c 0
 350 233 349 233 349 220 c 0x84
 349 207 349 206 345 206 c 0
 341 206 340 206 340 188 c 0x88
 340 170 340 171 336 171 c 0
 332 171 331 170 331 157 c 0x90
 331 144 331 144 327 144 c 0
 323 144 322 143 322 130 c 0xa0
 322 117 322 117 318 117 c 0
 314 117 313 117 313 99 c 0xc0
 313 81 313 81 309 81 c 0
 305 81 304 80 304 67 c 0
 304 54 304 54 300 54 c 0
 296 54 295 53 295 40 c 0
 295 27 295 27 291 27 c 0
 287 27 286 26 286 22 c 0
 286 18 287 18 188 18 c 0x8040
 89 18 89 18 89 31 c 0
 89 44 89 45 93 45 c 0
 97 45 98 45 98 58 c 0
 98 71 98 72 102 72 c 0
 106 72 107 72 107 90 c 0xc0
 107 108 107 108 111 108 c 0
 115 108 116 108 116 121 c 0xa0
 116 134 116 135 120 135 c 0
 124 135 125 135 125 148 c 0x90
 125 161 125 162 129 162 c 0
 133 162 134 162 134 175 c 0
 134 188 134 188 138 188 c 0
 142 188 143 189 143 202 c 0x88
 143 215 143 215 147 215 c 0
 151 215 152 216 152 229 c 0x84
 152 242 152 242 156 242 c 0
 160 242 161 243 161 256 c 0x82
 161 269 161 269 165 269 c 0
 169 269 170 269 170 287 c 0x81
 170 305 170 305 174 305 c 0
 178 305 179 306 179 319 c 0x8080
 179 332 179 332 183 332 c 0
 187 332 188 333 188 346 c 0x8040
 188 359 188 359 192 359 c 0
 196 359 197 359 197 372 c 0x8020
 197 385 197 386 201 386 c 0
 205 386 205 386 205 399 c 0x8010
 205 412 206 413 210 413 c 0
 214 413 214 413 214 426 c 0
 214 439 215 440 219 440 c 0
 223 440 223 440 223 453 c 0
 223 466 224 467 228 467 c 0
 232 467 232 467 232 485 c 0
 232 503 233 503 134 503 c 2
 35 503 l 1
 35 592 l 2
 35 682 34 682 30 682 c 0
 26 682 26 683 26 687 c 0x8008
EndSplineSet
EndChar

StartChar: eight
Encoding: 56 56 42
Width: 539
Flags: W
HStem: 0 153<207.003 323.689> 9 153<199.037 265.399 266.6 268.339 271.661 332.598> 233 9<504.5 512.993> 314 144<216.418 314.938> 565 144<225.305 314.663>
VStem: 28 162<171.003 295.792> 37 170<162.108 231.339 234.661 235.738 240.261 305.099> 64 143<467.16 546.973> 252 27<1.52588e-05 8.75085> 324 144<467.274 555.545> 342 162<171 232.169 233.831 237.815 238.185 295.598>
LayerCount: 2
Fore
SplineSet
216 704 m 0xbc80
 216 708 216 709 270 709 c 0
 324 709 324 708 324 704 c 0
 324 700 325 700 338 700 c 0
 351 700 351 700 351 696 c 0
 351 692 351 691 360 691 c 0
 369 691 369 691 369 687 c 0
 369 683 369 682 378 682 c 0
 387 682 387 682 387 678 c 0
 387 674 387 673 391 673 c 0
 395 673 396 673 396 669 c 0
 396 665 396 664 400 664 c 0
 404 664 405 664 405 660 c 0
 405 656 405 655 409 655 c 0
 413 655 414 655 414 651 c 0
 414 647 414 646 418 646 c 0
 422 646 423 646 423 642 c 0
 423 638 423 637 427 637 c 0
 431 637 432 637 432 633 c 0
 432 629 432 628 436 628 c 0
 440 628 441 628 441 624 c 0
 441 620 441 619 445 619 c 0
 449 619 450 619 450 610 c 0
 450 601 450 601 454 601 c 0
 458 601 459 601 459 588 c 0
 459 575 459 574 463 574 c 0
 467 574 468 574 468 516 c 0
 468 458 467 458 463 458 c 0
 459 458 459 458 459 449 c 0
 459 440 458 440 454 440 c 0
 450 440 450 440 450 431 c 0
 450 422 449 422 445 422 c 0
 441 422 441 421 441 408 c 0
 441 395 441 395 445 395 c 0
 449 395 450 394 450 390 c 0
 450 386 450 386 454 386 c 0
 458 386 459 385 459 381 c 0
 459 377 459 377 463 377 c 0
 467 377 468 377 468 368 c 0xbcc0
 468 359 468 359 472 359 c 0
 476 359 477 358 477 354 c 0
 477 350 477 350 481 350 c 0
 485 350 486 350 486 341 c 0
 486 332 486 332 490 332 c 0
 494 332 495 332 495 319 c 0
 495 306 495 305 499 305 c 0
 503 305 504 305 504 274 c 0
 504 243 504 242 508 242 c 0
 512 242 513 242 513 238 c 0
 513 234 512 233 508 233 c 0
 504 233 504 233 504 202 c 0xb8a0
 504 171 503 171 499 171 c 0
 495 171 495 170 495 157 c 0
 495 144 494 144 490 144 c 0
 486 144 486 144 486 135 c 0
 486 126 485 126 481 126 c 0
 477 126 477 126 477 117 c 0
 477 108 476 108 472 108 c 0
 468 108 468 107 468 103 c 0xb8c0
 468 99 467 99 463 99 c 0
 459 99 459 98 459 94 c 0
 459 90 458 90 454 90 c 0
 450 90 450 89 450 85 c 0
 450 81 449 81 445 81 c 0
 441 81 441 80 441 76 c 0
 441 72 440 72 436 72 c 0
 432 72 432 71 432 67 c 0
 432 63 431 63 427 63 c 0
 423 63 423 62 423 58 c 0
 423 54 422 54 418 54 c 0
 414 54 414 53 414 49 c 0
 414 45 413 45 409 45 c 0
 405 45 405 44 405 40 c 0
 405 36 405 36 396 36 c 0
 387 36 387 35 387 31 c 0
 387 27 387 27 378 27 c 0
 369 27 369 26 369 22 c 0
 369 18 369 18 356 18 c 0
 343 18 342 17 342 13 c 0
 342 9 342 9 311 9 c 0x78a0
 280 9 279 8 279 4 c 0
 279 0 279 0 266 0 c 0xb8a0
 253 0 252 0 252 4 c 0
 252 8 252 9 225 9 c 0
 198 9 199 9 199 13 c 0
 199 17 198 18 185 18 c 0
 172 18 172 18 172 22 c 0
 172 26 172 27 163 27 c 0
 154 27 154 27 154 31 c 0
 154 35 154 36 145 36 c 0
 136 36 136 36 136 40 c 0
 136 44 135 45 131 45 c 0
 127 45 127 45 127 49 c 0
 127 53 127 54 118 54 c 0
 109 54 109 54 109 58 c 0
 109 62 108 63 104 63 c 0
 100 63 100 63 100 67 c 0
 100 71 99 72 95 72 c 0
 91 72 91 72 91 76 c 0
 91 80 90 81 86 81 c 0
 82 81 82 81 82 85 c 0
 82 89 81 90 77 90 c 0
 73 90 73 90 73 99 c 0
 73 108 72 108 68 108 c 0
 64 108 64 108 64 112 c 0x79a0
 64 116 63 117 59 117 c 0
 55 117 55 117 55 126 c 0
 55 135 54 135 50 135 c 0
 46 135 46 135 46 144 c 0
 46 153 45 153 41 153 c 0
 37 153 37 153 37 171 c 0xba80
 37 189 36 188 32 188 c 0
 28 188 28 189 28 238 c 0xbc80
 28 287 28 287 32 287 c 0
 36 287 37 287 37 305 c 0xba80
 37 323 37 323 41 323 c 0
 45 323 46 323 46 332 c 0
 46 341 46 341 50 341 c 0
 54 341 55 341 55 350 c 0
 55 359 55 359 59 359 c 0
 63 359 64 359 64 363 c 0
 64 367 64 368 68 368 c 0
 72 368 73 368 73 372 c 0
 73 376 73 377 77 377 c 0
 81 377 82 377 82 381 c 0
 82 385 82 386 86 386 c 0
 90 386 91 386 91 395 c 0
 91 404 91 404 95 404 c 0
 99 404 100 404 100 408 c 0
 100 412 99 413 95 413 c 0
 91 413 91 413 91 422 c 0
 91 431 90 431 86 431 c 0
 82 431 82 431 82 440 c 0
 82 449 81 449 77 449 c 0
 73 449 73 449 73 462 c 0
 73 475 72 476 68 476 c 0
 64 476 64 476 64 516 c 0xb980
 64 556 64 556 68 556 c 0
 72 556 73 557 73 570 c 0
 73 583 73 583 77 583 c 0
 81 583 82 584 82 597 c 0
 82 610 82 610 86 610 c 0
 90 610 91 611 91 615 c 0
 91 619 91 619 95 619 c 0
 99 619 100 619 100 628 c 0
 100 637 100 637 104 637 c 0
 108 637 109 638 109 642 c 0
 109 646 109 646 113 646 c 0
 117 646 118 647 118 651 c 0
 118 655 118 655 122 655 c 0
 126 655 127 656 127 660 c 0
 127 664 127 664 131 664 c 0
 135 664 136 665 136 669 c 0
 136 673 136 673 145 673 c 0
 154 673 154 674 154 678 c 0
 154 682 154 682 158 682 c 0
 162 682 163 683 163 687 c 0
 163 691 163 691 176 691 c 0
 189 691 190 692 190 696 c 0
 190 700 190 700 203 700 c 0
 216 700 216 700 216 704 c 0xbc80
288 561 m 0
 288 565 288 565 266 565 c 0
 244 565 243 565 243 561 c 0
 243 557 243 556 239 556 c 0
 235 556 234 556 234 552 c 0
 234 548 234 547 230 547 c 0
 226 547 225 547 225 543 c 0
 225 539 225 538 221 538 c 0
 217 538 216 538 216 529 c 0
 216 520 216 521 212 521 c 0
 208 521 207 521 207 512 c 0x39c0
 207 503 208 503 212 503 c 0
 216 503 216 502 216 489 c 0
 216 476 217 476 221 476 c 0
 225 476 225 475 225 471 c 0
 225 467 225 467 234 467 c 0
 243 467 243 466 243 462 c 0
 243 458 244 458 266 458 c 0
 288 458 288 458 288 462 c 0
 288 466 288 467 297 467 c 0
 306 467 306 467 306 471 c 0
 306 475 307 476 311 476 c 0
 315 476 315 476 315 485 c 0
 315 494 316 494 320 494 c 0
 324 494 324 494 324 512 c 0
 324 530 324 529 320 529 c 0
 316 529 315 529 315 538 c 0
 315 547 315 547 311 547 c 0
 307 547 306 548 306 552 c 0
 306 556 306 556 297 556 c 0
 288 556 288 557 288 561 c 0
297 310 m 0
 297 314 297 314 266 314 c 0
 235 314 234 314 234 310 c 0
 234 306 234 305 225 305 c 0
 216 305 216 305 216 301 c 0
 216 297 216 296 212 296 c 0
 208 296 207 296 207 292 c 0x7ac0
 207 288 207 287 203 287 c 0
 199 287 199 287 199 278 c 0
 199 269 198 269 194 269 c 0
 190 269 190 269 190 233 c 0x7c80
 190 197 190 197 194 197 c 0
 198 197 199 197 199 188 c 0
 199 179 199 179 203 179 c 0
 207 179 207 179 207 175 c 0
 207 171 208 171 212 171 c 0
 216 171 216 170 216 166 c 0
 216 162 216 162 225 162 c 0x7a80
 234 162 234 161 234 157 c 0
 234 153 234 153 270 153 c 0xba80
 306 153 306 153 306 157 c 0
 306 161 307 162 311 162 c 0
 315 162 315 162 315 166 c 0
 315 170 316 171 320 171 c 0
 324 171 324 171 324 175 c 0x7ac0
 324 179 325 179 329 179 c 0
 333 179 333 180 333 184 c 0
 333 188 334 188 338 188 c 0
 342 188 342 189 342 202 c 0
 342 215 343 215 347 215 c 0
 351 215 351 215 351 233 c 0
 351 251 351 251 347 251 c 0
 343 251 342 252 342 265 c 0x78a0
 342 278 342 278 338 278 c 0
 334 278 333 279 333 283 c 0
 333 287 333 287 329 287 c 0
 325 287 324 288 324 292 c 0
 324 296 324 296 320 296 c 0
 316 296 315 297 315 301 c 0
 315 305 315 305 306 305 c 0
 297 305 297 306 297 310 c 0
EndSplineSet
EndChar

StartChar: nine
Encoding: 57 57 43
Width: 563
Flags: W
HStem: 0 21G<387 389> 0 21G<387 389> 55 59<224.206 238.981> 59 33<221 228> 62 8<213 217> 500 202<221.039 239 283.508 345.969> 522 187<235.113 331.026>
VStem: 26 195<406.001 510.726> 52 224<299.001 385.999> 140 99<230.001 258.999> 162 73<219.001 243.999> 177 55<209.278 231.227> 199 29<202.386 217.138> 213 11<202 206.037> 221 198<51.2742 65.8154 66.1846 144.998> 221 191<51.2742 65.8154 66.1846 126.998> 224 199<51.2742 65.8154 66.1846 153.862> 235 199<66.1846 183.808> 239 198<75.0018 190.98> 250 198<108.002 224.034> 254 198<118.001 236.998> 261 198<138.002 253.045> 272 199<172.95 291.998> 272 22<705.008 709> 276 198<178.002 298.998> 283 199<202.192 322.981> 290 199<219.002 337.808> 298 198<241.002 361.998> 302 198<257.057 374.998> 309 198<272.001 382> 313 198<286.955 382> 320 198<303.002 382> 331 195<332.002 456.585 457.416 457.662> 335 62<11.0195 26.3303> 342 191<366.002 456.585 457.416 508.999> 349 188<430 487.926> 364 29<4.18386 14.9375> 386 4<1.52588e-05 3.93896>
LayerCount: 2
Fore
SplineSet
272 707 m 0x040001
 272 709 272 709 283 709 c 0x02000040
 294 709 294 709 294 707 c 0
 294 705 294 705 311 705 c 0
 328 705 327 705 327 703 c 0
 327 701 327 702 336 702 c 0
 345 702 346 702 346 700 c 0
 346 698 345 698 351 698 c 0
 357 698 357 698 357 696 c 0
 357 694 356 694 362 694 c 0
 368 694 368 694 368 692 c 0
 368 690 367 691 373 691 c 0
 379 691 379 691 379 689 c 0
 379 687 378 687 382 687 c 0
 386 687 386 687 386 685 c 0
 386 683 386 683 390 683 c 0x0400010004
 394 683 393 683 393 681 c 0x0400000008
 393 679 393 680 397 680 c 0x0400000040
 401 680 401 680 401 678 c 0
 401 676 400 676 404 676 c 0
 408 676 408 676 408 674 c 0
 408 672 408 672 410 672 c 0
 412 672 412 672 412 670 c 0x0401
 412 668 411 669 415 669 c 0
 419 669 419 669 419 667 c 0x0402
 419 665 419 665 421 665 c 0
 423 665 423 665 423 663 c 0x040080
 423 661 422 661 426 661 c 0
 430 661 430 661 430 659 c 0
 430 657 430 658 432 658 c 0
 434 658 434 658 434 656 c 0x040040
 434 654 434 654 436 654 c 0
 438 654 437 654 437 652 c 0x040020
 437 650 437 650 439 650 c 0
 441 650 441 650 441 648 c 0
 441 646 441 647 445 647 c 0
 449 647 448 647 448 645 c 0x040010
 448 643 448 643 450 643 c 0
 452 643 452 643 452 641 c 0x040008
 452 639 452 639 454 639 c 0
 456 639 456 639 456 637 c 0
 456 635 456 636 458 636 c 0
 460 636 459 636 459 634 c 0x040004
 459 632 459 632 461 632 c 0
 463 632 463 632 463 630 c 0
 463 628 463 628 465 628 c 0
 467 628 467 628 467 626 c 0
 467 624 467 625 469 625 c 0
 471 625 471 625 471 623 c 0x040002
 471 621 470 621 472 621 c 0
 474 621 474 621 474 619 c 0x04000080
 474 617 474 617 476 617 c 0
 478 617 478 617 478 615 c 0
 478 613 478 613 480 613 c 0
 482 613 482 614 482 610 c 0x04000040
 482 606 481 606 483 606 c 0
 485 606 485 606 485 604 c 0
 485 602 485 602 487 602 c 0
 489 602 489 603 489 601 c 0x04000020
 489 599 489 599 491 599 c 0
 493 599 493 599 493 595 c 0
 493 591 492 591 494 591 c 0
 496 591 496 592 496 590 c 0x04000010
 496 588 496 588 498 588 c 0
 500 588 500 588 500 584 c 0x04000008
 500 580 500 580 502 580 c 0
 504 580 504 581 504 579 c 0
 504 577 503 577 505 577 c 0
 507 577 507 577 507 573 c 0x04000004
 507 569 507 569 509 569 c 0
 511 569 511 570 511 566 c 0x04000002
 511 562 511 562 513 562 c 0
 515 562 515 562 515 558 c 0
 515 554 514 555 516 555 c 0
 518 555 518 555 518 551 c 0x04000001
 518 547 518 547 520 547 c 0
 522 547 522 548 522 542 c 0
 522 536 522 536 524 536 c 0
 526 536 526 537 526 531 c 0x0400000080
 526 525 525 525 527 525 c 0
 529 525 529 525 529 518 c 0
 529 511 529 511 531 511 c 0
 533 511 533 511 533 500 c 0x0400000020
 533 489 533 489 535 489 c 0
 537 489 537 488 537 459 c 0x0400000010
 537 430 537 430 535 430 c 0
 533 430 533 430 533 421 c 0x0400000020
 533 412 533 411 531 411 c 0
 529 411 529 411 529 404 c 0
 529 397 529 397 527 397 c 0
 525 397 526 396 526 389 c 0x0400000080
 526 382 526 382 524 382 c 0
 522 382 522 382 522 375 c 0
 522 368 522 367 520 367 c 0
 518 367 518 368 518 362 c 0x04000001
 518 356 518 356 516 356 c 0
 514 356 515 357 515 351 c 0
 515 345 515 345 513 345 c 0
 511 345 511 346 511 340 c 0x04000002
 511 334 511 334 509 334 c 0
 507 334 507 335 507 329 c 0x04000004
 507 323 507 323 505 323 c 0
 503 323 504 324 504 318 c 0
 504 312 504 312 502 312 c 0
 500 312 500 313 500 309 c 0x04000008
 500 305 500 305 498 305 c 0
 496 305 496 305 496 299 c 0x04000010
 496 293 496 294 494 294 c 0
 492 294 493 294 493 288 c 0
 493 282 493 283 491 283 c 0
 489 283 489 283 489 277 c 0x04000020
 489 271 489 272 487 272 c 0
 485 272 485 272 485 268 c 0
 485 264 485 264 483 264 c 0
 481 264 482 265 482 259 c 0x04000040
 482 253 482 253 480 253 c 0
 478 253 478 254 478 248 c 0
 478 242 478 242 476 242 c 0
 474 242 474 243 474 237 c 0x04000080
 474 231 474 231 472 231 c 0
 470 231 471 232 471 228 c 0x040002
 471 224 471 224 469 224 c 0
 467 224 467 225 467 219 c 0
 467 213 467 213 465 213 c 0
 463 213 463 214 463 208 c 0
 463 202 463 202 461 202 c 0
 459 202 459 203 459 197 c 0x040004
 459 191 460 191 458 191 c 0
 456 191 456 192 456 186 c 0
 456 180 456 180 454 180 c 0
 452 180 452 180 452 176 c 0x040008
 452 172 452 173 450 173 c 0
 448 173 448 173 448 167 c 0x040010
 448 161 449 162 447 162 c 0
 445 162 445 162 445 156 c 0
 445 150 445 151 443 151 c 0
 441 151 441 151 441 145 c 0
 441 139 441 140 439 140 c 0
 437 140 437 140 437 136 c 0x040020
 437 132 438 132 436 132 c 0
 434 132 434 133 434 127 c 0x040040
 434 121 434 121 432 121 c 0
 430 121 430 122 430 116 c 0
 430 110 430 110 428 110 c 0
 426 110 426 111 426 105 c 0
 426 99 427 99 425 99 c 0
 423 99 423 100 423 94 c 0x040080
 423 88 423 88 421 88 c 0
 419 88 419 88 419 84 c 0x0402
 419 80 419 81 417 81 c 0
 415 81 415 81 415 75 c 0
 415 69 416 70 414 70 c 0
 412 70 412 70 412 64 c 0x0c01
 412 58 412 59 410 59 c 0
 408 59 408 59 408 53 c 0
 408 47 408 48 406 48 c 0
 404 48 404 48 404 44 c 0
 404 40 405 40 403 40 c 0
 401 40 401 41 401 35 c 0
 401 29 401 29 399 29 c 0
 397 29 397 30 397 24 c 0x1000000040
 397 18 397 18 395 18 c 0
 393 18 393 19 393 13 c 0x1000000008
 393 7 394 7 392 7 c 0
 390 7 390 8 390 4 c 0
 390 0 390 0 388 0 c 0
 386 0 386 0 386 2 c 0x9000000004
 386 4 386 4 380 4 c 0
 374 4 375 4 375 6 c 0
 375 8 375 7 369 7 c 0
 363 7 364 7 364 9 c 0x9000000008
 364 11 364 11 358 11 c 0
 352 11 353 11 353 13 c 0
 353 15 353 15 347 15 c 0
 341 15 342 15 342 17 c 0x9000000020
 342 19 342 18 338 18 c 0
 334 18 335 18 335 20 c 0x9000000040
 335 22 335 22 329 22 c 0
 323 22 324 22 324 24 c 0
 324 26 324 26 318 26 c 0
 312 26 313 26 313 28 c 0x90000002
 313 30 313 29 307 29 c 0
 301 29 302 29 302 31 c 0x90000008
 302 33 302 33 296 33 c 0
 290 33 290 33 290 35 c 0x90000020
 290 37 291 37 287 37 c 0
 283 37 283 37 283 39 c 0x90000040
 283 41 284 40 278 40 c 0
 272 40 272 40 272 42 c 0x900001
 272 44 273 44 267 44 c 0
 261 44 261 44 261 46 c 0x900004
 261 48 262 48 256 48 c 0
 250 48 250 48 250 50 c 0x900010
 250 52 251 51 245 51 c 0
 239 51 239 51 239 53 c 0
 239 55 240 55 234 55 c 0
 228 55 228 55 228 57 c 0xa00820
 228 59 228 59 224 59 c 0x100080
 220 59 221 59 221 61 c 0x1002
 221 63 221 62 217 62 c 0
 213 62 213 62 213 66 c 0x0804
 213 70 213 70 215 70 c 0
 217 70 217 69 217 75 c 0
 217 81 217 81 219 81 c 0
 221 81 221 80 221 86 c 0x0802
 221 92 221 92 223 92 c 0
 225 92 224 91 224 97 c 0x100080
 224 103 224 103 226 103 c 0
 228 103 228 102 228 108 c 0x1008
 228 114 228 114 230 114 c 0
 232 114 232 114 232 118 c 0
 232 122 232 121 234 121 c 0
 236 121 235 121 235 127 c 0x201040
 235 133 235 132 237 132 c 0
 239 132 239 132 239 138 c 0x200020
 239 144 239 143 241 143 c 0
 243 143 243 143 243 149 c 0
 243 155 243 154 245 154 c 0
 247 154 246 154 246 160 c 0
 246 166 246 165 248 165 c 0
 250 165 250 165 250 169 c 0x200010
 250 173 250 173 252 173 c 0
 254 173 254 172 254 178 c 0x200008
 254 184 254 184 256 184 c 0
 258 184 257 183 257 189 c 0
 257 195 257 195 259 195 c 0
 261 195 261 194 261 200 c 0x200004
 261 206 261 206 263 206 c 0
 265 206 265 205 265 211 c 0
 265 217 265 217 267 217 c 0
 269 217 268 216 268 220 c 0
 268 224 268 224 270 224 c 0
 272 224 272 224 272 230 c 0x200002
 272 236 272 235 274 235 c 0
 276 235 276 235 276 241 c 0x20000080
 276 247 276 246 278 246 c 0
 280 246 279 246 279 252 c 0
 279 258 279 257 281 257 c 0
 283 257 283 257 283 263 c 0x20000040
 283 269 283 268 285 268 c 0
 287 268 287 268 287 272 c 0
 287 276 287 276 289 276 c 0
 291 276 290 275 290 281 c 0x20000020
 290 287 290 287 292 287 c 0
 294 287 294 286 294 292 c 0
 294 298 294 298 296 298 c 0
 298 298 298 297 298 303 c 0x20000110
 298 309 298 309 300 309 c 0
 302 309 302 308 302 314 c 0x20000008
 302 320 301 320 303 320 c 0
 305 320 305 319 305 323 c 0
 305 327 305 327 307 327 c 0
 309 327 309 326 309 332 c 0x20000004
 309 338 309 338 311 338 c 0
 313 338 313 337 313 343 c 0x20000002
 313 349 312 349 314 349 c 0
 316 349 316 348 316 354 c 0
 316 360 316 360 318 360 c 0
 320 360 320 360 320 366 c 0x20000001
 320 372 320 371 322 371 c 0
 324 371 324 371 324 375 c 0
 324 379 323 378 325 378 c 0
 327 378 327 378 327 384 c 0
 327 390 327 389 329 389 c 0
 331 389 331 389 331 395 c 0x2000000080
 331 401 331 400 333 400 c 0
 335 400 335 400 335 406 c 0x2000000040
 335 412 334 411 336 411 c 0
 338 411 338 411 338 417 c 0
 338 423 338 422 340 422 c 0
 342 422 342 422 342 426 c 0x2000000020
 342 430 342 430 344 430 c 0
 346 430 346 430 346 439 c 0
 346 448 345 448 347 448 c 0
 349 448 349 448 349 457 c 0x2000000010
 349 466 349 467 347 467 c 0
 345 467 346 467 346 474 c 0
 346 481 346 481 344 481 c 0
 342 481 342 481 342 485 c 0x2000000020
 342 489 342 489 340 489 c 0
 338 489 338 488 338 490 c 0
 338 492 338 492 336 492 c 0
 334 492 335 492 335 496 c 0x2000000040
 335 500 335 500 333 500 c 0
 331 500 331 499 331 501 c 0x2400000080
 331 503 331 503 329 503 c 0
 327 503 327 503 327 505 c 0
 327 507 328 507 324 507 c 0
 320 507 320 507 320 509 c 0x24000001
 320 511 320 511 318 511 c 0
 316 511 316 510 316 512 c 0
 316 514 317 514 313 514 c 0x24000002
 309 514 309 514 309 516 c 0x24000004
 309 518 309 518 303 518 c 0
 297 518 298 518 298 520 c 0x24000010
 298 522 298 522 281 522 c 0
 264 522 265 522 265 520 c 0
 265 518 265 518 259 518 c 0
 253 518 254 518 254 516 c 0x020008
 254 514 254 514 252 514 c 0
 250 514 250 514 250 512 c 0x020010
 250 510 250 511 246 511 c 0
 242 511 243 511 243 509 c 0
 243 507 243 507 241 507 c 0
 239 507 239 507 239 505 c 0x020020
 239 503 239 503 237 503 c 0
 235 503 235 503 235 501 c 0
 235 499 236 500 234 500 c 0
 232 500 232 500 232 498 c 0x041040
 232 496 232 496 230 496 c 0
 228 496 228 496 228 492 c 0x0408
 228 488 228 489 226 489 c 0
 224 489 224 489 224 485 c 0
 224 481 225 481 223 481 c 0
 221 481 221 482 221 476 c 0
 221 470 221 470 219 470 c 0
 217 470 217 471 217 456 c 0
 217 441 217 441 219 441 c 0
 221 441 221 441 221 435 c 0
 221 429 221 430 223 430 c 0
 225 430 224 430 224 426 c 0x050080
 224 422 224 422 226 422 c 0
 228 422 228 423 228 421 c 0x0408
 228 419 228 419 230 419 c 0
 232 419 232 419 232 415 c 0
 232 411 232 411 234 411 c 0
 236 411 235 412 235 410 c 0x041040
 235 408 235 408 239 408 c 0x040020
 243 408 243 408 243 406 c 0
 243 404 243 404 245 404 c 0
 247 404 246 404 246 402 c 0
 246 400 246 400 250 400 c 0x040010
 254 400 254 401 254 399 c 0x040008
 254 397 253 397 257 397 c 0
 261 397 261 397 261 395 c 0x040004
 261 393 261 393 281 393 c 0
 301 393 302 393 302 391 c 0x04000008
 302 389 302 389 300 389 c 0
 298 389 298 390 298 386 c 0
 298 382 298 382 296 382 c 0
 294 382 294 383 294 377 c 0x04000110
 294 371 294 371 292 371 c 0
 290 371 290 371 290 367 c 0x04000020
 290 363 291 364 289 364 c 0
 287 364 287 364 287 358 c 0
 287 352 287 353 285 353 c 0
 283 353 283 353 283 349 c 0
 283 345 283 345 281 345 c 0
 279 345 279 346 279 340 c 0
 279 334 280 334 278 334 c 0
 276 334 276 335 276 331 c 0x04800040
 276 327 276 327 274 327 c 0
 272 327 272 327 272 323 c 0x040001
 272 319 272 320 270 320 c 0
 268 320 268 320 268 314 c 0
 268 308 269 309 267 309 c 0
 265 309 265 309 265 305 c 0
 265 301 265 301 263 301 c 0
 261 301 261 302 261 296 c 0x040004
 261 290 261 290 259 290 c 0
 257 290 257 291 257 287 c 0
 257 283 258 283 256 283 c 0
 254 283 254 283 254 277 c 0x040008
 254 271 254 272 252 272 c 0
 250 272 250 272 250 268 c 0
 250 264 250 264 248 264 c 0
 246 264 246 265 246 261 c 0
 246 257 247 257 245 257 c 0
 243 257 243 258 243 252 c 0
 243 246 243 246 241 246 c 0
 239 246 239 246 239 242 c 0x044010
 239 238 239 239 237 239 c 0
 235 239 235 239 235 233 c 0x0420
 235 227 236 228 234 228 c 0
 232 228 232 228 232 224 c 0x0410
 232 220 232 220 230 220 c 0
 228 220 228 221 228 215 c 0x0408
 228 209 228 209 226 209 c 0
 224 209 224 210 224 206 c 0
 224 202 225 202 219 202 c 0
 213 202 213 202 213 204 c 0x0404
 213 206 214 206 210 206 c 0
 206 206 206 206 206 208 c 0
 206 210 206 209 202 209 c 0
 198 209 199 209 199 211 c 0x0408
 199 213 199 213 195 213 c 0
 191 213 191 213 191 215 c 0
 191 217 192 217 188 217 c 0
 184 217 184 217 184 219 c 0
 184 221 184 220 180 220 c 0
 176 220 177 220 177 222 c 0x0410
 177 224 177 224 173 224 c 0
 169 224 169 224 169 226 c 0
 169 228 170 228 166 228 c 0
 162 228 162 228 162 230 c 0x0420
 162 232 162 231 158 231 c 0
 154 231 155 231 155 233 c 0
 155 235 155 235 153 235 c 0
 151 235 151 235 151 237 c 0
 151 239 151 239 147 239 c 0
 143 239 144 239 144 241 c 0
 144 243 144 242 142 242 c 0
 140 242 140 242 140 244 c 0x0440
 140 246 140 246 136 246 c 0
 132 246 133 246 133 248 c 0
 133 250 133 250 131 250 c 0
 129 250 129 250 129 252 c 0
 129 254 129 253 125 253 c 0
 121 253 122 253 122 255 c 0
 122 257 122 257 120 257 c 0
 118 257 118 257 118 259 c 0
 118 261 118 261 116 261 c 0
 114 261 114 261 114 263 c 0
 114 265 114 264 110 264 c 0
 106 264 107 264 107 266 c 0
 107 268 107 268 105 268 c 0
 103 268 103 268 103 270 c 0
 103 272 103 272 101 272 c 0
 99 272 99 272 99 274 c 0
 99 276 100 276 98 276 c 0
 96 276 96 275 96 277 c 0
 96 279 96 279 94 279 c 0
 92 279 92 279 92 281 c 0
 92 283 92 283 90 283 c 0
 88 283 88 283 88 285 c 0
 88 287 89 287 87 287 c 0
 85 287 85 286 85 288 c 0
 85 290 85 290 83 290 c 0
 81 290 81 290 81 292 c 0
 81 294 81 294 79 294 c 0
 77 294 77 294 77 296 c 0
 77 298 78 298 76 298 c 0
 74 298 74 297 74 299 c 0
 74 301 74 301 72 301 c 0
 70 301 70 301 70 305 c 0
 70 309 70 309 68 309 c 0
 66 309 66 308 66 310 c 0
 66 312 67 312 65 312 c 0
 63 312 63 312 63 316 c 0
 63 320 63 320 61 320 c 0
 59 320 59 319 59 321 c 0
 59 323 59 323 57 323 c 0
 55 323 55 323 55 327 c 0
 55 331 56 331 54 331 c 0
 52 331 52 330 52 334 c 0x0480
 52 338 52 338 50 338 c 0
 48 338 48 338 48 342 c 0
 48 346 48 345 46 345 c 0
 44 345 44 345 44 349 c 0
 44 353 45 353 43 353 c 0
 41 353 41 352 41 358 c 0
 41 364 41 364 39 364 c 0
 37 364 37 363 37 369 c 0
 37 375 37 375 35 375 c 0
 33 375 33 375 33 382 c 0
 33 389 34 389 32 389 c 0
 30 389 30 390 30 399 c 0
 30 408 30 408 28 408 c 0
 26 408 26 408 26 450 c 0x05
 26 492 26 492 28 492 c 0
 30 492 30 492 30 501 c 0
 30 510 30 511 32 511 c 0
 34 511 33 511 33 518 c 0
 33 525 33 525 35 525 c 0
 37 525 37 525 37 531 c 0
 37 537 37 536 39 536 c 0
 41 536 41 536 41 542 c 0
 41 548 41 547 43 547 c 0
 45 547 44 547 44 551 c 0
 44 555 44 555 46 555 c 0
 48 555 48 554 48 558 c 0
 48 562 48 562 50 562 c 0
 52 562 52 562 52 566 c 0x0480
 52 570 52 569 54 569 c 0
 56 569 55 569 55 573 c 0
 55 577 55 577 57 577 c 0
 59 577 59 576 59 580 c 0
 59 584 59 584 61 584 c 0
 63 584 63 584 63 588 c 0
 63 592 63 591 65 591 c 0
 67 591 66 591 66 593 c 0
 66 595 66 595 68 595 c 0
 70 595 70 595 70 597 c 0
 70 599 70 599 72 599 c 0
 74 599 74 598 74 602 c 0
 74 606 74 606 76 606 c 0
 78 606 77 606 77 608 c 0
 77 610 77 610 79 610 c 0
 81 610 81 610 81 612 c 0
 81 614 81 613 83 613 c 0
 85 613 85 613 85 615 c 0
 85 617 85 617 87 617 c 0
 89 617 88 617 88 621 c 0
 88 625 88 625 90 625 c 0
 92 625 92 624 92 626 c 0
 92 628 92 628 94 628 c 0
 96 628 96 628 96 630 c 0
 96 632 96 632 98 632 c 0
 100 632 99 632 99 634 c 0
 99 636 99 636 101 636 c 0
 103 636 103 635 103 637 c 0
 103 639 103 639 105 639 c 0
 107 639 107 639 107 641 c 0
 107 643 107 643 109 643 c 0
 111 643 110 643 110 645 c 0
 110 647 110 647 114 647 c 0
 118 647 118 646 118 648 c 0
 118 650 118 650 120 650 c 0
 122 650 122 650 122 652 c 0
 122 654 121 654 123 654 c 0
 125 654 125 654 125 656 c 0
 125 658 125 658 127 658 c 0
 129 658 129 657 129 659 c 0
 129 661 129 661 133 661 c 0
 137 661 136 661 136 663 c 0
 136 665 136 665 138 665 c 0
 140 665 140 665 140 667 c 0x0440
 140 669 140 669 144 669 c 0
 148 669 147 668 147 670 c 0
 147 672 147 672 151 672 c 0
 155 672 155 672 155 674 c 0
 155 676 154 676 156 676 c 0
 158 676 158 676 158 678 c 0
 158 680 158 680 162 680 c 0x0420
 166 680 166 679 166 681 c 0
 166 683 165 683 169 683 c 0
 173 683 173 683 173 685 c 0
 173 687 172 687 178 687 c 0
 184 687 184 687 184 689 c 0
 184 691 184 691 188 691 c 0
 192 691 191 690 191 692 c 0
 191 694 191 694 197 694 c 0
 203 694 202 694 202 696 c 0
 202 698 203 698 210 698 c 0
 217 698 217 698 217 700 c 0
 217 702 217 702 226 702 c 0
 235 702 235 701 235 703 c 0x040040
 235 705 236 705 254 705 c 0x040008
 272 705 272 705 272 707 c 0x040001
EndSplineSet
EndChar

StartChar: sterling
Encoding: 163 163 44
Width: 528
Flags: W
HStem: 18 188<88.6833 106.371 277.001 466> 296 99<71.1413 98 295.611 394> 305 81<71.0335 97.9946> 529 180<268.069 330.766>
VStem: 80 179<422.008 528.411> 98 179<207.125 277.169 395.775 484.169 485.831 496.154>
LayerCount: 2
Fore
SplineSet
241 704 m 0xd4
 241 708 242 709 291 709 c 0
 340 709 340 708 340 704 c 0
 340 700 341 700 354 700 c 0
 367 700 367 700 367 696 c 0
 367 692 367 691 376 691 c 0
 385 691 385 691 385 687 c 0
 385 683 385 682 394 682 c 0
 403 682 403 682 403 678 c 0
 403 674 403 673 412 673 c 0
 421 673 421 673 421 669 c 0
 421 665 421 664 425 664 c 0
 429 664 430 664 430 660 c 0
 430 656 430 655 434 655 c 0
 438 655 439 655 439 651 c 0
 439 647 439 646 443 646 c 0
 447 646 448 646 448 642 c 0
 448 638 448 637 452 637 c 0
 456 637 457 637 457 633 c 0
 457 629 457 628 461 628 c 0
 465 628 466 628 466 619 c 0
 466 610 466 610 470 610 c 0
 474 610 475 610 475 601 c 0
 475 592 475 592 479 592 c 0
 483 592 484 592 484 583 c 0
 484 574 484 574 488 574 c 0
 492 574 493 574 493 556 c 0
 493 538 493 538 497 538 c 0
 501 538 502 539 502 512 c 0
 502 485 502 485 421 485 c 0
 340 485 340 485 340 489 c 0
 340 493 340 494 336 494 c 0
 332 494 331 494 331 507 c 0
 331 520 331 521 327 521 c 0
 323 521 322 521 322 525 c 0
 322 529 322 529 300 529 c 0
 278 529 277 529 277 525 c 0xd4
 277 521 277 521 273 521 c 0
 269 521 268 521 268 512 c 0
 268 503 268 503 264 503 c 0
 260 503 259 503 259 485 c 0xd8
 259 467 260 467 264 467 c 0
 268 467 268 466 268 453 c 0
 268 440 269 440 273 440 c 0
 277 440 277 440 277 431 c 0
 277 422 278 422 282 422 c 0
 286 422 286 421 286 408 c 0
 286 395 286 395 340 395 c 2
 394 395 l 1
 394 346 l 1
 394 296 l 1
 345 296 l 2
 296 296 295 296 295 283 c 0
 295 270 295 269 291 269 c 0
 287 269 286 269 286 251 c 0
 286 233 286 233 282 233 c 0
 278 233 277 233 277 220 c 0xd4
 277 207 278 206 372 206 c 2
 466 206 l 1
 466 112 l 1
 466 18 l 1
 246 18 l 2
 26 18 26 18 26 22 c 0
 26 26 26 27 30 27 c 0
 34 27 35 27 35 40 c 0
 35 53 35 54 39 54 c 0
 43 54 44 54 44 67 c 0
 44 80 44 81 48 81 c 0
 52 81 53 81 53 94 c 0
 53 107 53 108 57 108 c 0
 61 108 62 108 62 117 c 0
 62 126 62 126 66 126 c 0
 70 126 71 126 71 139 c 0
 71 152 71 153 75 153 c 0
 79 153 80 153 80 166 c 0xd8
 80 179 80 179 84 179 c 0
 88 179 89 180 89 193 c 0
 89 206 89 206 93 206 c 0
 97 206 98 206 98 215 c 0
 98 224 98 224 102 224 c 0
 106 224 107 224 107 242 c 0
 107 260 107 260 111 260 c 0
 115 260 116 260 116 278 c 0
 116 296 116 296 98 296 c 0xd4
 80 296 80 297 80 301 c 0
 80 305 79 305 75 305 c 0
 71 305 71 306 71 346 c 0
 71 386 71 386 75 386 c 0
 79 386 80 386 80 390 c 0xb8
 80 394 80 395 89 395 c 0
 98 395 98 395 98 408 c 0xd4
 98 421 97 422 93 422 c 0
 89 422 89 422 89 440 c 0
 89 458 88 458 84 458 c 0
 80 458 80 458 80 498 c 0xd8
 80 538 80 538 84 538 c 0
 88 538 89 538 89 556 c 0
 89 574 89 574 93 574 c 0
 97 574 98 574 98 583 c 0
 98 592 98 592 102 592 c 0
 106 592 107 592 107 601 c 0
 107 610 107 610 111 610 c 0
 115 610 116 611 116 615 c 0
 116 619 116 619 120 619 c 0
 124 619 125 619 125 628 c 0
 125 637 125 637 129 637 c 0
 133 637 134 638 134 642 c 0
 134 646 134 646 138 646 c 0
 142 646 143 647 143 651 c 0
 143 655 143 655 147 655 c 0
 151 655 152 656 152 660 c 0
 152 664 152 664 161 664 c 0
 170 664 170 665 170 669 c 0
 170 673 170 673 174 673 c 0
 178 673 179 674 179 678 c 0
 179 682 179 682 188 682 c 0
 197 682 197 683 197 687 c 0
 197 691 196 691 205 691 c 0
 214 691 214 692 214 696 c 0
 214 700 215 700 228 700 c 0
 241 700 241 700 241 704 c 0xd4
EndSplineSet
EndChar

StartChar: Euro
Encoding: 8364 8364 45
Width: 573
Flags: W
HStem: 0 21G<331 349> 0 21G<331 349> 18 188<341.246 385.169 403.007 465.997> 54 117<457.008 510.972> 63 99<475.004 519.997> 72 81<484.415 529> 90 54<502.003 538.02> 99 36<515.039 542.185> 117 9<538.042 546.993> 278 63<26.0471 97.9497 286.001 420.814> 278 54<26.0172 97.7627> 386 63<26.0471 97.9679 286.049 420.869> 386 54<26.0172 97.5365> 494 21G<389.5 398.5> 512 188<342.907 393.585 394.415 456.997> 547 126<439.003 501.972> 556 108<457.003 510.997> 565 90<466.007 520> 574 63<493.003 537.972> 583 45<502.004 546.972> 592 27<520 546.993> 601 9<538 546.993>
VStem: 98 188<197.831 277.419 341.671 385.316 449.636 520.169> 107 197<188.655 254.984 467.831 528.699> 322 36<1.52588e-05 8.93511> 367 72<503.415 528.998> 376 63<188.164 223.816> 376 54<503.003 528.958> 385 18<224 233 494 503>
LayerCount: 2
Fore
SplineSet
277 704 m 0x00020180
 277 708 277 709 340 709 c 0
 403 709 403 708 403 704 c 0x00020188
 403 700 403 700 416 700 c 0
 429 700 430 700 430 696 c 0x00020090
 430 692 430 691 439 691 c 0
 448 691 448 691 448 687 c 0
 448 683 448 682 457 682 c 0
 466 682 466 682 466 678 c 0
 466 674 466 673 475 673 c 0x000100a0
 484 673 484 673 484 669 c 0
 484 665 484 664 488 664 c 0x000080a0
 492 664 493 664 493 660 c 0
 493 656 493 655 497 655 c 0x000040a0
 501 655 502 655 502 651 c 0
 502 647 502 646 506 646 c 0
 510 646 511 646 511 642 c 0
 511 638 511 637 515 637 c 0x000020a0
 519 637 520 637 520 633 c 0
 520 629 520 628 524 628 c 0x000010a0
 528 628 529 628 529 624 c 0
 529 620 529 619 533 619 c 0x000008a0
 537 619 538 619 538 615 c 0
 538 611 538 610 542 610 c 0
 546 610 547 610 547 606 c 0
 547 602 546 601 542 601 c 0x000004a0
 538 601 538 601 538 597 c 0
 538 593 537 592 533 592 c 0x000008a0
 529 592 529 592 529 588 c 0
 529 584 528 583 524 583 c 0x000010a0
 520 583 520 583 520 579 c 0
 520 575 520 574 511 574 c 0x000020a0
 502 574 502 574 502 570 c 0
 502 566 501 565 497 565 c 0x000040a0
 493 565 493 565 493 561 c 0
 493 557 492 556 488 556 c 0x000080a0
 484 556 484 556 484 552 c 0
 484 548 484 547 475 547 c 0
 466 547 466 547 466 543 c 0
 466 539 465 538 461 538 c 0
 457 538 457 538 457 534 c 0
 457 530 457 529 448 529 c 0
 439 529 439 529 439 525 c 0x000100c0
 439 521 438 521 434 521 c 0
 430 521 430 520 430 516 c 0
 430 512 429 512 425 512 c 0x00020090
 421 512 421 511 421 507 c 0
 421 503 421 503 412 503 c 0
 403 503 403 502 403 498 c 0
 403 494 403 494 394 494 c 0
 385 494 385 494 385 503 c 0x00040088
 385 512 384 512 380 512 c 0
 376 512 376 512 376 516 c 0x00020090
 376 520 376 521 372 521 c 0
 368 521 367 521 367 525 c 0
 367 529 367 529 340 529 c 0
 313 529 313 529 313 525 c 0
 313 521 313 521 309 521 c 0
 305 521 304 520 304 516 c 0x000201c0
 304 512 304 512 300 512 c 0
 296 512 295 511 295 498 c 0
 295 485 295 485 291 485 c 0
 287 485 286 485 286 467 c 0
 286 449 287 449 354 449 c 0
 421 449 421 448 421 417 c 0
 421 386 421 386 358 386 c 0
 295 386 295 385 295 381 c 0
 295 377 295 377 291 377 c 0
 287 377 286 377 286 359 c 0
 286 341 287 341 354 341 c 0
 421 341 421 341 421 314 c 0
 421 287 420 287 416 287 c 0
 412 287 412 287 412 283 c 0
 412 279 412 278 349 278 c 0
 286 278 286 278 286 256 c 0x00520280
 286 234 287 233 291 233 c 0
 295 233 295 233 295 220 c 0
 295 207 296 206 300 206 c 0
 304 206 304 206 304 202 c 0
 304 198 305 197 309 197 c 0
 313 197 313 197 313 193 c 0
 313 189 313 188 340 188 c 0
 367 188 367 189 367 193 c 0x205201c0
 367 197 368 197 372 197 c 0
 376 197 376 198 376 202 c 0x205200a0
 376 206 376 206 380 206 c 0
 384 206 385 207 385 220 c 0
 385 233 385 233 394 233 c 0
 403 233 403 233 403 229 c 0x20520088
 403 225 403 224 412 224 c 0
 421 224 421 224 421 220 c 0
 421 216 421 215 425 215 c 0
 429 215 430 215 430 211 c 0
 430 207 430 206 434 206 c 0x20520090
 438 206 439 206 439 202 c 0
 439 198 439 197 448 197 c 0
 457 197 457 197 457 193 c 0
 457 189 457 188 461 188 c 0
 465 188 466 188 466 184 c 0
 466 180 466 179 470 179 c 0
 474 179 475 179 475 175 c 0
 475 171 475 171 484 171 c 0x100000a0
 493 171 493 170 493 166 c 0
 493 162 493 162 497 162 c 0x080000a0
 501 162 502 161 502 157 c 0
 502 153 502 153 506 153 c 0x040000a0
 510 153 511 152 511 148 c 0
 511 144 511 144 520 144 c 0x020000a0
 529 144 529 143 529 139 c 0
 529 135 529 135 533 135 c 0x010000a0
 537 135 538 134 538 130 c 0
 538 126 538 126 542 126 c 0
 546 126 547 125 547 121 c 0
 547 117 546 117 542 117 c 0x008000a0
 538 117 538 117 538 108 c 0
 538 99 537 99 533 99 c 0x010000a0
 529 99 529 98 529 94 c 0
 529 90 528 90 524 90 c 0x020000a0
 520 90 520 89 520 85 c 0
 520 81 519 81 515 81 c 0
 511 81 511 80 511 76 c 0
 511 72 510 72 506 72 c 0x040000a0
 502 72 502 71 502 67 c 0
 502 63 501 63 497 63 c 0x080000a0
 493 63 493 62 493 58 c 0
 493 54 492 54 488 54 c 0x100000a0
 484 54 484 53 484 49 c 0
 484 45 483 45 479 45 c 0
 475 45 475 44 475 40 c 0
 475 36 475 36 466 36 c 0
 457 36 457 35 457 31 c 0
 457 27 457 27 448 27 c 0
 439 27 439 26 439 22 c 0
 439 18 438 18 425 18 c 0x200000a0
 412 18 412 17 412 13 c 0
 412 9 412 9 385 9 c 0
 358 9 358 8 358 4 c 0
 358 0 358 0 340 0 c 0x80000088
 322 0 322 0 322 4 c 0
 322 8 322 9 295 9 c 0
 268 9 268 9 268 13 c 0
 268 17 268 18 255 18 c 0x20000088
 242 18 241 18 241 22 c 0
 241 26 241 27 232 27 c 0
 223 27 223 27 223 31 c 0
 223 35 223 36 214 36 c 0
 205 36 205 36 205 40 c 0
 205 44 205 45 201 45 c 0
 197 45 197 45 197 49 c 0
 197 53 197 54 188 54 c 0x10000088
 179 54 179 54 179 58 c 0
 179 62 178 63 174 63 c 0x08000088
 170 63 170 63 170 67 c 0
 170 71 169 72 165 72 c 0x04000088
 161 72 161 72 161 81 c 0
 161 90 160 90 156 90 c 0x02000088
 152 90 152 90 152 94 c 0
 152 98 151 99 147 99 c 0x01000088
 143 99 143 99 143 108 c 0
 143 117 142 117 138 117 c 0
 134 117 134 117 134 121 c 0
 134 125 133 126 129 126 c 0x00800088
 125 126 125 126 125 139 c 0
 125 152 124 153 120 153 c 0
 116 153 116 153 116 166 c 0
 116 179 115 179 111 179 c 0
 107 179 107 179 107 197 c 0x04000188
 107 215 106 215 102 215 c 0
 98 215 98 216 98 247 c 0
 98 278 98 278 62 278 c 0x04400280
 26 278 26 278 26 305 c 0
 26 332 26 332 30 332 c 0x00200280
 34 332 35 333 35 337 c 0
 35 341 35 341 66 341 c 0
 97 341 98 341 98 363 c 0
 98 385 98 386 62 386 c 0x00500280
 26 386 26 386 26 413 c 0
 26 440 26 440 30 440 c 0x00080280
 34 440 35 440 35 444 c 0
 35 448 35 449 66 449 c 0
 97 449 98 449 98 476 c 0x00100280
 98 503 98 503 102 503 c 0
 106 503 107 503 107 521 c 0
 107 539 107 538 111 538 c 0
 115 538 116 539 116 552 c 0
 116 565 116 565 120 565 c 0x00104180
 124 565 125 565 125 574 c 0x00002180
 125 583 125 583 129 583 c 0x00001180
 133 583 134 583 134 592 c 0x00000980
 134 601 134 601 138 601 c 0
 142 601 143 601 143 610 c 0x00000580
 143 619 143 619 147 619 c 0x00000980
 151 619 152 620 152 624 c 0
 152 628 152 628 156 628 c 0x00001180
 160 628 161 629 161 633 c 0
 161 637 161 637 165 637 c 0x00002180
 169 637 170 638 170 642 c 0
 170 646 170 646 174 646 c 0
 178 646 179 647 179 651 c 0
 179 655 179 655 183 655 c 0x00004180
 187 655 188 656 188 660 c 0
 188 664 188 664 192 664 c 0x00008180
 196 664 197 665 197 669 c 0
 197 673 196 673 205 673 c 0x00010180
 214 673 214 674 214 678 c 0
 214 682 214 682 223 682 c 0
 232 682 232 683 232 687 c 0
 232 691 232 691 241 691 c 0
 250 691 250 692 250 696 c 0
 250 700 251 700 264 700 c 0
 277 700 277 700 277 704 c 0x00020180
EndSplineSet
EndChar

StartChar: exclam
Encoding: 33 33 46
Width: 308
Flags: W
HStem: 0 238<75.9993 230.001> 14 210<62.0355 150.739 155.261 244.001> 28 182<61.9099 104.005 201.995 257.964>
VStem: 48 210<27.9993 116.739 121.261 210.001> 62 196<27.9993 83.8485 154.151 210.001 281.969 700> 62 182<14.0355 69.9316 168.004 223.964 280 698.688>
LayerCount: 2
Fore
SplineSet
62 490 m 1x08
 62 700 l 1
 160 700 l 1
 258 700 l 1
 258 616 l 2x08
 258 532 258 532 251 532 c 0
 244 532 244 532 244 406 c 2
 244 280 l 1
 153 280 l 1
 62 280 l 1x04
 62 490 l 1x08
104 231 m 0
 104 238 104 238 153 238 c 0x88
 202 238 202 238 202 231 c 0
 202 224 202 224 216 224 c 0x48
 230 224 230 224 230 217 c 0
 230 210 230 210 237 210 c 0
 244 210 244 210 244 203 c 0x24
 244 196 244 196 251 196 c 0
 258 196 258 196 258 182 c 0
 258 168 258 168 265 168 c 0
 272 168 272 168 272 119 c 0
 272 70 272 70 265 70 c 0
 258 70 258 70 258 56 c 0x30
 258 42 258 42 251 42 c 0
 244 42 244 42 244 35 c 0
 244 28 244 28 237 28 c 0x24
 230 28 230 28 230 21 c 0
 230 14 230 14 216 14 c 0x44
 202 14 202 14 202 7 c 0
 202 0 202 0 153 0 c 0x84
 104 0 104 0 104 7 c 0
 104 14 104 14 90 14 c 0x44
 76 14 76 14 76 21 c 0
 76 28 76 28 69 28 c 0
 62 28 62 28 62 35 c 0x28
 62 42 62 42 55 42 c 0
 48 42 48 42 48 63 c 0
 48 84 48 84 41 84 c 0
 34 84 34 84 34 119 c 0
 34 154 34 154 41 154 c 0
 48 154 48 154 48 168 c 0x30
 48 182 48 182 55 182 c 0
 62 182 62 182 62 196 c 0
 62 210 62 210 69 210 c 0x28
 76 210 76 210 76 217 c 0
 76 224 76 224 90 224 c 0x48
 104 224 104 224 104 231 c 0
EndSplineSet
EndChar

StartChar: at
Encoding: 64 64 47
Width: 752
Flags: W
HStem: 0 84<263.999 572.001> 14 84<236.068 406.155 422.522 585.354> 28 84<222 305.831 515.99 599.932> 28 42<600 614> 42 98<193.999 235.328> 196 56<545.262 600> 210 70<571.999 614.09> 294 28<376.019 390> 406 140<348.034 431.018> 406 42<558.036 572> 532 112<165.91 194 600 628.09> 546 112<166.646 207.996 586.004 627.964> 574 98<193.999 235.996 558.004 600.001> 602 84<222 292.001 501.999 572> 616 84<236.004 347.863 446.137 557.996> 630 84<264.068 394.739 399.261 529.932> 644 84<291.999 502.001>
VStem: 26 98<238.001 461.665> 54 84<196.672 307.656 392.344 504.001> 68 98<167.999 223.996 490.672 545.996> 68 84<182.068 237.996> 82 112<140.004 181.328 531.999 574> 82 98<503.999 560.001> 96 112<125.999 168.001 546.004 587.996> 110 126<111.91 139.996 573.999 602.09> 208 126<322.716 392.001> 222 140<224.039 292.578 378.813 405.973> 306 42<196 210> 376 42<714.073 728> 418 126<252.937 384.031> 432 126<268.584 299.385 302.615 405.84> 572 28<98.0733 112> 586 98<545.999 588.001> 600 98<532.672 573.996> 600 84<265.91 308.001> 614 84<266.036 336.002> 628 84<279.999 376.054 450.688 546.001> 656 70<335.999 504.001>
LayerCount: 2
Fore
SplineSet
376 721 m 0x01010048
 376 728 376 728 397 728 c 0x01008048
 418 728 418 728 418 721 c 0
 418 714 418 714 460 714 c 0x01010048
 502 714 502 714 502 707 c 0
 502 700 502 700 523 700 c 0
 544 700 544 700 544 693 c 0x01020004
 544 686 544 686 558 686 c 0
 572 686 572 686 572 679 c 0x01040003
 572 672 572 672 586 672 c 0x0108000080
 600 672 600 672 600 665 c 0
 600 658 600 658 607 658 c 0x0110000020
 614 658 614 658 614 651 c 0
 614 644 614 644 621 644 c 0x0120000010
 628 644 628 644 628 637 c 0
 628 630 628 630 635 630 c 0x0101000008
 642 630 642 630 642 623 c 0
 642 616 642 616 649 616 c 0x0102000008
 656 616 656 616 656 609 c 0
 656 602 656 602 663 602 c 0x0104000004
 670 602 670 602 670 595 c 0
 670 588 670 588 677 588 c 0
 684 588 684 588 684 574 c 0x0108000080
 684 560 684 560 691 560 c 0
 698 560 698 560 698 553 c 0x0108000040
 698 546 698 546 705 546 c 0
 712 546 712 546 712 525 c 0x0110000008
 712 504 712 504 719 504 c 0
 726 504 726 504 726 420 c 0x0110000004
 726 336 726 336 719 336 c 0
 712 336 712 336 712 322 c 0x0110000008
 712 308 712 308 705 308 c 0
 698 308 698 308 698 294 c 0x0110000010
 698 280 698 280 691 280 c 0
 684 280 684 280 684 273 c 0x0310000020
 684 266 684 266 677 266 c 0
 670 266 670 266 670 252 c 0
 670 238 670 238 656 238 c 0x0500000004
 642 238 642 238 642 231 c 0
 642 224 642 224 635 224 c 0
 628 224 628 224 628 217 c 0x0500000008
 628 210 628 210 614 210 c 0x0300000010
 600 210 600 210 600 203 c 0
 600 196 600 196 579 196 c 0
 558 196 558 196 558 189 c 0
 558 182 558 182 516 182 c 0
 474 182 474 182 474 189 c 0
 474 196 474 196 460 196 c 0x0500000220
 446 196 446 196 446 203 c 0
 446 210 446 210 432 210 c 0x0300000220
 418 210 418 210 418 266 c 0x03000004
 418 322 418 322 425 322 c 0
 432 322 432 322 432 364 c 0
 432 406 432 406 397 406 c 0
 362 406 362 406 362 399 c 0x03800022
 362 392 362 392 355 392 c 0
 348 392 348 392 348 385 c 0x03800010
 348 378 348 378 341 378 c 0
 334 378 334 378 334 357 c 0x03800040
 334 336 334 336 341 336 c 0
 348 336 348 336 348 329 c 0x03800010
 348 322 348 322 369 322 c 0
 390 322 390 322 390 308 c 0
 390 294 390 294 383 294 c 0
 376 294 376 294 376 273 c 0
 376 252 376 252 369 252 c 0
 362 252 362 252 362 238 c 0x05800028
 362 224 362 224 355 224 c 0
 348 224 348 224 348 210 c 0x03000010
 348 196 348 196 327 196 c 0x05000010
 306 196 306 196 306 203 c 0
 306 210 306 210 285 210 c 0
 264 210 264 210 264 217 c 0
 264 224 264 224 250 224 c 0
 236 224 236 224 236 231 c 0x03000090
 236 238 236 238 229 238 c 0
 222 238 222 238 222 252 c 0x05000020
 222 266 222 266 215 266 c 0
 208 266 208 266 208 329 c 0x05000040
 208 392 208 392 215 392 c 0
 222 392 222 392 222 406 c 0x05400020
 222 420 222 420 229 420 c 0
 236 420 236 420 236 434 c 0
 236 448 236 448 243 448 c 0
 250 448 250 448 250 455 c 0
 250 462 250 462 257 462 c 0
 264 462 264 462 264 469 c 0
 264 476 264 476 271 476 c 0
 278 476 278 476 278 483 c 0
 278 490 278 490 285 490 c 0
 292 490 292 490 292 497 c 0
 292 504 292 504 299 504 c 0
 306 504 306 504 306 511 c 0x05400090
 306 518 306 518 320 518 c 0
 334 518 334 518 334 525 c 0
 334 532 334 532 355 532 c 0
 376 532 376 532 376 539 c 0x05600048
 376 546 376 546 418 546 c 0x01800004
 460 546 460 546 460 539 c 0
 460 532 460 532 481 532 c 0
 502 532 502 532 502 525 c 0
 502 518 502 518 516 518 c 0
 530 518 530 518 530 511 c 0
 530 504 530 504 537 504 c 0
 544 504 544 504 544 497 c 0x01200004
 544 490 544 490 551 490 c 0
 558 490 558 490 558 469 c 0
 558 448 558 448 565 448 c 0
 572 448 572 448 572 427 c 0
 572 406 572 406 565 406 c 0
 558 406 558 406 558 371 c 0x01600003
 558 336 558 336 551 336 c 0
 544 336 544 336 544 301 c 0x01600004
 544 266 544 266 551 266 c 0
 558 266 558 266 558 259 c 0
 558 252 558 252 565 252 c 0
 572 252 572 252 572 259 c 0x05600003
 572 266 572 266 586 266 c 0x0560000080
 600 266 600 266 600 273 c 0x0560000020
 600 280 600 280 607 280 c 0
 614 280 614 280 614 294 c 0x0300000010
 614 308 614 308 621 308 c 0
 628 308 628 308 628 322 c 0x0300000008
 628 336 628 336 635 336 c 0
 642 336 642 336 642 357 c 0
 642 378 642 378 649 378 c 0
 656 378 656 378 656 413 c 0x0300000004
 656 448 656 448 649 448 c 0
 642 448 642 448 642 476 c 0
 642 504 642 504 635 504 c 0
 628 504 628 504 628 518 c 0x0340000008
 628 532 628 532 621 532 c 0
 614 532 614 532 614 539 c 0x0360000010
 614 546 614 546 607 546 c 0
 600 546 600 546 600 553 c 0x0110000040
 600 560 600 560 593 560 c 0
 586 560 586 560 586 567 c 0x0110000080
 586 574 586 574 579 574 c 0
 572 574 572 574 572 581 c 0
 572 588 572 588 565 588 c 0
 558 588 558 588 558 595 c 0x01080003
 558 602 558 602 544 602 c 0x01040004
 530 602 530 602 530 609 c 0
 530 616 530 616 516 616 c 0x01020004
 502 616 502 616 502 623 c 0
 502 630 502 630 474 630 c 0x01010004
 446 630 446 630 446 637 c 0
 446 644 446 644 397 644 c 0x01008004
 348 644 348 644 348 637 c 0
 348 630 348 630 320 630 c 0x01010014
 292 630 292 630 292 623 c 0
 292 616 292 616 278 616 c 0x01020014
 264 616 264 616 264 609 c 0
 264 602 264 602 250 602 c 0
 236 602 236 602 236 595 c 0x01040094
 236 588 236 588 229 588 c 0
 222 588 222 588 222 581 c 0
 222 574 222 574 215 574 c 0
 208 574 208 574 208 567 c 0x01080120
 208 560 208 560 201 560 c 0
 194 560 194 560 194 553 c 0x010804
 194 546 194 546 187 546 c 0
 180 546 180 546 180 539 c 0x011002
 180 532 180 532 173 532 c 0
 166 532 166 532 166 518 c 0x012010
 166 504 166 504 159 504 c 0
 152 504 152 504 152 497 c 0x012008
 152 490 152 490 145 490 c 0
 138 490 138 490 138 469 c 0x012020
 138 448 138 448 131 448 c 0
 124 448 124 448 124 350 c 0x016040
 124 252 124 252 131 252 c 0
 138 252 138 252 138 238 c 0x056020
 138 224 138 224 145 224 c 0
 152 224 152 224 152 210 c 0x030008
 152 196 152 196 159 196 c 0
 166 196 166 196 166 189 c 0x050010
 166 182 166 182 173 182 c 0
 180 182 180 182 180 175 c 0x050002
 180 168 180 168 187 168 c 0
 194 168 194 168 194 161 c 0x050004
 194 154 194 154 201 154 c 0
 208 154 208 154 208 147 c 0
 208 140 208 140 215 140 c 0
 222 140 222 140 222 133 c 0x0d000120
 222 126 222 126 229 126 c 0
 236 126 236 126 236 119 c 0
 236 112 236 112 250 112 c 0x21000080
 264 112 264 112 264 105 c 0
 264 98 264 98 285 98 c 0x41000080
 306 98 306 98 306 91 c 0
 306 84 306 84 411 84 c 0x81000090
 516 84 516 84 516 91 c 0
 516 98 516 98 544 98 c 0
 572 98 572 98 572 105 c 0x41000095
 572 112 572 112 586 112 c 0x2100000080
 600 112 600 112 600 91 c 0
 600 70 600 70 607 70 c 0x1100000020
 614 70 614 70 614 49 c 0
 614 28 614 28 593 28 c 0x2100000010
 572 28 572 28 572 21 c 0
 572 14 572 14 544 14 c 0x4100000510
 516 14 516 14 516 7 c 0
 516 0 516 0 418 0 c 0x8100000510
 320 0 320 0 320 7 c 0
 320 14 320 14 292 14 c 0x4100000510
 264 14 264 14 264 21 c 0
 264 28 264 28 243 28 c 0
 222 28 222 28 222 35 c 0x2100002510
 222 42 222 42 208 42 c 0
 194 42 194 42 194 49 c 0x09000440
 194 56 194 56 187 56 c 0
 180 56 180 56 180 63 c 0x090002
 180 70 180 70 166 70 c 0x110010
 152 70 152 70 152 77 c 0x110008
 152 84 152 84 145 84 c 0
 138 84 138 84 138 91 c 0x810020
 138 98 138 98 131 98 c 0
 124 98 124 98 124 105 c 0x410040
 124 112 124 112 117 112 c 0
 110 112 110 112 110 119 c 0x21000080
 110 126 110 126 103 126 c 0
 96 126 96 126 96 140 c 0x090001
 96 154 96 154 89 154 c 0
 82 154 82 154 82 161 c 0x090004
 82 168 82 168 75 168 c 0
 68 168 68 168 68 189 c 0x090010
 68 210 68 210 61 210 c 0
 54 210 54 210 54 224 c 0x0b0020
 54 238 54 238 47 238 c 0
 40 238 40 238 40 273 c 0
 40 308 40 308 33 308 c 0
 26 308 26 308 26 350 c 0x0b0040
 26 392 26 392 33 392 c 0
 40 392 40 392 40 427 c 0
 40 462 40 462 47 462 c 0
 54 462 54 462 54 483 c 0x0b0020
 54 504 54 504 61 504 c 0
 68 504 68 504 68 518 c 0
 68 532 68 532 75 532 c 0x0b2010
 82 532 82 532 82 546 c 0x011004
 82 560 82 560 89 560 c 0
 96 560 96 560 96 567 c 0x011001
 96 574 96 574 103 574 c 0
 110 574 110 574 110 588 c 0x01080080
 110 602 110 602 117 602 c 0
 124 602 124 602 124 609 c 0x010440
 124 616 124 616 131 616 c 0
 138 616 138 616 138 623 c 0x010220
 138 630 138 630 145 630 c 0
 152 630 152 630 152 637 c 0x010108
 152 644 152 644 166 644 c 0x012010
 180 644 180 644 180 651 c 0
 180 658 180 658 187 658 c 0x011002
 194 658 194 658 194 665 c 0
 194 672 194 672 208 672 c 0x01080440
 222 672 222 672 222 679 c 0x01080020
 222 686 222 686 236 686 c 0x01040080
 250 686 250 686 250 693 c 0
 250 700 250 700 271 700 c 0x01020080
 292 700 292 700 292 707 c 0
 292 714 292 714 334 714 c 0
 376 714 376 714 376 721 c 0x01010048
EndSplineSet
EndChar

StartChar: numbersign
Encoding: 35 35 48
Width: 626
Flags: W
HStem: 14 42<306 319.891> 196 126<40.5998 108.567 250.337 333.139 460.861 557.487> 210 112<460.861 557.973> 280 28<558.131 572> 406 126<68.8615 151.139 278.861 361.139 488.861 585.277> 630 70<292.059 305.76 502.059 515.76>
VStem: 96 112<14.9344 144.739> 110 112<57.9381 194.754> 138 112<322.451 398.677> 152 112<358.615 405.91> 166 112<532.469 629.828> 180 126<546.766 698.578> 306 112<14.4672 139.139> 320 112<35.9691 174.031> 334 112<56.8615 195.533> 348 112<322.183 376.708> 362 112<329.323 405.475> 376 112<532.469 629.828> 390 126<546.766 698.578>
LayerCount: 2
Fore
SplineSet
180 651 m 0xcc10
 180 700 180 700 243 700 c 0
 306 700 306 700 306 665 c 0xcc10
 306 630 306 630 299 630 c 0
 292 630 292 630 292 588 c 0
 292 546 292 546 285 546 c 0
 278 546 278 546 278 539 c 0
 278 532 278 532 327 532 c 0
 376 532 376 532 376 567 c 0xcc2040
 376 602 376 602 383 602 c 0
 390 602 390 602 390 651 c 0
 390 700 390 700 453 700 c 0
 516 700 516 700 516 665 c 0xcc0020
 516 630 516 630 509 630 c 0
 502 630 502 630 502 588 c 0
 502 546 502 546 495 546 c 0
 488 546 488 546 488 539 c 0xcc0040
 488 532 488 532 544 532 c 0
 600 532 600 532 600 504 c 0
 600 476 600 476 593 476 c 0
 586 476 586 476 586 448 c 0
 586 420 586 420 579 420 c 0
 572 420 572 420 572 413 c 0
 572 406 572 406 523 406 c 0
 474 406 474 406 474 371 c 0xcc0080
 474 336 474 336 467 336 c 0
 460 336 460 336 460 329 c 0
 460 322 460 322 509 322 c 0xcc01
 558 322 558 322 558 315 c 0
 558 308 558 308 565 308 c 0
 572 308 572 308 572 294 c 0
 572 280 572 280 565 280 c 0x9c01
 558 280 558 280 558 245 c 0
 558 210 558 210 551 210 c 0xac01
 544 210 544 210 544 203 c 0
 544 196 544 196 495 196 c 0
 446 196 446 196 446 168 c 0xcc02
 446 140 446 140 439 140 c 0
 432 140 432 140 432 91 c 0xcc04
 432 42 432 42 425 42 c 0
 418 42 418 42 418 28 c 0xcc08
 418 14 418 14 362 14 c 0xcc0080
 306 14 306 14 306 35 c 0xcc08
 306 56 306 56 313 56 c 0
 320 56 320 56 320 105 c 0xcc04
 320 154 320 154 327 154 c 0
 334 154 334 154 334 175 c 0
 334 196 334 196 278 196 c 0xcc22
 222 196 222 196 222 140 c 0xcd
 222 84 222 84 215 84 c 0
 208 84 208 84 208 49 c 0xce
 208 14 208 14 152 14 c 0xcc40
 96 14 96 14 96 56 c 0xce
 96 98 96 98 103 98 c 0
 110 98 110 98 110 147 c 0
 110 196 110 196 68 196 c 0xcd
 26 196 26 196 26 245 c 0
 26 294 26 294 33 294 c 0
 40 294 40 294 40 308 c 0x9d
 40 322 40 322 89 322 c 0
 138 322 138 322 138 357 c 0xcc80
 138 392 138 392 145 392 c 0
 152 392 152 392 152 399 c 0xcc40
 152 406 152 406 103 406 c 0
 54 406 54 406 54 448 c 0
 54 490 54 490 61 490 c 0
 68 490 68 490 68 511 c 0
 68 532 68 532 117 532 c 0
 166 532 166 532 166 567 c 0xcc20
 166 602 166 602 173 602 c 0
 180 602 180 602 180 651 c 0xcc10
362 378 m 0xcc0080
 362 406 362 406 313 406 c 0
 264 406 264 406 264 399 c 0xcc4080
 264 392 264 392 257 392 c 0
 250 392 250 392 250 357 c 0
 250 322 250 322 299 322 c 0
 348 322 348 322 348 336 c 0xcc81
 348 350 348 350 355 350 c 0
 362 350 362 350 362 378 c 0xcc0080
EndSplineSet
EndChar

StartChar: dollar
Encoding: 36 36 49
Width: 419
Flags: W
HStem: 532 182<321.766 383.677>
VStem: 125 252<224.205 278.062 281.938 349.996 645.338 713.997> 125 196<-67.184 14.0901 715.874 781.653> 377 14<518 531.474>
LayerCount: 2
Fore
SplineSet
125 728 m 2xa0
 125 784 l 1
 223 784 l 2
 321 784 321 784 321 749 c 0xa0
 321 714 321 714 349 714 c 0
 377 714 377 714 377 707 c 0xc0
 377 700 377 700 384 700 c 0
 391 700 391 700 391 609 c 0
 391 518 391 518 384 518 c 0
 377 518 377 518 377 525 c 0
 377 532 377 532 342 532 c 0
 307 532 307 532 307 525 c 0
 307 518 307 518 300 518 c 0
 293 518 293 518 293 511 c 0
 293 504 293 504 286 504 c 0
 279 504 279 504 279 490 c 0
 279 476 279 476 286 476 c 0
 293 476 293 476 293 455 c 0
 293 434 293 434 300 434 c 0
 307 434 307 434 307 427 c 0
 307 420 307 420 314 420 c 0
 321 420 321 420 321 406 c 0xb0
 321 392 321 392 328 392 c 0
 335 392 335 392 335 378 c 0
 335 364 335 364 342 364 c 0
 349 364 349 364 349 357 c 0
 349 350 349 350 356 350 c 0
 363 350 363 350 363 329 c 0
 363 308 363 308 370 308 c 0
 377 308 377 308 377 245 c 0xc0
 377 182 377 182 370 182 c 0
 363 182 363 182 363 168 c 0
 363 154 363 154 356 154 c 0
 349 154 349 154 349 140 c 0
 349 126 349 126 342 126 c 0
 335 126 335 126 335 119 c 0
 335 112 335 112 328 112 c 0
 321 112 321 112 321 21 c 2
 321 -70 l 1
 223 -70 l 2
 125 -70 125 -70 125 -28 c 0xa0
 125 14 125 14 111 14 c 0
 97 14 97 14 97 21 c 0
 97 28 97 28 76 28 c 0
 55 28 55 28 55 35 c 0
 55 42 55 42 41 42 c 0
 27 42 27 42 27 133 c 0
 27 224 27 224 76 224 c 0
 125 224 125 224 125 231 c 0
 125 238 125 238 132 238 c 0
 139 238 139 238 139 280 c 0
 139 322 139 322 132 322 c 0
 125 322 125 322 125 329 c 0xc0
 125 336 125 336 118 336 c 0
 111 336 111 336 111 350 c 0
 111 364 111 364 104 364 c 0
 97 364 97 364 97 371 c 0
 97 378 97 378 90 378 c 0
 83 378 83 378 83 392 c 0
 83 406 83 406 76 406 c 0
 69 406 69 406 69 427 c 0
 69 448 69 448 62 448 c 0
 55 448 55 448 55 511 c 0
 55 574 55 574 62 574 c 0
 69 574 69 574 69 588 c 0
 69 602 69 602 76 602 c 0
 83 602 83 602 83 616 c 0
 83 630 83 630 90 630 c 0
 97 630 97 630 97 637 c 0
 97 644 97 644 104 644 c 0
 111 644 111 644 111 658 c 0
 111 672 111 672 118 672 c 0
 125 672 125 672 125 728 c 2xa0
EndSplineSet
EndChar

StartChar: percent
Encoding: 37 37 50
Width: 892
Flags: W
HStem: 0 112<628.034 739.88> 14 112<306 319.831 614 675.385 678.615 739.831> 14 42<278 292.059> 168 42<852.006 866> 252 112<614.169 675.385 678.615 739.831> 266 112<628.004 739.88> 350 112<152.084 263.966> 364 112<138.733 213.385 216.615 277.959> 602 112<138.733 207.354 208.646 213.385 216.615 277.963> 616 112<152.084 263.916> 616 98<208.646 263.831> 686 14<600.073 614>
VStem: 26 112<476.052 601.948> 40 112<476.068 536.739 541.261 601.932> 194 42<350 363.994> 194 28<714.073 728> 250 126<462.027 489.187 588.813 615.973> 278 56<14.0115 69.9958> 292 98<490.128 587.872> 292 56<35.9691 111.932> 306 56<56.0042 139.996> 320 56<84.0684 182.001> 334 56<126.004 209.932> 348 56<154.068 237.996> 362 56<181.999 279.932> 376 56<224.004 307.996> 390 56<252.068 349.932> 404 56<294.004 377.996> 418 56<322.068 419.932> 432 56<364.004 447.996> 446 56<392.068 489.932> 460 56<434.004 517.996> 474 56<462.068 559.932> 488 56<504.004 587.996> 502 98<140.128 237.872> 502 56<532.068 630.001> 516 126<112.027 139.187 238.813 265.973> 516 56<574.004 657.932> 530 56<602.068 685.996> 544 56<629.999 692.677> 656 42<2.67029e-05 13.9942 364.006 378> 740 112<126.169 187.385 190.615 251.831> 754 112<126.12 251.88>
LayerCount: 2
Fore
SplineSet
194 721 m 0x108900000080
 194 728 194 728 208 728 c 0x104900000080
 222 728 222 728 222 721 c 0
 222 714 222 714 250 714 c 0x108980000080
 278 714 278 714 278 707 c 0x108040000080
 278 700 278 700 292 700 c 0x101010000080
 306 700 306 700 306 693 c 0x101008000080
 306 686 306 686 313 686 c 0
 320 686 320 686 320 679 c 0x101004000080
 320 672 320 672 334 672 c 0x101002000080
 348 672 348 672 348 658 c 0x101001000080
 348 644 348 644 355 644 c 0
 362 644 362 644 362 637 c 0x101000800080
 362 630 362 630 369 630 c 0
 376 630 376 630 376 616 c 0x102000400080
 376 602 376 602 383 602 c 0
 390 602 390 602 390 539 c 0
 390 476 390 476 383 476 c 0x118020000080
 376 476 376 476 376 462 c 0x120000400080
 376 448 376 448 369 448 c 0
 362 448 362 448 362 441 c 0x120000800080
 362 434 362 434 355 434 c 0
 348 434 348 434 348 420 c 0x120001000080
 348 406 348 406 341 406 c 0
 334 406 334 406 334 399 c 0x120002000080
 334 392 334 392 320 392 c 0x120004000080
 306 392 306 392 306 385 c 0x120008000080
 306 378 306 378 292 378 c 0x140010000080
 278 378 278 378 278 371 c 0
 278 364 278 364 257 364 c 0x110040000080
 236 364 236 364 236 357 c 0
 236 350 236 350 215 350 c 0x120240000080
 194 350 194 350 194 357 c 0
 194 364 194 364 166 364 c 0x110240000080
 138 364 138 364 138 371 c 0
 138 378 138 378 124 378 c 0x140a40000080
 110 378 110 378 110 385 c 0
 110 392 110 392 103 392 c 0
 96 392 96 392 96 399 c 0
 96 406 96 406 89 406 c 0
 82 406 82 406 82 413 c 0
 82 420 82 420 75 420 c 0
 68 420 68 420 68 427 c 0
 68 434 68 434 61 434 c 0
 54 434 54 434 54 448 c 0
 54 462 54 462 47 462 c 0
 40 462 40 462 40 483 c 0x120400000080
 40 504 40 504 33 504 c 0
 26 504 26 504 26 539 c 0x120800000080
 26 574 26 574 33 574 c 0
 40 574 40 574 40 595 c 0
 40 616 40 616 47 616 c 0x122400000080
 54 616 54 616 54 630 c 0
 54 644 54 644 61 644 c 0
 68 644 68 644 68 651 c 0
 68 658 68 658 75 658 c 0
 82 658 82 658 82 665 c 0
 82 672 82 672 89 672 c 0
 96 672 96 672 96 679 c 0
 96 686 96 686 103 686 c 0
 110 686 110 686 110 693 c 0
 110 700 110 700 124 700 c 0x101400000080
 138 700 138 700 138 707 c 0
 138 714 138 714 166 714 c 0
 194 714 194 714 194 721 c 0x108900000080
250 609 m 0x118080000080
 250 616 250 616 215 616 c 0x104080000080
 180 616 180 616 180 609 c 0
 180 602 180 602 166 602 c 0
 152 602 152 602 152 595 c 0x108480000080
 152 588 152 588 145 588 c 0
 138 588 138 588 138 539 c 0x108800000080
 138 490 138 490 145 490 c 0
 152 490 152 490 152 483 c 0
 152 476 152 476 166 476 c 0x118400000080
 180 476 180 476 180 469 c 0
 180 462 180 462 215 462 c 0
 250 462 250 462 250 469 c 0x120480000080
 250 476 250 476 257 476 c 0
 264 476 264 476 264 483 c 0
 264 490 264 490 271 490 c 0
 278 490 278 490 278 504 c 0x110040000080
 278 518 278 518 285 518 c 0
 292 518 292 518 292 539 c 0x110020000080
 292 560 292 560 285 560 c 0
 278 560 278 560 278 574 c 0x110040000080
 278 588 278 588 271 588 c 0
 264 588 264 588 264 595 c 0
 264 602 264 602 257 602 c 0
 250 602 250 602 250 609 c 0x118080000080
544 686 m 0x101000000180
 544 700 544 700 579 700 c 0
 614 700 614 700 614 693 c 0
 614 686 614 686 607 686 c 0
 600 686 600 686 600 672 c 0x101000000180
 600 658 600 658 593 658 c 0
 586 658 586 658 586 644 c 0x101000000280
 586 630 586 630 579 630 c 0
 572 630 572 630 572 609 c 0x101000000480
 572 588 572 588 565 588 c 0
 558 588 558 588 558 574 c 0x101000001080
 558 560 558 560 551 560 c 0
 544 560 544 560 544 539 c 0x101000004080
 544 518 544 518 537 518 c 0
 530 518 530 518 530 504 c 0x101000008080
 530 490 530 490 523 490 c 0
 516 490 516 490 516 469 c 0x101000010080
 516 448 516 448 509 448 c 0
 502 448 502 448 502 434 c 0x101000020080
 502 420 502 420 495 420 c 0
 488 420 488 420 488 399 c 0
 488 378 488 378 481 378 c 0x141000040080
 474 378 474 378 474 364 c 0x110000080080
 474 350 474 350 467 350 c 0
 460 350 460 350 460 329 c 0x120000100080
 460 308 460 308 453 308 c 0
 446 308 446 308 446 294 c 0x120000200080
 446 280 446 280 439 280 c 0
 432 280 432 280 432 259 c 0x120000400080
 432 238 432 238 425 238 c 0
 418 238 418 238 418 224 c 0x120000800080
 418 210 418 210 411 210 c 0
 404 210 404 210 404 196 c 0x120001000080
 404 182 404 182 397 182 c 0
 390 182 390 182 390 161 c 0x120002000080
 390 140 390 140 383 140 c 0
 376 140 376 140 376 126 c 0x520004000080
 376 112 376 112 369 112 c 0
 362 112 362 112 362 91 c 0x900008000080
 362 70 362 70 355 70 c 0
 348 70 348 70 348 56 c 0x300010000080
 348 42 348 42 341 42 c 0
 334 42 334 42 334 28 c 0x300040000080
 334 14 334 14 306 14 c 0x500008000080
 278 14 278 14 278 35 c 0x500040000080
 278 56 278 56 285 56 c 0
 292 56 292 56 292 70 c 0x300010000080
 292 84 292 84 299 84 c 0
 306 84 306 84 306 105 c 0x300008000080
 306 126 306 126 313 126 c 0
 320 126 320 126 320 140 c 0x500004000080
 320 154 320 154 327 154 c 0
 334 154 334 154 334 168 c 0x500002000080
 334 182 334 182 341 182 c 0
 348 182 348 182 348 203 c 0x500001000080
 348 224 348 224 355 224 c 0
 362 224 362 224 362 238 c 0x500000800080
 362 252 362 252 369 252 c 0
 376 252 376 252 376 273 c 0x580000400080
 376 294 376 294 383 294 c 0
 390 294 390 294 390 308 c 0x580000200080
 390 322 390 322 397 322 c 0
 404 322 404 322 404 343 c 0
 404 364 404 364 411 364 c 0x110000100080
 418 364 418 364 418 378 c 0x140000080080
 418 392 418 392 425 392 c 0
 432 392 432 392 432 413 c 0x140000040080
 432 434 432 434 439 434 c 0
 446 434 446 434 446 448 c 0x140000020080
 446 462 446 462 453 462 c 0
 460 462 460 462 460 483 c 0x120000010080
 460 504 460 504 467 504 c 0
 474 504 474 504 474 518 c 0x120000008080
 474 532 474 532 481 532 c 0
 488 532 488 532 488 553 c 0x120000004080
 488 574 488 574 495 574 c 0
 502 574 502 574 502 588 c 0
 502 602 502 602 509 602 c 0x128000001080
 516 602 516 602 516 616 c 0x102000000480
 516 630 516 630 523 630 c 0
 530 630 530 630 530 651 c 0x102000000280
 530 672 530 672 537 672 c 0
 544 672 544 672 544 686 c 0x101000000180
656 371 m 0
 656 378 656 378 677 378 c 0x140000000180
 698 378 698 378 698 371 c 0
 698 364 698 364 726 364 c 0x180000000180
 754 364 754 364 754 357 c 0
 754 350 754 350 768 350 c 0x1200000001a0
 782 350 782 350 782 343 c 0
 782 336 782 336 789 336 c 0
 796 336 796 336 796 329 c 0
 796 322 796 322 803 322 c 0
 810 322 810 322 810 315 c 0
 810 308 810 308 817 308 c 0
 824 308 824 308 824 301 c 0
 824 294 824 294 831 294 c 0
 838 294 838 294 838 280 c 0
 838 266 838 266 845 266 c 0
 852 266 852 266 852 238 c 0x1400000000c0
 852 210 852 210 859 210 c 0
 866 210 866 210 866 189 c 0x1400000000a0
 866 168 866 168 859 168 c 0
 852 168 852 168 852 140 c 0
 852 112 852 112 845 112 c 0x9400000000c0
 838 112 838 112 838 98 c 0
 838 84 838 84 831 84 c 0
 824 84 824 84 824 77 c 0
 824 70 824 70 817 70 c 0
 810 70 810 70 810 63 c 0
 810 56 810 56 803 56 c 0x3000000000c0
 796 56 796 56 796 49 c 0
 796 42 796 42 789 42 c 0
 782 42 782 42 782 35 c 0
 782 28 782 28 768 28 c 0
 754 28 754 28 754 21 c 0
 754 14 754 14 726 14 c 0x5000000000a0
 698 14 698 14 698 7 c 0
 698 0 698 0 677 0 c 0x9000000000a0
 656 0 656 0 656 7 c 0
 656 14 656 14 635 14 c 0
 614 14 614 14 614 21 c 0
 614 28 614 28 600 28 c 0x5000000001a0
 586 28 586 28 586 35 c 0x500000000280
 586 42 586 42 572 42 c 0x500000000480
 558 42 558 42 558 49 c 0x500000001080
 558 56 558 56 551 56 c 0
 544 56 544 56 544 63 c 0x300000000180
 544 70 544 70 537 70 c 0
 530 70 530 70 530 84 c 0x300000000280
 530 98 530 98 523 98 c 0
 516 98 516 98 516 112 c 0x900000000480
 516 126 516 126 509 126 c 0
 502 126 502 126 502 189 c 0
 502 252 502 252 509 252 c 0x580000002080
 516 252 516 252 516 266 c 0x140000000480
 516 280 516 280 523 280 c 0
 530 280 530 280 530 294 c 0x140000000280
 530 308 530 308 537 308 c 0
 544 308 544 308 544 315 c 0x140000000180
 544 322 544 322 551 322 c 0
 558 322 558 322 558 329 c 0x140000001080
 558 336 558 336 572 336 c 0x140000000480
 586 336 586 336 586 343 c 0
 586 350 586 350 593 350 c 0x120000000280
 600 350 600 350 600 357 c 0
 600 364 600 364 628 364 c 0x180000000180
 656 364 656 364 656 371 c 0
712 259 m 0
 712 266 712 266 677 266 c 0
 642 266 642 266 642 259 c 0x1400000008c0
 642 252 642 252 635 252 c 0
 628 252 628 252 628 245 c 0
 628 238 628 238 621 238 c 0
 614 238 614 238 614 231 c 0
 614 224 614 224 607 224 c 0
 600 224 600 224 600 189 c 0
 600 154 600 154 607 154 c 0
 614 154 614 154 614 147 c 0
 614 140 614 140 621 140 c 0
 628 140 628 140 628 133 c 0
 628 126 628 126 635 126 c 0x580000002080
 642 126 642 126 642 119 c 0
 642 112 642 112 677 112 c 0x900000000880
 712 112 712 112 712 119 c 0
 712 126 712 126 726 126 c 0
 740 126 740 126 740 140 c 0x5000000008c0
 740 154 740 154 747 154 c 0
 754 154 754 154 754 189 c 0x5000000000a0
 754 224 754 224 747 224 c 0
 740 224 740 224 740 238 c 0
 740 252 740 252 726 252 c 0x5800000000c0
 712 252 712 252 712 259 c 0
EndSplineSet
EndChar

StartChar: asciicircum
Encoding: 94 94 51
Width: 630
Flags: W
HStem: 378 42<70.0003 84.0587 531.941 546.059>
VStem: 112 154<448.004 531.996> 126 154<476.004 559.996> 336 154<490.004 573.932> 350 154<448.068 531.996> 364 154<420.004 503.996> 378 154<392.004 475.932>
LayerCount: 2
Fore
SplineSet
210 707 m 0xa0
 210 714 210 714 315 714 c 0
 420 714 420 714 420 700 c 0
 420 686 420 686 427 686 c 0
 434 686 434 686 434 665 c 0
 434 644 434 644 441 644 c 0
 448 644 448 644 448 630 c 0
 448 616 448 616 455 616 c 0
 462 616 462 616 462 602 c 0
 462 588 462 588 469 588 c 0
 476 588 476 588 476 567 c 0
 476 546 476 546 483 546 c 0
 490 546 490 546 490 532 c 0xb0
 490 518 490 518 497 518 c 0
 504 518 504 518 504 504 c 0x88
 504 490 504 490 511 490 c 0
 518 490 518 490 518 469 c 0x84
 518 448 518 448 525 448 c 0
 532 448 532 448 532 434 c 0
 532 420 532 420 539 420 c 0
 546 420 546 420 546 406 c 0
 546 392 546 392 553 392 c 0
 560 392 560 392 560 385 c 0
 560 378 560 378 476 378 c 0
 392 378 392 378 392 392 c 0
 392 406 392 406 385 406 c 0
 378 406 378 406 378 420 c 0x82
 378 434 378 434 371 434 c 0
 364 434 364 434 364 455 c 0x84
 364 476 364 476 357 476 c 0
 350 476 350 476 350 490 c 0x88
 350 504 350 504 343 504 c 0
 336 504 336 504 336 518 c 0
 336 532 336 532 329 532 c 0
 322 532 322 532 322 553 c 0
 322 574 322 574 315 574 c 0
 308 574 308 574 308 567 c 0
 308 560 308 560 301 560 c 0
 294 560 294 560 294 546 c 0
 294 532 294 532 287 532 c 0
 280 532 280 532 280 511 c 0xb0
 280 490 280 490 273 490 c 0
 266 490 266 490 266 476 c 0
 266 462 266 462 259 462 c 0
 252 462 252 462 252 448 c 0
 252 434 252 434 245 434 c 0
 238 434 238 434 238 413 c 0
 238 392 238 392 231 392 c 0
 224 392 224 392 224 385 c 0
 224 378 224 378 147 378 c 0
 70 378 70 378 70 399 c 0
 70 420 70 420 77 420 c 0
 84 420 84 420 84 434 c 0
 84 448 84 448 91 448 c 0
 98 448 98 448 98 462 c 0
 98 476 98 476 105 476 c 0
 112 476 112 476 112 497 c 0xc0
 112 518 112 518 119 518 c 0
 126 518 126 518 126 532 c 0
 126 546 126 546 133 546 c 0
 140 546 140 546 140 560 c 0
 140 574 140 574 147 574 c 0
 154 574 154 574 154 588 c 0
 154 602 154 602 161 602 c 0
 168 602 168 602 168 623 c 0
 168 644 168 644 175 644 c 0
 182 644 182 644 182 658 c 0
 182 672 182 672 189 672 c 0
 196 672 196 672 196 686 c 0
 196 700 196 700 203 700 c 0
 210 700 210 700 210 707 c 0xa0
EndSplineSet
EndChar

StartChar: ampersand
Encoding: 38 38 52
Width: 598
Flags: W
HStem: 0 168<208.128 277.897> 28 308<348.041 476.801> 518 42<460 474>
VStem: 26 168<181.999 265.676> 68 182<476.336 545.611> 250 42<714.006 728>
LayerCount: 2
Fore
SplineSet
250 721 m 0x74
 250 728 250 728 271 728 c 0
 292 728 292 728 292 721 c 0x74
 292 714 292 714 320 714 c 0
 348 714 348 714 348 707 c 0
 348 700 348 700 362 700 c 0
 376 700 376 700 376 693 c 0
 376 686 376 686 383 686 c 0
 390 686 390 686 390 679 c 0
 390 672 390 672 397 672 c 0
 404 672 404 672 404 665 c 0
 404 658 404 658 411 658 c 0
 418 658 418 658 418 651 c 0
 418 644 418 644 425 644 c 0
 432 644 432 644 432 637 c 0
 432 630 432 630 439 630 c 0
 446 630 446 630 446 616 c 0
 446 602 446 602 453 602 c 0
 460 602 460 602 460 581 c 0
 460 560 460 560 467 560 c 0
 474 560 474 560 474 539 c 0
 474 518 474 518 467 518 c 0
 460 518 460 518 460 511 c 0
 460 504 460 504 390 504 c 0
 320 504 320 504 320 511 c 0
 320 518 320 518 313 518 c 0
 306 518 306 518 306 532 c 0
 306 546 306 546 278 546 c 0
 250 546 250 546 250 518 c 0x68
 250 490 250 490 257 490 c 0
 264 490 264 490 264 483 c 0
 264 476 264 476 271 476 c 0
 278 476 278 476 278 469 c 0
 278 462 278 462 285 462 c 0
 292 462 292 462 292 448 c 0
 292 434 292 434 299 434 c 0
 306 434 306 434 306 427 c 0
 306 420 306 420 313 420 c 0
 320 420 320 420 320 406 c 0
 320 392 320 392 327 392 c 0
 334 392 334 392 334 385 c 0
 334 378 334 378 341 378 c 0
 348 378 348 378 348 364 c 0
 348 350 348 350 355 350 c 0
 362 350 362 350 362 343 c 0
 362 336 362 336 369 336 c 0x64
 376 336 376 336 376 329 c 0
 376 322 376 322 439 322 c 0
 502 322 502 322 502 315 c 0
 502 308 502 308 509 308 c 0
 516 308 516 308 516 273 c 0
 516 238 516 238 509 238 c 0
 502 238 502 238 502 217 c 0
 502 196 502 196 495 196 c 0
 488 196 488 196 488 168 c 0xa4
 488 140 488 140 495 140 c 0
 502 140 502 140 502 133 c 0
 502 126 502 126 509 126 c 0
 516 126 516 126 516 112 c 0
 516 98 516 98 523 98 c 0
 530 98 530 98 530 91 c 0
 530 84 530 84 537 84 c 0
 544 84 544 84 544 70 c 0
 544 56 544 56 551 56 c 0
 558 56 558 56 558 49 c 0
 558 42 558 42 565 42 c 0
 572 42 572 42 572 28 c 0
 572 14 572 14 481 14 c 0
 390 14 390 14 390 21 c 0
 390 28 390 28 369 28 c 0x64
 348 28 348 28 348 21 c 0
 348 14 348 14 334 14 c 0
 320 14 320 14 320 7 c 0
 320 0 320 0 257 0 c 0
 194 0 194 0 194 7 c 0xb4
 194 14 194 14 173 14 c 0
 152 14 152 14 152 21 c 0
 152 28 152 28 145 28 c 0
 138 28 138 28 138 35 c 0
 138 42 138 42 124 42 c 0
 110 42 110 42 110 49 c 0
 110 56 110 56 103 56 c 0
 96 56 96 56 96 63 c 0
 96 70 96 70 89 70 c 0
 82 70 82 70 82 77 c 0
 82 84 82 84 75 84 c 0
 68 84 68 84 68 98 c 0x68
 68 112 68 112 61 112 c 0
 54 112 54 112 54 126 c 0
 54 140 54 140 47 140 c 0
 40 140 40 140 40 161 c 0
 40 182 40 182 33 182 c 0
 26 182 26 182 26 217 c 0x70
 26 252 26 252 33 252 c 0
 40 252 40 252 40 280 c 0
 40 308 40 308 47 308 c 0
 54 308 54 308 54 322 c 0
 54 336 54 336 61 336 c 0
 68 336 68 336 68 343 c 0
 68 350 68 350 75 350 c 0
 82 350 82 350 82 357 c 0
 82 364 82 364 89 364 c 0
 96 364 96 364 96 371 c 0
 96 378 96 378 103 378 c 0
 110 378 110 378 110 385 c 0
 110 392 110 392 117 392 c 0
 124 392 124 392 124 399 c 0
 124 406 124 406 117 406 c 0
 110 406 110 406 110 413 c 0
 110 420 110 420 103 420 c 0
 96 420 96 420 96 434 c 0
 96 448 96 448 89 448 c 0
 82 448 82 448 82 469 c 0
 82 490 82 490 75 490 c 0
 68 490 68 490 68 525 c 0x68
 68 560 68 560 75 560 c 0
 82 560 82 560 82 581 c 0
 82 602 82 602 89 602 c 0
 96 602 96 602 96 616 c 0
 96 630 96 630 103 630 c 0
 110 630 110 630 110 637 c 0
 110 644 110 644 117 644 c 0
 124 644 124 644 124 651 c 0
 124 658 124 658 131 658 c 0
 138 658 138 658 138 665 c 0
 138 672 138 672 145 672 c 0
 152 672 152 672 152 679 c 0
 152 686 152 686 159 686 c 0
 166 686 166 686 166 693 c 0
 166 700 166 700 180 700 c 0
 194 700 194 700 194 707 c 0
 194 714 194 714 222 714 c 0
 250 714 250 714 250 721 c 0x74
222 259 m 0
 222 266 222 266 215 266 c 0
 208 266 208 266 208 259 c 0
 208 252 208 252 201 252 c 0
 194 252 194 252 194 224 c 0
 194 196 194 196 201 196 c 0
 208 196 208 196 208 189 c 0
 208 182 208 182 215 182 c 0
 222 182 222 182 222 175 c 0
 222 168 222 168 243 168 c 0xb4
 264 168 264 168 264 175 c 0
 264 182 264 182 271 182 c 0
 278 182 278 182 278 189 c 0
 278 196 278 196 271 196 c 0
 264 196 264 196 264 203 c 0
 264 210 264 210 257 210 c 0
 250 210 250 210 250 224 c 0
 250 238 250 238 243 238 c 0
 236 238 236 238 236 245 c 0
 236 252 236 252 229 252 c 0
 222 252 222 252 222 259 c 0
EndSplineSet
EndChar

StartChar: asterisk
Encoding: 42 42 53
Width: 448
Flags: W
HStem: 420 14<98.0001 111.927> 532 84<98.6719 139.964 308 350.001> 546 70<308.328 363.996> 560 28<356.677 378> 574 56<70.0137 97.9316>
VStem: 70 42<616.006 630> 126 14<406 419.786> 224 28<700 714> 252 70<406.646 447.964> 294 14<392 405.927 616.214 630>
LayerCount: 2
Fore
SplineSet
224 707 m 0x8f
 224 714 224 714 238 714 c 0
 252 714 252 714 252 686 c 0
 252 658 252 658 259 658 c 0
 266 658 266 658 266 637 c 0
 266 616 266 616 280 616 c 0xa680
 294 616 294 616 294 623 c 0
 294 630 294 630 301 630 c 0x8e40
 308 630 308 630 308 623 c 0
 308 616 308 616 329 616 c 0xc640
 350 616 350 616 350 609 c 0
 350 602 350 602 357 602 c 0
 364 602 364 602 364 595 c 0
 364 588 364 588 371 588 c 0x9640
 378 588 378 588 378 574 c 0x8e40
 378 560 378 560 364 560 c 0x9640
 350 560 350 560 350 553 c 0
 350 546 350 546 343 546 c 0xa640
 336 546 336 546 336 539 c 0
 336 532 336 532 322 532 c 0xc680
 308 532 308 532 308 511 c 0xc640
 308 490 308 490 315 490 c 0
 322 490 322 490 322 455 c 0xc680
 322 420 322 420 315 420 c 0
 308 420 308 420 308 406 c 0
 308 392 308 392 301 392 c 0
 294 392 294 392 294 399 c 0xc640
 294 406 294 406 280 406 c 0
 266 406 266 406 266 413 c 0
 266 420 266 420 259 420 c 0
 252 420 252 420 252 427 c 0xc680
 252 434 252 434 245 434 c 0
 238 434 238 434 238 441 c 0
 238 448 238 448 224 448 c 0
 210 448 210 448 210 441 c 0
 210 434 210 434 196 434 c 0
 182 434 182 434 182 427 c 0
 182 420 182 420 161 420 c 0
 140 420 140 420 140 413 c 0
 140 406 140 406 133 406 c 0
 126 406 126 406 126 413 c 0
 126 420 126 420 112 420 c 0
 98 420 98 420 98 427 c 0
 98 434 98 434 105 434 c 0
 112 434 112 434 112 448 c 0
 112 462 112 462 119 462 c 0
 126 462 126 462 126 476 c 0
 126 490 126 490 133 490 c 0
 140 490 140 490 140 504 c 0
 140 518 140 518 133 518 c 0
 126 518 126 518 126 525 c 0
 126 532 126 532 119 532 c 0xc7
 112 532 112 532 112 539 c 0
 112 546 112 546 105 546 c 0xa7
 98 546 98 546 98 553 c 0
 98 560 98 560 91 560 c 0x97
 84 560 84 560 84 567 c 0
 84 574 84 574 77 574 c 0
 70 574 70 574 70 602 c 0
 70 630 70 630 91 630 c 0x8f
 112 630 112 630 112 623 c 0
 112 616 112 616 140 616 c 0xa7
 168 616 168 616 168 630 c 0
 168 644 168 644 175 644 c 0
 182 644 182 644 182 658 c 0
 182 672 182 672 189 672 c 0
 196 672 196 672 196 686 c 0
 196 700 196 700 210 700 c 0
 224 700 224 700 224 707 c 0x8f
EndSplineSet
EndChar

StartChar: parenleft
Encoding: 40 40 54
Width: 328
Flags: W
HStem: 672 28<274.019 288>
VStem: 36 168<98.3817 489.917> 50 168<56.0684 288.186 307.784 531.992> 64 168<14.0684 153.234 448.839 573.328> 78 154<490.649 602.001> 92 154<-42.0014 55.3281 532.008 630.001> 106 154<-70.0004 13.3281 574.068 657.932> 120 154<-83.9958 -14.0684 601.999 685.354> 148 140<-104.677 -69.9986 658.672 699.505>
LayerCount: 2
Fore
SplineSet
148 693 m 0x8080
 148 700 148 700 218 700 c 0xa0
 288 700 288 700 288 686 c 0x8080
 288 672 288 672 281 672 c 0
 274 672 274 672 274 651 c 0x81
 274 630 274 630 267 630 c 0
 260 630 260 630 260 616 c 0x82
 260 602 260 602 253 602 c 0
 246 602 246 602 246 581 c 0x84
 246 560 246 560 239 560 c 0
 232 560 232 560 232 532 c 0x90
 232 504 232 504 225 504 c 0
 218 504 218 504 218 476 c 0xa0
 218 448 218 448 211 448 c 0
 204 448 204 448 204 301 c 0xc0
 204 154 204 154 211 154 c 0
 218 154 218 154 218 119 c 0xa0
 218 84 218 84 225 84 c 0
 232 84 232 84 232 63 c 0x90
 232 42 232 42 239 42 c 0
 246 42 246 42 246 21 c 0x84
 246 0 246 0 253 0 c 0
 260 0 260 0 260 -21 c 0x82
 260 -42 260 -42 267 -42 c 0
 274 -42 274 -42 274 -56 c 0x81
 274 -70 274 -70 281 -70 c 0
 288 -70 288 -70 288 -84 c 0
 288 -98 288 -98 295 -98 c 0
 302 -98 302 -98 302 -105 c 0
 302 -112 302 -112 225 -112 c 0
 148 -112 148 -112 148 -98 c 0x8080
 148 -84 148 -84 141 -84 c 0
 134 -84 134 -84 134 -77 c 0
 134 -70 134 -70 127 -70 c 0
 120 -70 120 -70 120 -56 c 0x81
 120 -42 120 -42 113 -42 c 0
 106 -42 106 -42 106 -28 c 0x82
 106 -14 106 -14 99 -14 c 0
 92 -14 92 -14 92 0 c 0x84
 92 14 92 14 85 14 c 0
 78 14 78 14 78 35 c 0x88
 78 56 78 56 71 56 c 0
 64 56 64 56 64 77 c 0x90
 64 98 64 98 57 98 c 0
 50 98 50 98 50 133 c 0xa0
 50 168 50 168 43 168 c 0
 36 168 36 168 36 294 c 0xc0
 36 420 36 420 43 420 c 0
 50 420 50 420 50 455 c 0xa0
 50 490 50 490 57 490 c 0
 64 490 64 490 64 511 c 0x90
 64 532 64 532 71 532 c 0
 78 532 78 532 78 553 c 0x88
 78 574 78 574 85 574 c 0
 92 574 92 574 92 588 c 0x84
 92 602 92 602 99 602 c 0
 106 602 106 602 106 616 c 0x82
 106 630 106 630 113 630 c 0
 120 630 120 630 120 644 c 0x81
 120 658 120 658 127 658 c 0
 134 658 134 658 134 672 c 0
 134 686 134 686 141 686 c 0
 148 686 148 686 148 693 c 0x8080
EndSplineSet
EndChar

StartChar: parenright
Encoding: 41 41 55
Width: 327
Flags: W
VStem: 40 140<-104.677 -56.0042 644.004 692.677> 54 140<-97.9958 -28.6719 629.999 685.996> 68 154<-55.9958 27.9316 560.068 643.996> 68 140<-69.9958 0.000640869> 82 154<-27.9316 55.3281 532.672 630> 96 154<-0.000640869 111.421 476.579 587.932> 110 154<42.0042 181.052 406.948 545.996> 124 168<112.418 475.582>
LayerCount: 2
Fore
SplineSet
26 693 m 0x80
 26 700 26 700 103 700 c 0
 180 700 180 700 180 686 c 0x80
 180 672 180 672 187 672 c 0
 194 672 194 672 194 658 c 0x40
 194 644 194 644 201 644 c 0
 208 644 208 644 208 637 c 0x10
 208 630 208 630 215 630 c 0
 222 630 222 630 222 616 c 0x20
 222 602 222 602 229 602 c 0
 236 602 236 602 236 581 c 0x08
 236 560 236 560 243 560 c 0
 250 560 250 560 250 546 c 0x04
 250 532 250 532 257 532 c 0
 264 532 264 532 264 504 c 0x02
 264 476 264 476 271 476 c 0
 278 476 278 476 278 441 c 0
 278 406 278 406 285 406 c 0
 292 406 292 406 292 294 c 0x01
 292 182 292 182 285 182 c 0
 278 182 278 182 278 147 c 0
 278 112 278 112 271 112 c 0
 264 112 264 112 264 84 c 0x02
 264 56 264 56 257 56 c 0
 250 56 250 56 250 42 c 0x04
 250 28 250 28 243 28 c 0
 236 28 236 28 236 14 c 0x08
 236 0 236 0 229 0 c 0
 222 0 222 0 222 -14 c 0x20
 222 -28 222 -28 215 -28 c 0
 208 -28 208 -28 208 -42 c 0x10
 208 -56 208 -56 201 -56 c 0
 194 -56 194 -56 194 -70 c 0x40
 194 -84 194 -84 187 -84 c 0
 180 -84 180 -84 180 -98 c 0
 180 -112 180 -112 103 -112 c 0
 26 -112 26 -112 26 -105 c 0
 26 -98 26 -98 33 -98 c 0
 40 -98 40 -98 40 -84 c 0x80
 40 -70 40 -70 47 -70 c 0
 54 -70 54 -70 54 -56 c 0x40
 54 -42 54 -42 61 -42 c 0
 68 -42 68 -42 68 -21 c 0x20
 68 0 68 0 75 0 c 0
 82 0 82 0 82 21 c 0x08
 82 42 82 42 89 42 c 0
 96 42 96 42 96 63 c 0x04
 96 84 96 84 103 84 c 0
 110 84 110 84 110 119 c 0x02
 110 154 110 154 117 154 c 0
 124 154 124 154 124 294 c 0x01
 124 434 124 434 117 434 c 0
 110 434 110 434 110 469 c 0x02
 110 504 110 504 103 504 c 0
 96 504 96 504 96 525 c 0x04
 96 546 96 546 89 546 c 0
 82 546 82 546 82 567 c 0x08
 82 588 82 588 75 588 c 0
 68 588 68 588 68 609 c 0x20
 68 630 68 630 61 630 c 0
 54 630 54 630 54 644 c 0x40
 54 658 54 658 47 658 c 0
 40 658 40 658 40 672 c 0
 40 686 40 686 33 686 c 0
 26 686 26 686 26 693 c 0x80
EndSplineSet
EndChar

StartChar: underscore
Encoding: 95 95 56
Width: 538
Flags: W
HStem: -154 112<10.721 528> -140 98<10.0901 279.938>
LayerCount: 2
Fore
SplineSet
10 -91 m 2x40
 10 -42 l 1x40
 269 -42 l 1
 528 -42 l 1
 528 -98 l 1
 528 -154 l 1
 276 -154 l 2x80
 24 -154 24 -154 24 -147 c 0
 24 -140 24 -140 17 -140 c 0
 10 -140 10 -140 10 -91 c 2x40
EndSplineSet
EndChar

StartChar: plus
Encoding: 43 43 57
Width: 570
Flags: W
HStem: 280 168<348.417 542.578> 294 140<26 208 349.246 544>
VStem: 208 154<99.4219 293.583 434.417 628.578> 208 140<98 292.754 435.246 630>
LayerCount: 2
Fore
SplineSet
208 532 m 1x60
 208 630 l 1
 278 630 l 1
 348 630 l 1
 348 539 l 2
 348 448 348 448 355 448 c 0x90
 362 448 362 448 362 441 c 0
 362 434 362 434 453 434 c 2
 544 434 l 1
 544 364 l 1
 544 294 l 1
 453 294 l 2
 362 294 362 294 362 287 c 0x60
 362 280 362 280 355 280 c 0
 348 280 348 280 348 189 c 2
 348 98 l 1
 278 98 l 1
 208 98 l 1x90
 208 196 l 1xa0
 208 294 l 1
 117 294 l 1
 26 294 l 1
 26 364 l 1
 26 434 l 1
 117 434 l 1
 208 434 l 1x50
 208 532 l 1x60
EndSplineSet
EndChar

StartChar: hyphen
Encoding: 45 45 58
Width: 378
Flags: W
HStem: 252 140<70 307.125> 252 126<71.75 307.817>
VStem: 70 224<252.984 391.474>
LayerCount: 2
Fore
SplineSet
70 322 m 1xa0
 70 392 l 1
 182 392 l 2xa0
 294 392 294 392 294 385 c 0
 294 378 294 378 301 378 c 0
 308 378 308 378 308 315 c 2
 308 252 l 1x60
 189 252 l 1
 70 252 l 1
 70 322 l 1xa0
EndSplineSet
EndChar

StartChar: equal
Encoding: 61 61 59
Width: 606
Flags: W
HStem: 224 126<44 562> 392 140<44 562>
LayerCount: 2
Fore
SplineSet
44 462 m 1
 44 532 l 1
 303 532 l 1
 562 532 l 1
 562 462 l 1
 562 392 l 1
 303 392 l 1
 44 392 l 1
 44 462 l 1
44 287 m 1
 44 350 l 1
 303 350 l 1
 562 350 l 1
 562 287 l 1
 562 224 l 1
 303 224 l 1
 44 224 l 1
 44 287 l 1
EndSplineSet
EndChar

StartChar: colon
Encoding: 58 58 60
Width: 370
Flags: W
HStem: 0 238<107.999 262.001> 14 210<94.0355 182.739 187.261 276.001> 28 182<93.9099 136.005 233.995 289.964> 294 238<122.004 262.001> 308 210<94.0733 182.739 187.261 276.001> 322 182<93.9099 136.005 233.995 289.964>
VStem: 80 210<27.9993 110.062 113.938 116.739 121.261 210.001 321.999 404.062 407.938 410.739 415.261 503.927> 94 182<14.0355 70.0043 168.004 223.964 308.036 364.004 462.004 504.09> 108 154<13.9099 42.0014 196.004 224.09 307.91 336.001> 136 98<0.0901222 14.0901 223.91 237.91 294.09 308.09 517.91 531.91>
LayerCount: 2
Fore
SplineSet
136 525 m 0x0840
 136 532 136 532 185 532 c 0
 234 532 234 532 234 525 c 0x1040
 234 518 234 518 248 518 c 0
 262 518 262 518 262 511 c 0x0880
 262 504 262 504 269 504 c 0
 276 504 276 504 276 497 c 0x05
 276 490 276 490 283 490 c 0
 290 490 290 490 290 476 c 0
 290 462 290 462 297 462 c 0
 304 462 304 462 304 413 c 0
 304 364 304 364 297 364 c 0
 290 364 290 364 290 350 c 0x06
 290 336 290 336 283 336 c 0
 276 336 276 336 276 329 c 0
 276 322 276 322 269 322 c 0x05
 262 322 262 322 262 315 c 0
 262 308 262 308 248 308 c 0x0880
 234 308 234 308 234 301 c 0
 234 294 234 294 185 294 c 0
 136 294 136 294 136 301 c 0x1040
 136 308 136 308 122 308 c 0
 108 308 108 308 108 315 c 0x0880
 108 322 108 322 101 322 c 0
 94 322 94 322 94 329 c 0x05
 94 336 94 336 87 336 c 0
 80 336 80 336 80 350 c 0
 80 364 80 364 73 364 c 0
 66 364 66 364 66 406 c 0
 66 448 66 448 73 448 c 0
 80 448 80 448 80 462 c 0x06
 80 476 80 476 87 476 c 0
 94 476 94 476 94 490 c 0x05
 94 504 94 504 108 504 c 0x0480
 122 504 122 504 122 511 c 0
 122 518 122 518 129 518 c 0
 136 518 136 518 136 525 c 0x0840
136 231 m 0
 136 238 136 238 185 238 c 0
 234 238 234 238 234 231 c 0x8040
 234 224 234 224 248 224 c 0
 262 224 262 224 262 217 c 0x4080
 262 210 262 210 269 210 c 0
 276 210 276 210 276 203 c 0x21
 276 196 276 196 283 196 c 0
 290 196 290 196 290 182 c 0
 290 168 290 168 297 168 c 0
 304 168 304 168 304 119 c 0
 304 70 304 70 297 70 c 0
 290 70 290 70 290 56 c 0x22
 290 42 290 42 283 42 c 0
 276 42 276 42 276 35 c 0
 276 28 276 28 269 28 c 0x21
 262 28 262 28 262 21 c 0
 262 14 262 14 248 14 c 0x4080
 234 14 234 14 234 7 c 0
 234 0 234 0 185 0 c 0
 136 0 136 0 136 7 c 0x8040
 136 14 136 14 122 14 c 0
 108 14 108 14 108 21 c 0x4080
 108 28 108 28 101 28 c 0
 94 28 94 28 94 35 c 0x21
 94 42 94 42 87 42 c 0
 80 42 80 42 80 56 c 0
 80 70 80 70 73 70 c 0
 66 70 66 70 66 112 c 0
 66 154 66 154 73 154 c 0
 80 154 80 154 80 168 c 0x22
 80 182 80 182 87 182 c 0
 94 182 94 182 94 196 c 0
 94 210 94 210 101 210 c 0x21
 108 210 108 210 108 217 c 0
 108 224 108 224 122 224 c 0x4080
 136 224 136 224 136 231 c 0
EndSplineSet
EndChar

